M48
; DRILL file {KiCad 9.0.8-1.fc43} date 2026-05-27T22:25:08-0400
; FORMAT={-:-/ absolute / metric / decimal}
; #@! TF.CreationDate,2026-05-27T22:25:08-04:00
; #@! TF.GenerationSoftware,Kicad,Pcbnew,9.0.8-1.fc43
; #@! TF.FileFunction,Plated,1,2,PTH
FMAT,2
METRIC
; #@! TA.AperFunction,Plated,PTH,ViaDrill
T1C0.500
; #@! TA.AperFunction,Plated,PTH,ComponentDrill
T2C0.750
; #@! TA.AperFunction,Plated,PTH,ComponentDrill
T3C0.800
; #@! TA.AperFunction,Plated,PTH,ComponentDrill
T4C1.400
%
G90
G05
T1
X64.8Y-48.25
X64.85Y-38.05
X64.95Y-62.55
X88.7Y-34.15
X90.1Y-62.45
X93.35Y-26.15
X101.5Y-34.3
X111.2Y-62.45
X121.5Y-42.6
X127.4Y-26.25
X131.8Y-54.7
X136.65Y-38.05
X145.9Y-48.1
X157.9Y-31.45
X173.45Y-42.25
X178.65Y-31.55
T2
X88.8Y-39.98
X88.8Y-41.25
X88.8Y-42.52
X88.8Y-45.48
X88.8Y-46.75
X88.8Y-48.02
X122.0Y-47.5
X122.0Y-48.77
X122.0Y-50.04
X159.0Y-36.73
X159.0Y-38.0
X159.0Y-39.27
T3
X69.85Y-40.81
X69.85Y-50.97
X78.85Y-33.65
X78.85Y-43.81
X79.0Y-46.34
X79.0Y-56.5
X81.25Y-59.45
X81.25Y-61.45
X83.95Y-53.4
X83.95Y-55.4
X84.0Y-40.05
X84.0Y-50.21
X92.69Y-50.4
X92.84Y-41.0
X92.84Y-46.5
X102.85Y-50.4
X102.85Y-54.2
X102.85Y-56.2
X103.0Y-41.0
X103.0Y-46.5
X109.0Y-33.34
X109.0Y-43.5
X109.0Y-45.84
X109.0Y-56.0
X112.85Y-36.3
X115.5Y-40.0
X115.5Y-50.16
X115.55Y-59.65
X122.0Y-54.5
X123.01Y-36.3
X124.0Y-54.5
X125.71Y-59.65
X127.5Y-32.5
X127.5Y-34.5
X127.5Y-38.5
X127.5Y-48.66
X132.35Y-48.6
X132.35Y-50.6
X134.34Y-44.5
X142.92Y-33.0
X142.92Y-36.5
X142.92Y-40.0
X143.0Y-29.0
X144.5Y-44.5
X147.84Y-44.5
X153.08Y-33.0
X153.08Y-36.5
X153.08Y-40.0
X153.16Y-29.0
X158.0Y-44.5
X163.27Y-32.9
X163.3Y-38.05
X165.3Y-38.05
X168.97Y-38.0
X173.43Y-32.9
X179.13Y-38.0
T4
X64.682Y-55.22
X64.682Y-59.18
X65.89Y-29.0
X69.85Y-29.0
X185.0Y-34.09
X185.0Y-38.05
M30
