%TF.GenerationSoftware,KiCad,Pcbnew,9.0.8-1.fc43*%
%TF.CreationDate,2026-05-27T22:25:19-04:00*%
%TF.ProjectId,Amplificador de audiofrecuencia con Potencia de Salida Elevada,416d706c-6966-4696-9361-646f72206465,rev?*%
%TF.SameCoordinates,Original*%
%TF.FileFunction,Copper,L1,Top*%
%TF.FilePolarity,Positive*%
%FSLAX46Y46*%
G04 Gerber Fmt 4.6, Leading zero omitted, Abs format (unit mm)*
G04 Created by KiCad (PCBNEW 9.0.8-1.fc43) date 2026-05-27 22:25:19*
%MOMM*%
%LPD*%
G01*
G04 APERTURE LIST*
G04 Aperture macros list*
%AMRoundRect*
0 Rectangle with rounded corners*
0 $1 Rounding radius*
0 $2 $3 $4 $5 $6 $7 $8 $9 X,Y pos of 4 corners*
0 Add a 4 corners polygon primitive as box body*
4,1,4,$2,$3,$4,$5,$6,$7,$8,$9,$2,$3,0*
0 Add four circle primitives for the rounded corners*
1,1,$1+$1,$2,$3*
1,1,$1+$1,$4,$5*
1,1,$1+$1,$6,$7*
1,1,$1+$1,$8,$9*
0 Add four rect primitives between the rounded corners*
20,1,$1+$1,$2,$3,$4,$5,0*
20,1,$1+$1,$4,$5,$6,$7,0*
20,1,$1+$1,$6,$7,$8,$9,0*
20,1,$1+$1,$8,$9,$2,$3,0*%
G04 Aperture macros list end*
%TA.AperFunction,ComponentPad*%
%ADD10C,1.600000*%
%TD*%
%TA.AperFunction,ComponentPad*%
%ADD11R,1.500000X1.050000*%
%TD*%
%TA.AperFunction,ComponentPad*%
%ADD12O,1.500000X1.050000*%
%TD*%
%TA.AperFunction,ComponentPad*%
%ADD13RoundRect,0.250001X0.949999X0.949999X-0.949999X0.949999X-0.949999X-0.949999X0.949999X-0.949999X0*%
%TD*%
%TA.AperFunction,ComponentPad*%
%ADD14C,2.400000*%
%TD*%
%TA.AperFunction,ComponentPad*%
%ADD15RoundRect,0.250001X0.949999X-0.949999X0.949999X0.949999X-0.949999X0.949999X-0.949999X-0.949999X0*%
%TD*%
%TA.AperFunction,ComponentPad*%
%ADD16RoundRect,0.250001X-0.949999X0.949999X-0.949999X-0.949999X0.949999X-0.949999X0.949999X0.949999X0*%
%TD*%
%TA.AperFunction,ViaPad*%
%ADD17C,1.000000*%
%TD*%
G04 APERTURE END LIST*
D10*
%TO.P,R9,1*%
%TO.N,Net-(C3-Pad1)*%
X112850000Y-36300000D03*
%TO.P,R9,2*%
%TO.N,0*%
X123010000Y-36300000D03*
%TD*%
%TO.P,L4,1,1*%
%TO.N,Net-(Q3-C)*%
X79000000Y-56500000D03*
%TO.P,L4,2,2*%
%TO.N,POWER*%
X79000000Y-46340000D03*
%TD*%
D11*
%TO.P,Q2,1,C*%
%TO.N,Net-(Q2-C)*%
X122000000Y-50040000D03*
D12*
%TO.P,Q2,2,B*%
%TO.N,Net-(Q2-B)*%
X122000000Y-48770000D03*
%TO.P,Q2,3,E*%
%TO.N,0*%
X122000000Y-47500000D03*
%TD*%
D10*
%TO.P,C6,1*%
%TO.N,POWER*%
X81250000Y-59450000D03*
%TO.P,C6,2*%
%TO.N,0*%
X81250000Y-61450000D03*
%TD*%
%TO.P,C1,1*%
%TO.N,Net-(C1-Pad1)*%
X165300000Y-38050000D03*
%TO.P,C1,2*%
%TO.N,Net-(Q1-B)*%
X163300000Y-38050000D03*
%TD*%
D13*
%TO.P,R_LS1,1,1*%
%TO.N,OUT*%
X69850000Y-29000000D03*
D14*
%TO.P,R_LS1,2,2*%
%TO.N,0*%
X65890000Y-29000000D03*
%TD*%
D10*
%TO.P,L2,1,1*%
%TO.N,Net-(C3-Pad1)*%
X109000000Y-45840000D03*
%TO.P,L2,2,2*%
%TO.N,Net-(L2-Pad2)*%
X109000000Y-56000000D03*
%TD*%
D11*
%TO.P,Q4,1,C*%
%TO.N,Net-(Q4-C)*%
X88800000Y-39980000D03*
D12*
%TO.P,Q4,2,B*%
%TO.N,Net-(Q4-B)*%
X88800000Y-41250000D03*
%TO.P,Q4,3,E*%
%TO.N,0*%
X88800000Y-42520000D03*
%TD*%
D10*
%TO.P,R17,1*%
%TO.N,Net-(L2-Pad2)*%
X103000000Y-46500000D03*
%TO.P,R17,2*%
%TO.N,Net-(Q3-B)*%
X92840000Y-46500000D03*
%TD*%
%TO.P,R4,1*%
%TO.N,Net-(C5-Pad2)*%
X147840000Y-44500000D03*
%TO.P,R4,2*%
%TO.N,Net-(Q1-C)*%
X158000000Y-44500000D03*
%TD*%
%TO.P,R1,1*%
%TO.N,IN*%
X179130000Y-38000000D03*
%TO.P,R1,2*%
%TO.N,Net-(C1-Pad1)*%
X168970000Y-38000000D03*
%TD*%
D11*
%TO.P,Q3,1,C*%
%TO.N,Net-(Q3-C)*%
X88800000Y-48020000D03*
D12*
%TO.P,Q3,2,B*%
%TO.N,Net-(Q3-B)*%
X88800000Y-46750000D03*
%TO.P,Q3,3,E*%
%TO.N,0*%
X88800000Y-45480000D03*
%TD*%
D10*
%TO.P,R8,1*%
%TO.N,POWER*%
X92690000Y-50400000D03*
%TO.P,R8,2*%
%TO.N,Net-(C3-Pad1)*%
X102850000Y-50400000D03*
%TD*%
%TO.P,R3,1*%
%TO.N,Net-(Q1-B)*%
X163270000Y-32900000D03*
%TO.P,R3,2*%
%TO.N,0*%
X173430000Y-32900000D03*
%TD*%
%TO.P,L6,1,1*%
%TO.N,0*%
X69850000Y-50970000D03*
%TO.P,L6,2,2*%
%TO.N,OUT*%
X69850000Y-40810000D03*
%TD*%
%TO.P,C3,1*%
%TO.N,Net-(C3-Pad1)*%
X102850000Y-54200000D03*
%TO.P,C3,2*%
%TO.N,0*%
X102850000Y-56200000D03*
%TD*%
%TO.P,C4,1*%
%TO.N,Net-(Q3-C)*%
X83950000Y-55400000D03*
%TO.P,C4,2*%
%TO.N,Net-(C4-Pad2)*%
X83950000Y-53400000D03*
%TD*%
%TO.P,L3,1,1*%
%TO.N,Net-(L3-Pad1)*%
X109000000Y-33340000D03*
%TO.P,L3,2,2*%
%TO.N,Net-(C3-Pad1)*%
X109000000Y-43500000D03*
%TD*%
%TO.P,L1,1,1*%
%TO.N,POWER*%
X115500000Y-50160000D03*
%TO.P,L1,2,2*%
%TO.N,Net-(Q2-C)*%
X115500000Y-40000000D03*
%TD*%
%TO.P,R19,1*%
%TO.N,OUT*%
X143000000Y-29000000D03*
%TO.P,R19,2*%
%TO.N,Net-(Q1-E)*%
X153160000Y-29000000D03*
%TD*%
%TO.P,R2,1*%
%TO.N,Net-(C5-Pad2)*%
X142920000Y-40000000D03*
%TO.P,R2,2*%
%TO.N,Net-(Q1-B)*%
X153080000Y-40000000D03*
%TD*%
D15*
%TO.P,J2,1,Pin_1*%
%TO.N,POWER*%
X64682500Y-59180000D03*
D14*
%TO.P,J2,2,Pin_2*%
%TO.N,0*%
X64682500Y-55220000D03*
%TD*%
D10*
%TO.P,R7,1*%
%TO.N,Net-(C5-Pad2)*%
X144500000Y-44500000D03*
%TO.P,R7,2*%
%TO.N,Net-(C2-Pad1)*%
X134340000Y-44500000D03*
%TD*%
%TO.P,L5,1,1*%
%TO.N,POWER*%
X78850000Y-43810000D03*
%TO.P,L5,2,2*%
%TO.N,Net-(Q4-C)*%
X78850000Y-33650000D03*
%TD*%
D11*
%TO.P,Q1,1,C*%
%TO.N,Net-(Q1-C)*%
X159000000Y-39270000D03*
D12*
%TO.P,Q1,2,B*%
%TO.N,Net-(Q1-B)*%
X159000000Y-38000000D03*
%TO.P,Q1,3,E*%
%TO.N,Net-(Q1-E)*%
X159000000Y-36730000D03*
%TD*%
D10*
%TO.P,R16,1*%
%TO.N,Net-(L3-Pad1)*%
X103000000Y-41000000D03*
%TO.P,R16,2*%
%TO.N,Net-(Q4-B)*%
X92840000Y-41000000D03*
%TD*%
%TO.P,R11,1*%
%TO.N,Net-(Q4-C)*%
X84000000Y-40050000D03*
%TO.P,R11,2*%
%TO.N,Net-(C4-Pad2)*%
X84000000Y-50210000D03*
%TD*%
D16*
%TO.P,J1,1,Pin_1*%
%TO.N,0*%
X185000000Y-34090000D03*
D14*
%TO.P,J1,2,Pin_2*%
%TO.N,IN*%
X185000000Y-38050000D03*
%TD*%
D10*
%TO.P,R18,1*%
%TO.N,Net-(C2-Pad1)*%
X127500000Y-38500000D03*
%TO.P,R18,2*%
%TO.N,Net-(Q2-B)*%
X127500000Y-48660000D03*
%TD*%
%TO.P,R5,1*%
%TO.N,Net-(Q1-E)*%
X153080000Y-36500000D03*
%TO.P,R5,2*%
%TO.N,0*%
X142920000Y-36500000D03*
%TD*%
%TO.P,R12,1*%
%TO.N,Net-(C5-Pad2)*%
X125710000Y-59650000D03*
%TO.P,R12,2*%
%TO.N,POWER*%
X115550000Y-59650000D03*
%TD*%
%TO.P,C7,1*%
%TO.N,Net-(Q2-B)*%
X124000000Y-54500000D03*
%TO.P,C7,2*%
%TO.N,Net-(Q2-C)*%
X122000000Y-54500000D03*
%TD*%
%TO.P,R6,1*%
%TO.N,Net-(Q1-E)*%
X153080000Y-33000000D03*
%TO.P,R6,2*%
%TO.N,Net-(C2-Pad2)*%
X142920000Y-33000000D03*
%TD*%
%TO.P,C5,1*%
%TO.N,0*%
X132350000Y-48600000D03*
%TO.P,C5,2*%
%TO.N,Net-(C5-Pad2)*%
X132350000Y-50600000D03*
%TD*%
%TO.P,C2,1*%
%TO.N,Net-(C2-Pad1)*%
X127500000Y-34500000D03*
%TO.P,C2,2*%
%TO.N,Net-(C2-Pad2)*%
X127500000Y-32500000D03*
%TD*%
D17*
%TO.N,0*%
X131800000Y-54700000D03*
X88700000Y-34150000D03*
X178650000Y-31550000D03*
X90100000Y-62450000D03*
X64950000Y-62550000D03*
X64800000Y-48250000D03*
X121500000Y-42600000D03*
X111200000Y-62450000D03*
X93350000Y-26150000D03*
X127400000Y-26250000D03*
X136650000Y-38050000D03*
X64850000Y-38050000D03*
X145900000Y-48100000D03*
X157900000Y-31450000D03*
X173450000Y-42250000D03*
X101500000Y-34300000D03*
%TD*%
%TA.AperFunction,Conductor*%
%TO.N,0*%
G36*
X189092539Y-24670185D02*
G01*
X189138294Y-24722989D01*
X189149500Y-24774500D01*
X189149500Y-44573881D01*
X189129815Y-44640920D01*
X189077011Y-44686675D01*
X189024610Y-44697878D01*
X161431814Y-44499725D01*
X161414641Y-44499601D01*
X161408815Y-44497911D01*
X161394822Y-44499459D01*
X161387528Y-44499407D01*
X161387527Y-44499406D01*
X161380732Y-44499358D01*
X161375106Y-44501641D01*
X161369076Y-44502309D01*
X161356740Y-44509093D01*
X161349996Y-44511830D01*
X161349998Y-44511830D01*
X161343683Y-44514393D01*
X161333479Y-44521106D01*
X161333035Y-44520432D01*
X161324308Y-44526935D01*
X124227092Y-64934146D01*
X124167326Y-64949500D01*
X59424500Y-64949500D01*
X59357461Y-64929815D01*
X59311706Y-64877011D01*
X59300500Y-64825500D01*
X59300500Y-58179984D01*
X62982000Y-58179984D01*
X62982000Y-60180015D01*
X62992500Y-60282795D01*
X62992501Y-60282796D01*
X63047686Y-60449335D01*
X63047687Y-60449337D01*
X63139786Y-60598651D01*
X63139789Y-60598655D01*
X63263844Y-60722710D01*
X63263848Y-60722713D01*
X63413162Y-60814812D01*
X63413164Y-60814813D01*
X63413166Y-60814814D01*
X63579703Y-60869999D01*
X63682492Y-60880500D01*
X63682497Y-60880500D01*
X65682503Y-60880500D01*
X65682508Y-60880500D01*
X65785297Y-60869999D01*
X65951834Y-60814814D01*
X66101155Y-60722711D01*
X66225211Y-60598655D01*
X66317314Y-60449334D01*
X66372499Y-60282797D01*
X66383000Y-60180008D01*
X66383000Y-59347648D01*
X79949500Y-59347648D01*
X79949500Y-59552351D01*
X79981522Y-59754534D01*
X80044781Y-59949223D01*
X80137715Y-60131613D01*
X80258028Y-60297213D01*
X80402786Y-60441971D01*
X80557749Y-60554556D01*
X80568390Y-60562287D01*
X80750781Y-60655220D01*
X80808373Y-60673932D01*
X80857735Y-60704182D01*
X81203554Y-61050000D01*
X81197339Y-61050000D01*
X81095606Y-61077259D01*
X81004394Y-61129920D01*
X80929920Y-61204394D01*
X80877259Y-61295606D01*
X80850000Y-61397339D01*
X80850000Y-61403553D01*
X80170524Y-60724077D01*
X80170523Y-60724077D01*
X80138143Y-60768644D01*
X80045244Y-60950968D01*
X79982009Y-61145582D01*
X79950000Y-61347682D01*
X79950000Y-61552317D01*
X79982009Y-61754417D01*
X80045244Y-61949031D01*
X80138141Y-62131350D01*
X80138147Y-62131359D01*
X80170523Y-62175921D01*
X80170524Y-62175922D01*
X80850000Y-61496446D01*
X80850000Y-61502661D01*
X80877259Y-61604394D01*
X80929920Y-61695606D01*
X81004394Y-61770080D01*
X81095606Y-61822741D01*
X81197339Y-61850000D01*
X81203553Y-61850000D01*
X80524076Y-62529474D01*
X80568650Y-62561859D01*
X80750968Y-62654755D01*
X80945582Y-62717990D01*
X81147683Y-62750000D01*
X81352317Y-62750000D01*
X81554417Y-62717990D01*
X81749031Y-62654755D01*
X81931349Y-62561859D01*
X81975921Y-62529474D01*
X81296447Y-61850000D01*
X81302661Y-61850000D01*
X81404394Y-61822741D01*
X81495606Y-61770080D01*
X81570080Y-61695606D01*
X81622741Y-61604394D01*
X81650000Y-61502661D01*
X81650000Y-61496447D01*
X82329474Y-62175921D01*
X82361859Y-62131349D01*
X82454755Y-61949031D01*
X82517990Y-61754417D01*
X82550000Y-61552317D01*
X82550000Y-61347682D01*
X82517990Y-61145582D01*
X82454755Y-60950968D01*
X82361859Y-60768650D01*
X82329474Y-60724077D01*
X82329474Y-60724076D01*
X81650000Y-61403551D01*
X81650000Y-61397339D01*
X81622741Y-61295606D01*
X81570080Y-61204394D01*
X81495606Y-61129920D01*
X81404394Y-61077259D01*
X81302661Y-61050000D01*
X81296447Y-61050000D01*
X81642262Y-60704183D01*
X81691626Y-60673933D01*
X81749213Y-60655222D01*
X81749219Y-60655220D01*
X81749223Y-60655218D01*
X81931610Y-60562287D01*
X82087074Y-60449337D01*
X82097213Y-60441971D01*
X82097215Y-60441968D01*
X82097219Y-60441966D01*
X82241966Y-60297219D01*
X82241968Y-60297215D01*
X82241971Y-60297213D01*
X82327128Y-60180002D01*
X82362287Y-60131610D01*
X82455220Y-59949219D01*
X82518477Y-59754534D01*
X82550500Y-59552352D01*
X82550500Y-59547648D01*
X114249500Y-59547648D01*
X114249500Y-59752351D01*
X114281522Y-59954534D01*
X114344781Y-60149223D01*
X114360471Y-60180015D01*
X114412841Y-60282797D01*
X114437715Y-60331613D01*
X114558028Y-60497213D01*
X114702786Y-60641971D01*
X114815798Y-60724077D01*
X114868390Y-60762287D01*
X114971476Y-60814812D01*
X115050776Y-60855218D01*
X115050778Y-60855218D01*
X115050781Y-60855220D01*
X115128582Y-60880499D01*
X115245465Y-60918477D01*
X115346557Y-60934488D01*
X115447648Y-60950500D01*
X115447649Y-60950500D01*
X115652351Y-60950500D01*
X115652352Y-60950500D01*
X115854534Y-60918477D01*
X116049219Y-60855220D01*
X116231610Y-60762287D01*
X116353220Y-60673933D01*
X116397213Y-60641971D01*
X116397215Y-60641968D01*
X116397219Y-60641966D01*
X116541966Y-60497219D01*
X116541968Y-60497215D01*
X116541971Y-60497213D01*
X116594732Y-60424590D01*
X116662287Y-60331610D01*
X116755220Y-60149219D01*
X116818477Y-59954534D01*
X116850500Y-59752352D01*
X116850500Y-59547648D01*
X124409500Y-59547648D01*
X124409500Y-59752351D01*
X124441522Y-59954534D01*
X124504781Y-60149223D01*
X124520471Y-60180015D01*
X124572841Y-60282797D01*
X124597715Y-60331613D01*
X124718028Y-60497213D01*
X124862786Y-60641971D01*
X124975798Y-60724077D01*
X125028390Y-60762287D01*
X125131476Y-60814812D01*
X125210776Y-60855218D01*
X125210778Y-60855218D01*
X125210781Y-60855220D01*
X125288582Y-60880499D01*
X125405465Y-60918477D01*
X125506557Y-60934488D01*
X125607648Y-60950500D01*
X125607649Y-60950500D01*
X125812351Y-60950500D01*
X125812352Y-60950500D01*
X126014534Y-60918477D01*
X126209219Y-60855220D01*
X126391610Y-60762287D01*
X126513220Y-60673933D01*
X126557213Y-60641971D01*
X126557215Y-60641968D01*
X126557219Y-60641966D01*
X126701966Y-60497219D01*
X126701968Y-60497215D01*
X126701971Y-60497213D01*
X126754732Y-60424590D01*
X126822287Y-60331610D01*
X126915220Y-60149219D01*
X126978477Y-59954534D01*
X127010500Y-59752352D01*
X127010500Y-59547648D01*
X126978477Y-59345466D01*
X126915220Y-59150781D01*
X126915218Y-59150778D01*
X126915218Y-59150776D01*
X126881503Y-59084607D01*
X126822287Y-58968390D01*
X126809490Y-58950776D01*
X126701971Y-58802786D01*
X126557213Y-58658028D01*
X126391613Y-58537715D01*
X126391612Y-58537714D01*
X126391610Y-58537713D01*
X126334653Y-58508691D01*
X126209223Y-58444781D01*
X126014534Y-58381522D01*
X125839995Y-58353878D01*
X125812352Y-58349500D01*
X125607648Y-58349500D01*
X125583329Y-58353351D01*
X125405465Y-58381522D01*
X125210776Y-58444781D01*
X125028386Y-58537715D01*
X124862786Y-58658028D01*
X124718028Y-58802786D01*
X124597715Y-58968386D01*
X124504781Y-59150776D01*
X124441522Y-59345465D01*
X124409500Y-59547648D01*
X116850500Y-59547648D01*
X116818477Y-59345466D01*
X116755220Y-59150781D01*
X116755218Y-59150778D01*
X116755218Y-59150776D01*
X116721503Y-59084607D01*
X116662287Y-58968390D01*
X116649490Y-58950776D01*
X116541971Y-58802786D01*
X116397213Y-58658028D01*
X116231613Y-58537715D01*
X116231612Y-58537714D01*
X116231610Y-58537713D01*
X116174653Y-58508691D01*
X116049223Y-58444781D01*
X115854534Y-58381522D01*
X115679995Y-58353878D01*
X115652352Y-58349500D01*
X115447648Y-58349500D01*
X115423329Y-58353351D01*
X115245465Y-58381522D01*
X115050776Y-58444781D01*
X114868386Y-58537715D01*
X114702786Y-58658028D01*
X114558028Y-58802786D01*
X114437715Y-58968386D01*
X114344781Y-59150776D01*
X114281522Y-59345465D01*
X114249500Y-59547648D01*
X82550500Y-59547648D01*
X82550500Y-59347648D01*
X82518477Y-59145466D01*
X82455220Y-58950781D01*
X82455218Y-58950778D01*
X82455218Y-58950776D01*
X82421503Y-58884607D01*
X82362287Y-58768390D01*
X82354556Y-58757749D01*
X82241971Y-58602786D01*
X82097213Y-58458028D01*
X81931613Y-58337715D01*
X81931612Y-58337714D01*
X81931610Y-58337713D01*
X81874653Y-58308691D01*
X81749223Y-58244781D01*
X81554534Y-58181522D01*
X81379995Y-58153878D01*
X81352352Y-58149500D01*
X81147648Y-58149500D01*
X81123329Y-58153351D01*
X80945465Y-58181522D01*
X80750776Y-58244781D01*
X80568386Y-58337715D01*
X80402786Y-58458028D01*
X80258028Y-58602786D01*
X80137715Y-58768386D01*
X80044781Y-58950776D01*
X79981522Y-59145465D01*
X79949500Y-59347648D01*
X66383000Y-59347648D01*
X66383000Y-58179992D01*
X66372499Y-58077203D01*
X66317314Y-57910666D01*
X66249362Y-57800500D01*
X66225213Y-57761348D01*
X66225210Y-57761344D01*
X66101155Y-57637289D01*
X66101151Y-57637286D01*
X65951837Y-57545187D01*
X65951835Y-57545186D01*
X65868565Y-57517593D01*
X65785297Y-57490001D01*
X65785295Y-57490000D01*
X65682515Y-57479500D01*
X65682508Y-57479500D01*
X63682492Y-57479500D01*
X63682484Y-57479500D01*
X63579704Y-57490000D01*
X63579703Y-57490001D01*
X63413164Y-57545186D01*
X63413162Y-57545187D01*
X63263848Y-57637286D01*
X63263844Y-57637289D01*
X63139789Y-57761344D01*
X63139786Y-57761348D01*
X63047687Y-57910662D01*
X63047686Y-57910664D01*
X62992501Y-58077203D01*
X62992500Y-58077204D01*
X62982000Y-58179984D01*
X59300500Y-58179984D01*
X59300500Y-55108575D01*
X62982500Y-55108575D01*
X62982500Y-55331424D01*
X63011585Y-55552354D01*
X63011588Y-55552367D01*
X63069263Y-55767618D01*
X63154545Y-55973502D01*
X63154554Y-55973520D01*
X63265964Y-56166491D01*
X63265973Y-56166504D01*
X63316540Y-56232403D01*
X63316543Y-56232403D01*
X64043190Y-55505756D01*
X64062168Y-55551574D01*
X64138774Y-55666224D01*
X64236276Y-55763726D01*
X64350926Y-55840332D01*
X64396742Y-55859309D01*
X63670095Y-56585955D01*
X63670095Y-56585956D01*
X63736007Y-56636533D01*
X63928985Y-56747949D01*
X63928997Y-56747954D01*
X64134881Y-56833236D01*
X64350132Y-56890911D01*
X64350145Y-56890914D01*
X64571075Y-56920000D01*
X64793925Y-56920000D01*
X65014854Y-56890914D01*
X65014867Y-56890911D01*
X65230118Y-56833236D01*
X65436002Y-56747954D01*
X65436014Y-56747949D01*
X65628998Y-56636530D01*
X65694903Y-56585957D01*
X65694904Y-56585956D01*
X65589405Y-56480457D01*
X65506596Y-56397648D01*
X77699500Y-56397648D01*
X77699500Y-56602351D01*
X77731522Y-56804534D01*
X77794781Y-56999223D01*
X77852391Y-57112287D01*
X77884814Y-57175921D01*
X77887715Y-57181613D01*
X78008028Y-57347213D01*
X78152786Y-57491971D01*
X78307749Y-57604556D01*
X78318390Y-57612287D01*
X78434607Y-57671503D01*
X78500776Y-57705218D01*
X78500778Y-57705218D01*
X78500781Y-57705220D01*
X78605137Y-57739127D01*
X78695465Y-57768477D01*
X78796557Y-57784488D01*
X78897648Y-57800500D01*
X78897649Y-57800500D01*
X79102351Y-57800500D01*
X79102352Y-57800500D01*
X79304534Y-57768477D01*
X79499219Y-57705220D01*
X79681610Y-57612287D01*
X79774590Y-57544732D01*
X79847213Y-57491971D01*
X79847215Y-57491968D01*
X79847219Y-57491966D01*
X79991966Y-57347219D01*
X79991968Y-57347215D01*
X79991971Y-57347213D01*
X80112286Y-57181611D01*
X80115186Y-57175921D01*
X80115186Y-57175920D01*
X80205218Y-56999223D01*
X80205218Y-56999222D01*
X80205220Y-56999219D01*
X80268477Y-56804534D01*
X80300500Y-56602352D01*
X80300500Y-56397648D01*
X80276673Y-56247213D01*
X80268477Y-56195465D01*
X80231483Y-56081610D01*
X80205220Y-56000781D01*
X80205218Y-56000778D01*
X80205218Y-56000776D01*
X80160072Y-55912174D01*
X80112287Y-55818390D01*
X80098926Y-55800000D01*
X79991971Y-55652786D01*
X79847213Y-55508028D01*
X79681613Y-55387715D01*
X79681612Y-55387714D01*
X79681610Y-55387713D01*
X79624653Y-55358691D01*
X79499223Y-55294781D01*
X79304534Y-55231522D01*
X79129995Y-55203878D01*
X79102352Y-55199500D01*
X78897648Y-55199500D01*
X78873329Y-55203351D01*
X78695465Y-55231522D01*
X78500776Y-55294781D01*
X78318386Y-55387715D01*
X78152786Y-55508028D01*
X78008028Y-55652786D01*
X77887715Y-55818386D01*
X77794781Y-56000776D01*
X77731522Y-56195465D01*
X77699500Y-56397648D01*
X65506596Y-56397648D01*
X64968257Y-55859309D01*
X65014074Y-55840332D01*
X65128724Y-55763726D01*
X65226226Y-55666224D01*
X65302832Y-55551574D01*
X65321809Y-55505757D01*
X66048456Y-56232404D01*
X66048457Y-56232403D01*
X66099030Y-56166498D01*
X66210449Y-55973514D01*
X66210454Y-55973502D01*
X66295736Y-55767618D01*
X66353411Y-55552367D01*
X66353414Y-55552354D01*
X66382500Y-55331424D01*
X66382500Y-55108575D01*
X66353414Y-54887645D01*
X66353411Y-54887632D01*
X66295736Y-54672381D01*
X66210454Y-54466497D01*
X66210449Y-54466485D01*
X66099033Y-54273507D01*
X66048456Y-54207595D01*
X66048455Y-54207595D01*
X65321809Y-54934242D01*
X65302832Y-54888426D01*
X65226226Y-54773776D01*
X65128724Y-54676274D01*
X65014074Y-54599668D01*
X64968256Y-54580689D01*
X65694903Y-53854043D01*
X65694903Y-53854040D01*
X65629004Y-53803473D01*
X65628991Y-53803464D01*
X65436020Y-53692054D01*
X65436002Y-53692045D01*
X65230118Y-53606763D01*
X65014867Y-53549088D01*
X65014854Y-53549085D01*
X64793925Y-53520000D01*
X64571075Y-53520000D01*
X64350145Y-53549085D01*
X64350132Y-53549088D01*
X64134881Y-53606763D01*
X63928997Y-53692045D01*
X63928979Y-53692054D01*
X63736011Y-53803462D01*
X63670095Y-53854042D01*
X64396743Y-54580689D01*
X64350926Y-54599668D01*
X64236276Y-54676274D01*
X64138774Y-54773776D01*
X64062168Y-54888426D01*
X64043190Y-54934243D01*
X63316542Y-54207595D01*
X63265962Y-54273511D01*
X63154554Y-54466479D01*
X63154545Y-54466497D01*
X63069263Y-54672381D01*
X63011588Y-54887632D01*
X63011585Y-54887645D01*
X62982500Y-55108575D01*
X59300500Y-55108575D01*
X59300500Y-53297648D01*
X82649500Y-53297648D01*
X82649500Y-53502351D01*
X82681522Y-53704534D01*
X82744781Y-53899223D01*
X82837715Y-54081613D01*
X82958028Y-54247213D01*
X83023134Y-54312319D01*
X83056619Y-54373642D01*
X83051635Y-54443334D01*
X83023134Y-54487681D01*
X82958032Y-54552782D01*
X82958028Y-54552786D01*
X82837715Y-54718386D01*
X82744781Y-54900776D01*
X82681522Y-55095465D01*
X82661798Y-55220000D01*
X82649500Y-55297648D01*
X82649500Y-55502352D01*
X82652081Y-55518650D01*
X82681522Y-55704534D01*
X82744781Y-55899223D01*
X82837715Y-56081613D01*
X82958028Y-56247213D01*
X83102786Y-56391971D01*
X83224579Y-56480457D01*
X83268390Y-56512287D01*
X83384607Y-56571503D01*
X83450776Y-56605218D01*
X83450778Y-56605218D01*
X83450781Y-56605220D01*
X83555137Y-56639127D01*
X83645465Y-56668477D01*
X83728383Y-56681610D01*
X83847648Y-56700500D01*
X83847649Y-56700500D01*
X84052351Y-56700500D01*
X84052352Y-56700500D01*
X84254534Y-56668477D01*
X84449219Y-56605220D01*
X84631610Y-56512287D01*
X84724590Y-56444732D01*
X84797213Y-56391971D01*
X84797215Y-56391968D01*
X84797219Y-56391966D01*
X84941966Y-56247219D01*
X84941968Y-56247215D01*
X84941971Y-56247213D01*
X85047217Y-56102352D01*
X85062287Y-56081610D01*
X85155220Y-55899219D01*
X85218477Y-55704534D01*
X85250500Y-55502352D01*
X85250500Y-55297648D01*
X85218477Y-55095466D01*
X85155220Y-54900781D01*
X85155218Y-54900778D01*
X85155218Y-54900776D01*
X85121503Y-54834607D01*
X85062287Y-54718390D01*
X85048563Y-54699500D01*
X84941971Y-54552786D01*
X84876866Y-54487681D01*
X84843381Y-54426358D01*
X84848365Y-54356666D01*
X84876866Y-54312319D01*
X84886836Y-54302349D01*
X84941966Y-54247219D01*
X84941968Y-54247215D01*
X84941971Y-54247213D01*
X85050635Y-54097648D01*
X101549500Y-54097648D01*
X101549500Y-54302351D01*
X101581522Y-54504534D01*
X101644781Y-54699223D01*
X101737715Y-54881613D01*
X101858028Y-55047213D01*
X102002786Y-55191971D01*
X102136261Y-55288944D01*
X102168390Y-55312287D01*
X102350781Y-55405220D01*
X102408373Y-55423932D01*
X102457735Y-55454182D01*
X102803554Y-55800000D01*
X102797339Y-55800000D01*
X102695606Y-55827259D01*
X102604394Y-55879920D01*
X102529920Y-55954394D01*
X102477259Y-56045606D01*
X102450000Y-56147339D01*
X102450000Y-56153553D01*
X101770524Y-55474077D01*
X101770523Y-55474077D01*
X101738143Y-55518644D01*
X101645244Y-55700968D01*
X101582009Y-55895582D01*
X101550000Y-56097682D01*
X101550000Y-56302317D01*
X101582009Y-56504417D01*
X101645244Y-56699031D01*
X101738141Y-56881350D01*
X101738147Y-56881359D01*
X101770523Y-56925921D01*
X101770524Y-56925922D01*
X102450000Y-56246446D01*
X102450000Y-56252661D01*
X102477259Y-56354394D01*
X102529920Y-56445606D01*
X102604394Y-56520080D01*
X102695606Y-56572741D01*
X102797339Y-56600000D01*
X102803553Y-56600000D01*
X102124076Y-57279474D01*
X102168650Y-57311859D01*
X102350968Y-57404755D01*
X102545582Y-57467990D01*
X102747683Y-57500000D01*
X102952317Y-57500000D01*
X103154417Y-57467990D01*
X103349031Y-57404755D01*
X103531349Y-57311859D01*
X103575921Y-57279474D01*
X102896447Y-56600000D01*
X102902661Y-56600000D01*
X103004394Y-56572741D01*
X103095606Y-56520080D01*
X103170080Y-56445606D01*
X103222741Y-56354394D01*
X103250000Y-56252661D01*
X103250000Y-56246447D01*
X103929474Y-56925921D01*
X103961859Y-56881349D01*
X104054755Y-56699031D01*
X104117990Y-56504417D01*
X104150000Y-56302317D01*
X104150000Y-56097682D01*
X104120618Y-55912174D01*
X104118317Y-55897648D01*
X107699500Y-55897648D01*
X107699500Y-56102351D01*
X107731522Y-56304534D01*
X107794781Y-56499223D01*
X107847328Y-56602351D01*
X107881021Y-56668477D01*
X107887715Y-56681613D01*
X108008028Y-56847213D01*
X108152786Y-56991971D01*
X108307749Y-57104556D01*
X108318390Y-57112287D01*
X108434607Y-57171503D01*
X108500776Y-57205218D01*
X108500778Y-57205218D01*
X108500781Y-57205220D01*
X108605137Y-57239127D01*
X108695465Y-57268477D01*
X108764897Y-57279474D01*
X108897648Y-57300500D01*
X108897649Y-57300500D01*
X109102351Y-57300500D01*
X109102352Y-57300500D01*
X109304534Y-57268477D01*
X109499219Y-57205220D01*
X109681610Y-57112287D01*
X109837231Y-56999223D01*
X109847213Y-56991971D01*
X109847215Y-56991968D01*
X109847219Y-56991966D01*
X109991966Y-56847219D01*
X109991968Y-56847215D01*
X109991971Y-56847213D01*
X110044732Y-56774590D01*
X110112287Y-56681610D01*
X110205220Y-56499219D01*
X110268477Y-56304534D01*
X110300500Y-56102352D01*
X110300500Y-55897648D01*
X110300173Y-55895582D01*
X110268477Y-55695465D01*
X110221977Y-55552354D01*
X110205220Y-55500781D01*
X110205218Y-55500778D01*
X110205218Y-55500776D01*
X110147610Y-55387715D01*
X110112287Y-55318390D01*
X110095134Y-55294781D01*
X109991971Y-55152786D01*
X109847213Y-55008028D01*
X109681613Y-54887715D01*
X109681612Y-54887714D01*
X109681610Y-54887713D01*
X109624653Y-54858691D01*
X109499223Y-54794781D01*
X109304534Y-54731522D01*
X109129995Y-54703878D01*
X109102352Y-54699500D01*
X108897648Y-54699500D01*
X108873329Y-54703351D01*
X108695465Y-54731522D01*
X108500776Y-54794781D01*
X108318386Y-54887715D01*
X108152786Y-55008028D01*
X108008028Y-55152786D01*
X107887715Y-55318386D01*
X107794781Y-55500776D01*
X107731522Y-55695465D01*
X107699500Y-55897648D01*
X104118317Y-55897648D01*
X104117990Y-55895582D01*
X104054755Y-55700968D01*
X103961859Y-55518650D01*
X103929474Y-55474077D01*
X103929474Y-55474076D01*
X103250000Y-56153551D01*
X103250000Y-56147339D01*
X103222741Y-56045606D01*
X103170080Y-55954394D01*
X103095606Y-55879920D01*
X103004394Y-55827259D01*
X102902661Y-55800000D01*
X102896447Y-55800000D01*
X103242262Y-55454183D01*
X103291626Y-55423933D01*
X103349213Y-55405222D01*
X103349219Y-55405220D01*
X103349223Y-55405218D01*
X103531610Y-55312287D01*
X103642773Y-55231523D01*
X103697213Y-55191971D01*
X103697215Y-55191968D01*
X103697219Y-55191966D01*
X103841966Y-55047219D01*
X103841968Y-55047215D01*
X103841971Y-55047213D01*
X103894732Y-54974590D01*
X103962287Y-54881610D01*
X104055220Y-54699219D01*
X104118477Y-54504534D01*
X104135406Y-54397648D01*
X120699500Y-54397648D01*
X120699500Y-54602351D01*
X120731522Y-54804534D01*
X120794781Y-54999223D01*
X120819234Y-55047213D01*
X120873026Y-55152786D01*
X120887715Y-55181613D01*
X121008028Y-55347213D01*
X121152786Y-55491971D01*
X121307749Y-55604556D01*
X121318390Y-55612287D01*
X121397864Y-55652781D01*
X121500776Y-55705218D01*
X121500778Y-55705218D01*
X121500781Y-55705220D01*
X121605137Y-55739127D01*
X121695465Y-55768477D01*
X121796557Y-55784488D01*
X121897648Y-55800500D01*
X121897649Y-55800500D01*
X122102351Y-55800500D01*
X122102352Y-55800500D01*
X122304534Y-55768477D01*
X122499219Y-55705220D01*
X122681610Y-55612287D01*
X122774590Y-55544732D01*
X122847213Y-55491971D01*
X122847215Y-55491968D01*
X122847219Y-55491966D01*
X122912319Y-55426866D01*
X122973642Y-55393381D01*
X123043334Y-55398365D01*
X123087681Y-55426866D01*
X123152786Y-55491971D01*
X123307749Y-55604556D01*
X123318390Y-55612287D01*
X123397864Y-55652781D01*
X123500776Y-55705218D01*
X123500778Y-55705218D01*
X123500781Y-55705220D01*
X123605137Y-55739127D01*
X123695465Y-55768477D01*
X123796557Y-55784488D01*
X123897648Y-55800500D01*
X123897649Y-55800500D01*
X124102351Y-55800500D01*
X124102352Y-55800500D01*
X124304534Y-55768477D01*
X124499219Y-55705220D01*
X124681610Y-55612287D01*
X124774590Y-55544732D01*
X124847213Y-55491971D01*
X124847215Y-55491968D01*
X124847219Y-55491966D01*
X124991966Y-55347219D01*
X124991968Y-55347215D01*
X124991971Y-55347213D01*
X125076024Y-55231522D01*
X125112287Y-55181610D01*
X125205220Y-54999219D01*
X125268477Y-54804534D01*
X125300500Y-54602352D01*
X125300500Y-54397648D01*
X125268477Y-54195466D01*
X125205220Y-54000781D01*
X125205218Y-54000778D01*
X125205218Y-54000776D01*
X125171503Y-53934607D01*
X125112287Y-53818390D01*
X125101441Y-53803462D01*
X124991971Y-53652786D01*
X124847213Y-53508028D01*
X124681613Y-53387715D01*
X124681612Y-53387714D01*
X124681610Y-53387713D01*
X124613052Y-53352781D01*
X124499223Y-53294781D01*
X124304534Y-53231522D01*
X124129995Y-53203878D01*
X124102352Y-53199500D01*
X123897648Y-53199500D01*
X123873329Y-53203351D01*
X123695465Y-53231522D01*
X123500776Y-53294781D01*
X123318386Y-53387715D01*
X123152786Y-53508028D01*
X123152782Y-53508032D01*
X123087681Y-53573134D01*
X123026358Y-53606619D01*
X122956666Y-53601635D01*
X122912319Y-53573134D01*
X122847213Y-53508028D01*
X122681613Y-53387715D01*
X122681612Y-53387714D01*
X122681610Y-53387713D01*
X122613052Y-53352781D01*
X122499223Y-53294781D01*
X122304534Y-53231522D01*
X122129995Y-53203878D01*
X122102352Y-53199500D01*
X121897648Y-53199500D01*
X121873329Y-53203351D01*
X121695465Y-53231522D01*
X121500776Y-53294781D01*
X121318386Y-53387715D01*
X121152786Y-53508028D01*
X121008028Y-53652786D01*
X120887715Y-53818386D01*
X120794781Y-54000776D01*
X120731522Y-54195465D01*
X120699500Y-54397648D01*
X104135406Y-54397648D01*
X104150500Y-54302352D01*
X104150500Y-54097648D01*
X104119072Y-53899223D01*
X104118477Y-53895465D01*
X104055218Y-53700776D01*
X104007242Y-53606619D01*
X103962287Y-53518390D01*
X103950634Y-53502351D01*
X103841971Y-53352786D01*
X103697213Y-53208028D01*
X103531613Y-53087715D01*
X103531612Y-53087714D01*
X103531610Y-53087713D01*
X103474653Y-53058691D01*
X103349223Y-52994781D01*
X103154534Y-52931522D01*
X102979995Y-52903878D01*
X102952352Y-52899500D01*
X102747648Y-52899500D01*
X102723329Y-52903351D01*
X102545465Y-52931522D01*
X102350776Y-52994781D01*
X102168386Y-53087715D01*
X102002786Y-53208028D01*
X101858028Y-53352786D01*
X101737715Y-53518386D01*
X101644781Y-53700776D01*
X101581522Y-53895465D01*
X101549500Y-54097648D01*
X85050635Y-54097648D01*
X85062286Y-54081611D01*
X85085281Y-54036482D01*
X85085281Y-54036481D01*
X85155218Y-53899223D01*
X85155218Y-53899222D01*
X85155220Y-53899219D01*
X85218477Y-53704534D01*
X85250500Y-53502352D01*
X85250500Y-53297648D01*
X85218477Y-53095466D01*
X85155220Y-52900781D01*
X85155218Y-52900778D01*
X85155218Y-52900776D01*
X85121503Y-52834607D01*
X85062287Y-52718390D01*
X85054556Y-52707749D01*
X84941971Y-52552786D01*
X84797213Y-52408028D01*
X84631613Y-52287715D01*
X84631612Y-52287714D01*
X84631610Y-52287713D01*
X84574653Y-52258691D01*
X84449223Y-52194781D01*
X84254534Y-52131522D01*
X84079995Y-52103878D01*
X84052352Y-52099500D01*
X83847648Y-52099500D01*
X83823329Y-52103351D01*
X83645465Y-52131522D01*
X83450776Y-52194781D01*
X83268386Y-52287715D01*
X83102786Y-52408028D01*
X82958028Y-52552786D01*
X82837715Y-52718386D01*
X82744781Y-52900776D01*
X82681522Y-53095465D01*
X82649500Y-53297648D01*
X59300500Y-53297648D01*
X59300500Y-50867682D01*
X68550000Y-50867682D01*
X68550000Y-51072317D01*
X68582009Y-51274417D01*
X68645244Y-51469031D01*
X68738141Y-51651350D01*
X68738147Y-51651359D01*
X68770523Y-51695921D01*
X68770524Y-51695922D01*
X69450000Y-51016446D01*
X69450000Y-51022661D01*
X69477259Y-51124394D01*
X69529920Y-51215606D01*
X69604394Y-51290080D01*
X69695606Y-51342741D01*
X69797339Y-51370000D01*
X69803553Y-51370000D01*
X69124076Y-52049474D01*
X69168650Y-52081859D01*
X69350968Y-52174755D01*
X69545582Y-52237990D01*
X69747683Y-52270000D01*
X69952317Y-52270000D01*
X70154417Y-52237990D01*
X70349031Y-52174755D01*
X70531349Y-52081859D01*
X70575921Y-52049474D01*
X69896447Y-51370000D01*
X69902661Y-51370000D01*
X70004394Y-51342741D01*
X70095606Y-51290080D01*
X70170080Y-51215606D01*
X70222741Y-51124394D01*
X70250000Y-51022661D01*
X70250000Y-51016448D01*
X70929474Y-51695922D01*
X70929474Y-51695921D01*
X70961859Y-51651349D01*
X71054755Y-51469031D01*
X71117990Y-51274417D01*
X71150000Y-51072317D01*
X71150000Y-50867682D01*
X71117990Y-50665582D01*
X71054755Y-50470968D01*
X70961859Y-50288650D01*
X70929474Y-50244077D01*
X70929474Y-50244076D01*
X70250000Y-50923551D01*
X70250000Y-50917339D01*
X70222741Y-50815606D01*
X70170080Y-50724394D01*
X70095606Y-50649920D01*
X70004394Y-50597259D01*
X69902661Y-50570000D01*
X69896446Y-50570000D01*
X70358799Y-50107648D01*
X82699500Y-50107648D01*
X82699500Y-50312351D01*
X82731522Y-50514534D01*
X82794781Y-50709223D01*
X82887715Y-50891613D01*
X83008028Y-51057213D01*
X83152786Y-51201971D01*
X83307749Y-51314556D01*
X83318390Y-51322287D01*
X83402647Y-51365218D01*
X83500776Y-51415218D01*
X83500778Y-51415218D01*
X83500781Y-51415220D01*
X83599245Y-51447213D01*
X83695465Y-51478477D01*
X83796557Y-51494488D01*
X83897648Y-51510500D01*
X83897649Y-51510500D01*
X84102351Y-51510500D01*
X84102352Y-51510500D01*
X84304534Y-51478477D01*
X84499219Y-51415220D01*
X84681610Y-51322287D01*
X84784941Y-51247213D01*
X84847213Y-51201971D01*
X84847215Y-51201968D01*
X84847219Y-51201966D01*
X84991966Y-51057219D01*
X84991968Y-51057215D01*
X84991971Y-51057213D01*
X85055333Y-50970001D01*
X85112287Y-50891610D01*
X85205220Y-50709219D01*
X85268477Y-50514534D01*
X85300500Y-50312352D01*
X85300500Y-50297648D01*
X91389500Y-50297648D01*
X91389500Y-50502352D01*
X91393878Y-50529995D01*
X91421522Y-50704534D01*
X91484781Y-50899223D01*
X91577715Y-51081613D01*
X91698028Y-51247213D01*
X91842786Y-51391971D01*
X91961854Y-51478477D01*
X92008390Y-51512287D01*
X92124607Y-51571503D01*
X92190776Y-51605218D01*
X92190778Y-51605218D01*
X92190781Y-51605220D01*
X92295137Y-51639127D01*
X92385465Y-51668477D01*
X92486557Y-51684488D01*
X92587648Y-51700500D01*
X92587649Y-51700500D01*
X92792351Y-51700500D01*
X92792352Y-51700500D01*
X92994534Y-51668477D01*
X93189219Y-51605220D01*
X93371610Y-51512287D01*
X93486966Y-51428477D01*
X93537213Y-51391971D01*
X93537215Y-51391968D01*
X93537219Y-51391966D01*
X93681966Y-51247219D01*
X93681968Y-51247215D01*
X93681971Y-51247213D01*
X93751171Y-51151966D01*
X93802287Y-51081610D01*
X93895220Y-50899219D01*
X93958477Y-50704534D01*
X93990500Y-50502352D01*
X93990500Y-50297648D01*
X101549500Y-50297648D01*
X101549500Y-50502352D01*
X101553878Y-50529995D01*
X101581522Y-50704534D01*
X101644781Y-50899223D01*
X101737715Y-51081613D01*
X101858028Y-51247213D01*
X102002786Y-51391971D01*
X102121854Y-51478477D01*
X102168390Y-51512287D01*
X102284607Y-51571503D01*
X102350776Y-51605218D01*
X102350778Y-51605218D01*
X102350781Y-51605220D01*
X102455137Y-51639127D01*
X102545465Y-51668477D01*
X102646557Y-51684488D01*
X102747648Y-51700500D01*
X102747649Y-51700500D01*
X102952351Y-51700500D01*
X102952352Y-51700500D01*
X103154534Y-51668477D01*
X103349219Y-51605220D01*
X103531610Y-51512287D01*
X103646966Y-51428477D01*
X103697213Y-51391971D01*
X103697215Y-51391968D01*
X103697219Y-51391966D01*
X103841966Y-51247219D01*
X103841968Y-51247215D01*
X103841971Y-51247213D01*
X103911171Y-51151966D01*
X103962287Y-51081610D01*
X104055220Y-50899219D01*
X104118477Y-50704534D01*
X104150500Y-50502352D01*
X104150500Y-50297648D01*
X104142015Y-50244076D01*
X104118477Y-50095465D01*
X104117057Y-50091095D01*
X104106189Y-50057648D01*
X114199500Y-50057648D01*
X114199500Y-50262351D01*
X114231522Y-50464534D01*
X114294781Y-50659223D01*
X114316757Y-50702352D01*
X114374463Y-50815606D01*
X114387715Y-50841613D01*
X114508028Y-51007213D01*
X114652786Y-51151971D01*
X114807749Y-51264556D01*
X114818390Y-51272287D01*
X114919005Y-51323553D01*
X115000776Y-51365218D01*
X115000778Y-51365218D01*
X115000781Y-51365220D01*
X115083097Y-51391966D01*
X115195465Y-51428477D01*
X115296557Y-51444488D01*
X115397648Y-51460500D01*
X115397649Y-51460500D01*
X115602351Y-51460500D01*
X115602352Y-51460500D01*
X115804534Y-51428477D01*
X115999219Y-51365220D01*
X116181610Y-51272287D01*
X116274590Y-51204732D01*
X116347213Y-51151971D01*
X116347215Y-51151968D01*
X116347219Y-51151966D01*
X116491966Y-51007219D01*
X116491968Y-51007215D01*
X116491971Y-51007213D01*
X116575960Y-50891610D01*
X116612287Y-50841610D01*
X116705220Y-50659219D01*
X116768477Y-50464534D01*
X116800500Y-50262352D01*
X116800500Y-50057648D01*
X116768477Y-49855466D01*
X116705220Y-49660781D01*
X116705218Y-49660778D01*
X116705218Y-49660776D01*
X116671503Y-49594607D01*
X116612287Y-49478390D01*
X116561171Y-49408034D01*
X116491971Y-49312786D01*
X116347213Y-49168028D01*
X116181613Y-49047715D01*
X116181612Y-49047714D01*
X116181610Y-49047713D01*
X116124653Y-49018691D01*
X115999223Y-48954781D01*
X115804534Y-48891522D01*
X115629995Y-48863878D01*
X115602352Y-48859500D01*
X115397648Y-48859500D01*
X115373329Y-48863351D01*
X115195465Y-48891522D01*
X115000776Y-48954781D01*
X114818386Y-49047715D01*
X114652786Y-49168028D01*
X114508028Y-49312786D01*
X114387715Y-49478386D01*
X114294781Y-49660776D01*
X114231522Y-49855465D01*
X114199500Y-50057648D01*
X104106189Y-50057648D01*
X104064219Y-49928477D01*
X104055220Y-49900781D01*
X104055218Y-49900778D01*
X104055218Y-49900776D01*
X104021503Y-49834607D01*
X103962287Y-49718390D01*
X103920432Y-49660781D01*
X103841971Y-49552786D01*
X103697213Y-49408028D01*
X103531613Y-49287715D01*
X103531612Y-49287714D01*
X103531610Y-49287713D01*
X103474653Y-49258691D01*
X103349223Y-49194781D01*
X103154534Y-49131522D01*
X102979995Y-49103878D01*
X102952352Y-49099500D01*
X102747648Y-49099500D01*
X102723329Y-49103351D01*
X102545465Y-49131522D01*
X102350776Y-49194781D01*
X102168386Y-49287715D01*
X102002786Y-49408028D01*
X101858028Y-49552786D01*
X101737715Y-49718386D01*
X101644781Y-49900776D01*
X101581522Y-50095465D01*
X101555090Y-50262352D01*
X101549500Y-50297648D01*
X93990500Y-50297648D01*
X93982015Y-50244076D01*
X93958477Y-50095465D01*
X93904219Y-49928477D01*
X93895220Y-49900781D01*
X93895218Y-49900778D01*
X93895218Y-49900776D01*
X93861503Y-49834607D01*
X93802287Y-49718390D01*
X93760432Y-49660781D01*
X93681971Y-49552786D01*
X93537213Y-49408028D01*
X93371613Y-49287715D01*
X93371612Y-49287714D01*
X93371610Y-49287713D01*
X93314653Y-49258691D01*
X93189223Y-49194781D01*
X92994534Y-49131522D01*
X92819995Y-49103878D01*
X92792352Y-49099500D01*
X92587648Y-49099500D01*
X92563329Y-49103351D01*
X92385465Y-49131522D01*
X92190776Y-49194781D01*
X92008386Y-49287715D01*
X91842786Y-49408028D01*
X91698028Y-49552786D01*
X91577715Y-49718386D01*
X91484781Y-49900776D01*
X91421522Y-50095465D01*
X91395090Y-50262352D01*
X91389500Y-50297648D01*
X85300500Y-50297648D01*
X85300500Y-50107648D01*
X85270524Y-49918390D01*
X85268477Y-49905465D01*
X85239127Y-49815137D01*
X85205220Y-49710781D01*
X85205218Y-49710778D01*
X85205218Y-49710776D01*
X85171503Y-49644607D01*
X85112287Y-49528390D01*
X85104556Y-49517749D01*
X84991971Y-49362786D01*
X84847213Y-49218028D01*
X84681613Y-49097715D01*
X84681612Y-49097714D01*
X84681610Y-49097713D01*
X84583480Y-49047713D01*
X84499223Y-49004781D01*
X84304534Y-48941522D01*
X84129995Y-48913878D01*
X84102352Y-48909500D01*
X83897648Y-48909500D01*
X83873329Y-48913351D01*
X83695465Y-48941522D01*
X83500776Y-49004781D01*
X83318386Y-49097715D01*
X83152786Y-49218028D01*
X83008028Y-49362786D01*
X82887715Y-49528386D01*
X82794781Y-49710776D01*
X82731522Y-49905465D01*
X82699500Y-50107648D01*
X70358799Y-50107648D01*
X70451352Y-50015095D01*
X70575922Y-49890524D01*
X70575921Y-49890523D01*
X70531359Y-49858147D01*
X70531350Y-49858141D01*
X70349031Y-49765244D01*
X70154417Y-49702009D01*
X69952317Y-49670000D01*
X69747683Y-49670000D01*
X69545582Y-49702009D01*
X69350968Y-49765244D01*
X69168644Y-49858143D01*
X69124077Y-49890523D01*
X69124077Y-49890524D01*
X69803554Y-50570000D01*
X69797339Y-50570000D01*
X69695606Y-50597259D01*
X69604394Y-50649920D01*
X69529920Y-50724394D01*
X69477259Y-50815606D01*
X69450000Y-50917339D01*
X69450000Y-50923553D01*
X68770524Y-50244077D01*
X68770523Y-50244077D01*
X68738143Y-50288644D01*
X68645244Y-50470968D01*
X68582009Y-50665582D01*
X68550000Y-50867682D01*
X59300500Y-50867682D01*
X59300500Y-43707648D01*
X77549500Y-43707648D01*
X77549500Y-43912351D01*
X77581522Y-44114534D01*
X77644781Y-44309223D01*
X77737715Y-44491613D01*
X77858028Y-44657213D01*
X78002786Y-44801971D01*
X78168385Y-44922284D01*
X78168387Y-44922285D01*
X78168390Y-44922287D01*
X78326268Y-45002730D01*
X78377063Y-45050703D01*
X78393858Y-45118524D01*
X78371321Y-45184659D01*
X78326271Y-45223697D01*
X78318386Y-45227714D01*
X78152786Y-45348028D01*
X78008028Y-45492786D01*
X77887715Y-45658386D01*
X77794781Y-45840776D01*
X77731522Y-46035465D01*
X77706181Y-46195465D01*
X77699500Y-46237648D01*
X77699500Y-46442352D01*
X77700850Y-46450873D01*
X77731522Y-46644534D01*
X77794781Y-46839223D01*
X77852391Y-46952287D01*
X77884083Y-47014486D01*
X77887715Y-47021613D01*
X78008028Y-47187213D01*
X78152786Y-47331971D01*
X78239876Y-47395244D01*
X78318390Y-47452287D01*
X78434607Y-47511503D01*
X78500776Y-47545218D01*
X78500778Y-47545218D01*
X78500781Y-47545220D01*
X78605137Y-47579127D01*
X78695465Y-47608477D01*
X78796557Y-47624488D01*
X78897648Y-47640500D01*
X78897649Y-47640500D01*
X79102351Y-47640500D01*
X79102352Y-47640500D01*
X79304534Y-47608477D01*
X79499219Y-47545220D01*
X79681610Y-47452287D01*
X79774590Y-47384732D01*
X79847213Y-47331971D01*
X79847215Y-47331968D01*
X79847219Y-47331966D01*
X79991966Y-47187219D01*
X79991968Y-47187215D01*
X79991971Y-47187213D01*
X80092291Y-47049132D01*
X80112287Y-47021610D01*
X80205220Y-46839219D01*
X80267029Y-46648992D01*
X87549500Y-46648992D01*
X87549500Y-46851007D01*
X87588907Y-47049119D01*
X87588909Y-47049127D01*
X87622325Y-47129800D01*
X87629794Y-47199270D01*
X87610038Y-47244660D01*
X87610454Y-47244887D01*
X87607919Y-47249528D01*
X87607037Y-47251556D01*
X87606206Y-47252665D01*
X87606202Y-47252672D01*
X87555908Y-47387517D01*
X87549501Y-47447116D01*
X87549501Y-47447123D01*
X87549500Y-47447135D01*
X87549500Y-48592870D01*
X87549501Y-48592876D01*
X87555908Y-48652483D01*
X87606202Y-48787328D01*
X87606206Y-48787335D01*
X87692452Y-48902544D01*
X87692455Y-48902547D01*
X87807664Y-48988793D01*
X87807671Y-48988797D01*
X87942517Y-49039091D01*
X87942516Y-49039091D01*
X87949444Y-49039835D01*
X88002127Y-49045500D01*
X89597872Y-49045499D01*
X89657483Y-49039091D01*
X89792331Y-48988796D01*
X89907546Y-48902546D01*
X89993796Y-48787331D01*
X90037934Y-48668992D01*
X120749500Y-48668992D01*
X120749500Y-48871007D01*
X120788907Y-49069119D01*
X120788909Y-49069127D01*
X120822325Y-49149800D01*
X120829794Y-49219270D01*
X120810038Y-49264660D01*
X120810454Y-49264887D01*
X120807919Y-49269528D01*
X120807037Y-49271556D01*
X120806206Y-49272665D01*
X120806202Y-49272672D01*
X120755908Y-49407517D01*
X120749501Y-49467116D01*
X120749501Y-49467123D01*
X120749500Y-49467135D01*
X120749500Y-50612870D01*
X120749501Y-50612876D01*
X120755908Y-50672483D01*
X120806202Y-50807328D01*
X120806206Y-50807335D01*
X120892452Y-50922544D01*
X120892455Y-50922547D01*
X121007664Y-51008793D01*
X121007671Y-51008797D01*
X121142517Y-51059091D01*
X121142516Y-51059091D01*
X121149444Y-51059835D01*
X121202127Y-51065500D01*
X122797872Y-51065499D01*
X122857483Y-51059091D01*
X122992331Y-51008796D01*
X123107546Y-50922546D01*
X123193796Y-50807331D01*
X123244091Y-50672483D01*
X123250500Y-50612873D01*
X123250500Y-50497648D01*
X131049500Y-50497648D01*
X131049500Y-50702351D01*
X131081522Y-50904534D01*
X131144781Y-51099223D01*
X131197132Y-51201966D01*
X131232961Y-51272284D01*
X131237715Y-51281613D01*
X131358028Y-51447213D01*
X131502786Y-51591971D01*
X131608090Y-51668477D01*
X131668390Y-51712287D01*
X131784607Y-51771503D01*
X131850776Y-51805218D01*
X131850778Y-51805218D01*
X131850781Y-51805220D01*
X131955137Y-51839127D01*
X132045465Y-51868477D01*
X132146557Y-51884488D01*
X132247648Y-51900500D01*
X132247649Y-51900500D01*
X132452351Y-51900500D01*
X132452352Y-51900500D01*
X132654534Y-51868477D01*
X132849219Y-51805220D01*
X133031610Y-51712287D01*
X133124590Y-51644732D01*
X133197213Y-51591971D01*
X133197215Y-51591968D01*
X133197219Y-51591966D01*
X133341966Y-51447219D01*
X133341968Y-51447215D01*
X133341971Y-51447213D01*
X133417873Y-51342741D01*
X133462287Y-51281610D01*
X133555220Y-51099219D01*
X133618477Y-50904534D01*
X133650500Y-50702352D01*
X133650500Y-50497648D01*
X133621152Y-50312352D01*
X133618477Y-50295465D01*
X133555218Y-50100776D01*
X133483743Y-49960500D01*
X133462287Y-49918390D01*
X133423656Y-49865218D01*
X133341971Y-49752786D01*
X133197213Y-49608028D01*
X133031613Y-49487715D01*
X133031612Y-49487714D01*
X133031610Y-49487713D01*
X132973176Y-49457939D01*
X132849219Y-49394779D01*
X132791624Y-49376065D01*
X132742263Y-49345816D01*
X132396448Y-49000000D01*
X132402661Y-49000000D01*
X132504394Y-48972741D01*
X132595606Y-48920080D01*
X132670080Y-48845606D01*
X132722741Y-48754394D01*
X132750000Y-48652661D01*
X132750000Y-48646448D01*
X133429474Y-49325922D01*
X133429474Y-49325921D01*
X133461859Y-49281349D01*
X133554755Y-49099031D01*
X133617990Y-48904417D01*
X133650000Y-48702317D01*
X133650000Y-48497682D01*
X133617990Y-48295582D01*
X133554755Y-48100968D01*
X133461859Y-47918650D01*
X133429474Y-47874077D01*
X133429474Y-47874076D01*
X132750000Y-48553551D01*
X132750000Y-48547339D01*
X132722741Y-48445606D01*
X132670080Y-48354394D01*
X132595606Y-48279920D01*
X132504394Y-48227259D01*
X132402661Y-48200000D01*
X132396446Y-48200000D01*
X133075922Y-47520524D01*
X133075921Y-47520523D01*
X133031359Y-47488147D01*
X133031350Y-47488141D01*
X132849031Y-47395244D01*
X132654417Y-47332009D01*
X132452317Y-47300000D01*
X132247683Y-47300000D01*
X132045582Y-47332009D01*
X131850968Y-47395244D01*
X131668644Y-47488143D01*
X131624077Y-47520523D01*
X131624077Y-47520524D01*
X132303554Y-48200000D01*
X132297339Y-48200000D01*
X132195606Y-48227259D01*
X132104394Y-48279920D01*
X132029920Y-48354394D01*
X131977259Y-48445606D01*
X131950000Y-48547339D01*
X131950000Y-48553553D01*
X131270524Y-47874077D01*
X131270523Y-47874077D01*
X131238143Y-47918644D01*
X131145244Y-48100968D01*
X131082009Y-48295582D01*
X131050000Y-48497682D01*
X131050000Y-48702317D01*
X131082009Y-48904417D01*
X131145244Y-49099031D01*
X131238141Y-49281350D01*
X131238147Y-49281359D01*
X131270523Y-49325921D01*
X131270524Y-49325922D01*
X131950000Y-48646446D01*
X131950000Y-48652661D01*
X131977259Y-48754394D01*
X132029920Y-48845606D01*
X132104394Y-48920080D01*
X132195606Y-48972741D01*
X132297339Y-49000000D01*
X132303553Y-49000000D01*
X131957735Y-49345816D01*
X131908375Y-49376065D01*
X131850786Y-49394778D01*
X131850783Y-49394779D01*
X131850781Y-49394780D01*
X131824769Y-49408034D01*
X131668385Y-49487715D01*
X131502786Y-49608028D01*
X131358028Y-49752786D01*
X131237715Y-49918386D01*
X131144781Y-50100776D01*
X131081522Y-50295465D01*
X131049500Y-50497648D01*
X123250500Y-50497648D01*
X123250499Y-50015095D01*
X123250499Y-49467129D01*
X123250498Y-49467123D01*
X123250497Y-49467116D01*
X123244091Y-49407517D01*
X123239340Y-49394780D01*
X123193797Y-49272671D01*
X123193796Y-49272670D01*
X123193796Y-49272669D01*
X123192967Y-49271562D01*
X123192485Y-49270268D01*
X123189546Y-49264886D01*
X123190319Y-49264463D01*
X123168551Y-49206099D01*
X123177675Y-49149798D01*
X123211089Y-49069132D01*
X123211089Y-49069131D01*
X123211091Y-49069127D01*
X123250500Y-48871003D01*
X123250500Y-48668997D01*
X123246652Y-48649650D01*
X123232195Y-48576967D01*
X123228352Y-48557648D01*
X126199500Y-48557648D01*
X126199500Y-48762351D01*
X126231522Y-48964534D01*
X126294781Y-49159223D01*
X126350985Y-49269528D01*
X126382573Y-49331523D01*
X126387715Y-49341613D01*
X126508028Y-49507213D01*
X126652786Y-49651971D01*
X126791542Y-49752781D01*
X126818390Y-49772287D01*
X126934607Y-49831503D01*
X127000776Y-49865218D01*
X127000778Y-49865218D01*
X127000781Y-49865220D01*
X127078656Y-49890523D01*
X127195465Y-49928477D01*
X127296557Y-49944488D01*
X127397648Y-49960500D01*
X127397649Y-49960500D01*
X127602351Y-49960500D01*
X127602352Y-49960500D01*
X127804534Y-49928477D01*
X127999219Y-49865220D01*
X128181610Y-49772287D01*
X128278340Y-49702009D01*
X128347213Y-49651971D01*
X128347215Y-49651968D01*
X128347219Y-49651966D01*
X128491966Y-49507219D01*
X128491968Y-49507215D01*
X128491971Y-49507213D01*
X128544732Y-49434590D01*
X128612287Y-49341610D01*
X128705220Y-49159219D01*
X128768477Y-48964534D01*
X128800500Y-48762352D01*
X128800500Y-48557648D01*
X128768477Y-48355466D01*
X128705220Y-48160781D01*
X128705218Y-48160778D01*
X128705218Y-48160776D01*
X128656752Y-48065658D01*
X128612287Y-47978390D01*
X128568884Y-47918650D01*
X128491971Y-47812786D01*
X128347217Y-47668032D01*
X128181609Y-47547712D01*
X127999223Y-47454781D01*
X127804534Y-47391522D01*
X127629995Y-47363878D01*
X127602352Y-47359500D01*
X127397648Y-47359500D01*
X127373329Y-47363351D01*
X127195465Y-47391522D01*
X127000776Y-47454781D01*
X126818386Y-47547715D01*
X126652786Y-47668028D01*
X126508028Y-47812786D01*
X126387715Y-47978386D01*
X126294781Y-48160776D01*
X126231522Y-48355465D01*
X126199500Y-48557648D01*
X123228352Y-48557648D01*
X123218281Y-48507021D01*
X123211091Y-48470873D01*
X123133786Y-48284244D01*
X123079794Y-48203439D01*
X123058917Y-48136764D01*
X123077401Y-48069384D01*
X123079796Y-48065658D01*
X123133344Y-47985518D01*
X123133346Y-47985515D01*
X123210609Y-47798983D01*
X123210612Y-47798974D01*
X123220353Y-47750000D01*
X122365866Y-47750000D01*
X122341674Y-47747617D01*
X122326004Y-47744500D01*
X122326003Y-47744500D01*
X122285830Y-47744500D01*
X122300075Y-47730255D01*
X122349444Y-47644745D01*
X122375000Y-47549370D01*
X122375000Y-47450630D01*
X122349444Y-47355255D01*
X122300075Y-47269745D01*
X122280330Y-47250000D01*
X123220353Y-47250000D01*
X123210612Y-47201025D01*
X123210609Y-47201016D01*
X123133347Y-47014486D01*
X123133340Y-47014473D01*
X123021170Y-46846600D01*
X123021167Y-46846596D01*
X122878403Y-46703832D01*
X122878399Y-46703829D01*
X122710526Y-46591659D01*
X122710513Y-46591652D01*
X122523983Y-46514390D01*
X122523974Y-46514387D01*
X122325958Y-46475000D01*
X122250000Y-46475000D01*
X122250000Y-47219670D01*
X122230255Y-47199925D01*
X122144745Y-47150556D01*
X122049370Y-47125000D01*
X121950630Y-47125000D01*
X121855255Y-47150556D01*
X121769745Y-47199925D01*
X121750000Y-47219670D01*
X121750000Y-46475000D01*
X121674041Y-46475000D01*
X121476025Y-46514387D01*
X121476016Y-46514390D01*
X121289486Y-46591652D01*
X121289473Y-46591659D01*
X121121600Y-46703829D01*
X121121596Y-46703832D01*
X120978832Y-46846596D01*
X120978829Y-46846600D01*
X120866659Y-47014473D01*
X120866652Y-47014486D01*
X120789390Y-47201016D01*
X120789387Y-47201025D01*
X120779647Y-47250000D01*
X121719670Y-47250000D01*
X121699925Y-47269745D01*
X121650556Y-47355255D01*
X121625000Y-47450630D01*
X121625000Y-47549370D01*
X121650556Y-47644745D01*
X121699925Y-47730255D01*
X121714170Y-47744500D01*
X121673997Y-47744500D01*
X121673996Y-47744500D01*
X121658326Y-47747617D01*
X121634134Y-47750000D01*
X120779647Y-47750000D01*
X120789387Y-47798974D01*
X120789390Y-47798983D01*
X120866652Y-47985513D01*
X120866659Y-47985526D01*
X120920203Y-48065659D01*
X120941081Y-48132336D01*
X120922597Y-48199716D01*
X120920204Y-48203439D01*
X120866214Y-48284243D01*
X120788909Y-48470872D01*
X120788907Y-48470880D01*
X120749500Y-48668992D01*
X90037934Y-48668992D01*
X90044091Y-48652483D01*
X90050500Y-48592873D01*
X90050499Y-47447128D01*
X90044091Y-47387517D01*
X90033641Y-47359500D01*
X89993797Y-47252671D01*
X89993796Y-47252670D01*
X89993796Y-47252669D01*
X89992967Y-47251562D01*
X89992485Y-47250268D01*
X89989546Y-47244886D01*
X89990319Y-47244463D01*
X89968551Y-47186099D01*
X89977675Y-47129798D01*
X89979663Y-47125000D01*
X90011091Y-47049127D01*
X90050500Y-46851003D01*
X90050500Y-46648997D01*
X90011091Y-46450873D01*
X90011089Y-46450868D01*
X90006682Y-46440228D01*
X89989044Y-46397648D01*
X91539500Y-46397648D01*
X91539500Y-46602351D01*
X91571522Y-46804534D01*
X91634781Y-46999223D01*
X91690450Y-47108477D01*
X91706766Y-47140500D01*
X91727715Y-47181613D01*
X91848028Y-47347213D01*
X91992786Y-47491971D01*
X92071791Y-47549370D01*
X92158390Y-47612287D01*
X92274607Y-47671503D01*
X92340776Y-47705218D01*
X92340778Y-47705218D01*
X92340781Y-47705220D01*
X92417831Y-47730255D01*
X92535465Y-47768477D01*
X92632898Y-47783909D01*
X92737648Y-47800500D01*
X92737649Y-47800500D01*
X92942351Y-47800500D01*
X92942352Y-47800500D01*
X93144534Y-47768477D01*
X93339219Y-47705220D01*
X93521610Y-47612287D01*
X93647912Y-47520524D01*
X93687213Y-47491971D01*
X93687215Y-47491968D01*
X93687219Y-47491966D01*
X93831966Y-47347219D01*
X93831968Y-47347215D01*
X93831971Y-47347213D01*
X93900658Y-47252672D01*
X93952287Y-47181610D01*
X94045220Y-46999219D01*
X94108477Y-46804534D01*
X94140500Y-46602352D01*
X94140500Y-46397648D01*
X101699500Y-46397648D01*
X101699500Y-46602351D01*
X101731522Y-46804534D01*
X101794781Y-46999223D01*
X101850450Y-47108477D01*
X101866766Y-47140500D01*
X101887715Y-47181613D01*
X102008028Y-47347213D01*
X102152786Y-47491971D01*
X102231791Y-47549370D01*
X102318390Y-47612287D01*
X102434607Y-47671503D01*
X102500776Y-47705218D01*
X102500778Y-47705218D01*
X102500781Y-47705220D01*
X102577831Y-47730255D01*
X102695465Y-47768477D01*
X102792898Y-47783909D01*
X102897648Y-47800500D01*
X102897649Y-47800500D01*
X103102351Y-47800500D01*
X103102352Y-47800500D01*
X103304534Y-47768477D01*
X103499219Y-47705220D01*
X103681610Y-47612287D01*
X103807912Y-47520524D01*
X103847213Y-47491971D01*
X103847215Y-47491968D01*
X103847219Y-47491966D01*
X103991966Y-47347219D01*
X104112287Y-47181610D01*
X104205220Y-46999219D01*
X104268477Y-46804534D01*
X104300500Y-46602352D01*
X104300500Y-46397648D01*
X104268477Y-46195466D01*
X104205220Y-46000781D01*
X104205218Y-46000778D01*
X104205218Y-46000776D01*
X104171503Y-45934607D01*
X104112287Y-45818390D01*
X104084450Y-45780075D01*
X103991971Y-45652786D01*
X103847213Y-45508028D01*
X103681613Y-45387715D01*
X103681612Y-45387714D01*
X103681610Y-45387713D01*
X103603724Y-45348028D01*
X103499223Y-45294781D01*
X103304534Y-45231522D01*
X103129995Y-45203878D01*
X103102352Y-45199500D01*
X102897648Y-45199500D01*
X102873329Y-45203351D01*
X102695465Y-45231522D01*
X102500776Y-45294781D01*
X102318386Y-45387715D01*
X102152786Y-45508028D01*
X102008028Y-45652786D01*
X101887715Y-45818386D01*
X101794781Y-46000776D01*
X101731522Y-46195465D01*
X101699500Y-46397648D01*
X94140500Y-46397648D01*
X94108477Y-46195466D01*
X94045220Y-46000781D01*
X94045218Y-46000778D01*
X94045218Y-46000776D01*
X94011503Y-45934607D01*
X93952287Y-45818390D01*
X93924450Y-45780075D01*
X93831971Y-45652786D01*
X93687213Y-45508028D01*
X93521613Y-45387715D01*
X93521612Y-45387714D01*
X93521610Y-45387713D01*
X93443724Y-45348028D01*
X93339223Y-45294781D01*
X93144534Y-45231522D01*
X92969995Y-45203878D01*
X92942352Y-45199500D01*
X92737648Y-45199500D01*
X92713329Y-45203351D01*
X92535465Y-45231522D01*
X92340776Y-45294781D01*
X92158386Y-45387715D01*
X91992786Y-45508028D01*
X91848028Y-45652786D01*
X91727715Y-45818386D01*
X91634781Y-46000776D01*
X91571522Y-46195465D01*
X91539500Y-46397648D01*
X89989044Y-46397648D01*
X89933787Y-46264247D01*
X89933786Y-46264244D01*
X89879794Y-46183439D01*
X89858917Y-46116764D01*
X89877401Y-46049384D01*
X89879796Y-46045658D01*
X89933344Y-45965518D01*
X89933346Y-45965515D01*
X90010609Y-45778983D01*
X90010612Y-45778974D01*
X90020353Y-45730000D01*
X89165866Y-45730000D01*
X89141674Y-45727617D01*
X89126004Y-45724500D01*
X89126003Y-45724500D01*
X89085830Y-45724500D01*
X89100075Y-45710255D01*
X89149444Y-45624745D01*
X89175000Y-45529370D01*
X89175000Y-45430630D01*
X89149444Y-45335255D01*
X89100075Y-45249745D01*
X89080330Y-45230000D01*
X90020353Y-45230000D01*
X90010612Y-45181025D01*
X90010609Y-45181016D01*
X89933347Y-44994486D01*
X89933340Y-44994473D01*
X89821170Y-44826600D01*
X89821167Y-44826596D01*
X89678403Y-44683832D01*
X89678399Y-44683829D01*
X89510526Y-44571659D01*
X89510513Y-44571652D01*
X89323983Y-44494390D01*
X89323974Y-44494387D01*
X89125958Y-44455000D01*
X89050000Y-44455000D01*
X89050000Y-45199670D01*
X89030255Y-45179925D01*
X88944745Y-45130556D01*
X88849370Y-45105000D01*
X88750630Y-45105000D01*
X88655255Y-45130556D01*
X88569745Y-45179925D01*
X88550000Y-45199670D01*
X88550000Y-44455000D01*
X88474041Y-44455000D01*
X88276025Y-44494387D01*
X88276016Y-44494390D01*
X88089486Y-44571652D01*
X88089473Y-44571659D01*
X87921600Y-44683829D01*
X87921596Y-44683832D01*
X87778832Y-44826596D01*
X87778829Y-44826600D01*
X87666659Y-44994473D01*
X87666652Y-44994486D01*
X87589390Y-45181016D01*
X87589387Y-45181025D01*
X87579647Y-45230000D01*
X88519670Y-45230000D01*
X88499925Y-45249745D01*
X88450556Y-45335255D01*
X88425000Y-45430630D01*
X88425000Y-45529370D01*
X88450556Y-45624745D01*
X88499925Y-45710255D01*
X88514170Y-45724500D01*
X88473997Y-45724500D01*
X88473996Y-45724500D01*
X88458326Y-45727617D01*
X88434134Y-45730000D01*
X87579647Y-45730000D01*
X87589387Y-45778974D01*
X87589390Y-45778983D01*
X87666652Y-45965513D01*
X87666659Y-45965526D01*
X87720203Y-46045659D01*
X87741081Y-46112336D01*
X87722597Y-46179716D01*
X87720204Y-46183439D01*
X87666214Y-46264243D01*
X87588909Y-46450872D01*
X87588907Y-46450880D01*
X87549500Y-46648992D01*
X80267029Y-46648992D01*
X80268477Y-46644534D01*
X80300500Y-46442352D01*
X80300500Y-46237648D01*
X80280652Y-46112336D01*
X80268477Y-46035465D01*
X80209840Y-45855000D01*
X80205220Y-45840781D01*
X80205218Y-45840778D01*
X80205218Y-45840776D01*
X80147560Y-45727617D01*
X80112287Y-45658390D01*
X80087843Y-45624745D01*
X79991971Y-45492786D01*
X79847213Y-45348028D01*
X79681614Y-45227715D01*
X79523732Y-45147270D01*
X79472936Y-45099295D01*
X79456141Y-45031474D01*
X79478678Y-44965339D01*
X79523737Y-44926298D01*
X79531610Y-44922287D01*
X79607869Y-44866881D01*
X79697213Y-44801971D01*
X79697215Y-44801968D01*
X79697219Y-44801966D01*
X79841966Y-44657219D01*
X79841968Y-44657215D01*
X79841971Y-44657213D01*
X79904128Y-44571659D01*
X79962287Y-44491610D01*
X80055220Y-44309219D01*
X80118477Y-44114534D01*
X80150500Y-43912352D01*
X80150500Y-43707648D01*
X80141810Y-43652781D01*
X80118477Y-43505465D01*
X80055218Y-43310776D01*
X79985220Y-43173399D01*
X79962287Y-43128390D01*
X79954556Y-43117749D01*
X79841971Y-42962786D01*
X79697213Y-42818028D01*
X79531613Y-42697715D01*
X79531612Y-42697714D01*
X79531610Y-42697713D01*
X79443436Y-42652786D01*
X79349223Y-42604781D01*
X79154534Y-42541522D01*
X78979995Y-42513878D01*
X78952352Y-42509500D01*
X78747648Y-42509500D01*
X78723329Y-42513351D01*
X78545465Y-42541522D01*
X78350776Y-42604781D01*
X78168386Y-42697715D01*
X78002786Y-42818028D01*
X77858028Y-42962786D01*
X77737715Y-43128386D01*
X77644781Y-43310776D01*
X77581522Y-43505465D01*
X77549500Y-43707648D01*
X59300500Y-43707648D01*
X59300500Y-40707648D01*
X68549500Y-40707648D01*
X68549500Y-40912351D01*
X68581522Y-41114534D01*
X68644781Y-41309223D01*
X68737715Y-41491613D01*
X68858028Y-41657213D01*
X69002786Y-41801971D01*
X69114639Y-41883235D01*
X69168390Y-41922287D01*
X69284607Y-41981503D01*
X69350776Y-42015218D01*
X69350778Y-42015218D01*
X69350781Y-42015220D01*
X69455137Y-42049127D01*
X69545465Y-42078477D01*
X69646557Y-42094488D01*
X69747648Y-42110500D01*
X69747649Y-42110500D01*
X69952351Y-42110500D01*
X69952352Y-42110500D01*
X70154534Y-42078477D01*
X70349219Y-42015220D01*
X70531610Y-41922287D01*
X70634941Y-41847213D01*
X70697213Y-41801971D01*
X70697215Y-41801968D01*
X70697219Y-41801966D01*
X70841966Y-41657219D01*
X70841968Y-41657215D01*
X70841971Y-41657213D01*
X70894732Y-41584590D01*
X70962287Y-41491610D01*
X71055220Y-41309219D01*
X71118477Y-41114534D01*
X71150500Y-40912352D01*
X71150500Y-40707648D01*
X71125986Y-40552873D01*
X71118477Y-40505465D01*
X71055218Y-40310776D01*
X70974717Y-40152786D01*
X70962287Y-40128390D01*
X70943369Y-40102351D01*
X70880388Y-40015664D01*
X70880385Y-40015661D01*
X70874844Y-40008034D01*
X70841966Y-39962781D01*
X70826833Y-39947648D01*
X82699500Y-39947648D01*
X82699500Y-40152352D01*
X82699531Y-40152546D01*
X82731522Y-40354534D01*
X82794781Y-40549223D01*
X82887715Y-40731613D01*
X83008028Y-40897213D01*
X83152786Y-41041971D01*
X83300091Y-41148992D01*
X83318390Y-41162287D01*
X83402647Y-41205218D01*
X83500776Y-41255218D01*
X83500778Y-41255218D01*
X83500781Y-41255220D01*
X83605137Y-41289127D01*
X83695465Y-41318477D01*
X83796557Y-41334488D01*
X83897648Y-41350500D01*
X83897649Y-41350500D01*
X84102351Y-41350500D01*
X84102352Y-41350500D01*
X84304534Y-41318477D01*
X84499219Y-41255220D01*
X84681610Y-41162287D01*
X84774590Y-41094732D01*
X84847213Y-41041971D01*
X84847215Y-41041968D01*
X84847219Y-41041966D01*
X84991966Y-40897219D01*
X84991968Y-40897215D01*
X84991971Y-40897213D01*
X85095210Y-40755114D01*
X85112287Y-40731610D01*
X85205220Y-40549219D01*
X85268477Y-40354534D01*
X85300500Y-40152352D01*
X85300500Y-39947648D01*
X85283907Y-39842883D01*
X85268477Y-39745465D01*
X85239127Y-39655137D01*
X85205220Y-39550781D01*
X85205218Y-39550778D01*
X85205218Y-39550776D01*
X85159016Y-39460101D01*
X85132029Y-39407135D01*
X87549500Y-39407135D01*
X87549500Y-40552870D01*
X87549501Y-40552876D01*
X87555908Y-40612483D01*
X87606202Y-40747328D01*
X87606203Y-40747330D01*
X87606204Y-40747331D01*
X87607028Y-40748432D01*
X87607509Y-40749721D01*
X87610454Y-40755114D01*
X87609678Y-40755537D01*
X87631448Y-40813895D01*
X87622325Y-40870198D01*
X87588910Y-40950868D01*
X87588907Y-40950880D01*
X87549500Y-41148992D01*
X87549500Y-41351007D01*
X87588907Y-41549119D01*
X87588909Y-41549127D01*
X87666212Y-41735754D01*
X87720204Y-41816558D01*
X87741081Y-41883235D01*
X87722596Y-41950615D01*
X87720204Y-41954337D01*
X87666655Y-42034479D01*
X87666654Y-42034481D01*
X87589390Y-42221016D01*
X87589387Y-42221025D01*
X87579647Y-42270000D01*
X88434134Y-42270000D01*
X88458326Y-42272383D01*
X88461123Y-42272939D01*
X88473995Y-42275499D01*
X88473996Y-42275500D01*
X88473997Y-42275500D01*
X88514170Y-42275500D01*
X88499925Y-42289745D01*
X88450556Y-42375255D01*
X88425000Y-42470630D01*
X88425000Y-42569370D01*
X88450556Y-42664745D01*
X88499925Y-42750255D01*
X88519670Y-42770000D01*
X87579647Y-42770000D01*
X87589387Y-42818974D01*
X87589390Y-42818983D01*
X87666652Y-43005513D01*
X87666659Y-43005526D01*
X87778829Y-43173399D01*
X87778832Y-43173403D01*
X87921596Y-43316167D01*
X87921600Y-43316170D01*
X88089473Y-43428340D01*
X88089486Y-43428347D01*
X88276016Y-43505609D01*
X88276025Y-43505612D01*
X88474041Y-43544999D01*
X88474045Y-43545000D01*
X88550000Y-43545000D01*
X88550000Y-42800330D01*
X88569745Y-42820075D01*
X88655255Y-42869444D01*
X88750630Y-42895000D01*
X88849370Y-42895000D01*
X88944745Y-42869444D01*
X89030255Y-42820075D01*
X89050000Y-42800330D01*
X89050000Y-43545000D01*
X89125955Y-43545000D01*
X89125958Y-43544999D01*
X89323974Y-43505612D01*
X89323983Y-43505609D01*
X89510513Y-43428347D01*
X89510526Y-43428340D01*
X89556459Y-43397648D01*
X107699500Y-43397648D01*
X107699500Y-43602351D01*
X107731522Y-43804534D01*
X107794781Y-43999223D01*
X107853536Y-44114534D01*
X107887712Y-44181609D01*
X107887715Y-44181613D01*
X108008028Y-44347213D01*
X108152782Y-44491967D01*
X108152787Y-44491971D01*
X108259747Y-44569682D01*
X108302413Y-44625012D01*
X108308392Y-44694625D01*
X108275787Y-44756420D01*
X108259747Y-44770318D01*
X108152787Y-44848028D01*
X108152782Y-44848032D01*
X108008028Y-44992786D01*
X107887715Y-45158386D01*
X107794781Y-45340776D01*
X107731522Y-45535465D01*
X107699500Y-45737648D01*
X107699500Y-45942351D01*
X107731522Y-46144534D01*
X107794781Y-46339223D01*
X107824551Y-46397648D01*
X107884034Y-46514390D01*
X107887715Y-46521613D01*
X108008028Y-46687213D01*
X108152786Y-46831971D01*
X108307749Y-46944556D01*
X108318390Y-46952287D01*
X108410499Y-46999219D01*
X108500776Y-47045218D01*
X108500778Y-47045218D01*
X108500781Y-47045220D01*
X108605137Y-47079127D01*
X108695465Y-47108477D01*
X108796557Y-47124488D01*
X108897648Y-47140500D01*
X108897649Y-47140500D01*
X109102351Y-47140500D01*
X109102352Y-47140500D01*
X109304534Y-47108477D01*
X109499219Y-47045220D01*
X109681610Y-46952287D01*
X109774590Y-46884732D01*
X109847213Y-46831971D01*
X109847215Y-46831968D01*
X109847219Y-46831966D01*
X109991966Y-46687219D01*
X109991968Y-46687215D01*
X109991971Y-46687213D01*
X110061399Y-46591652D01*
X110112287Y-46521610D01*
X110205220Y-46339219D01*
X110268477Y-46144534D01*
X110300500Y-45942352D01*
X110300500Y-45737648D01*
X110282618Y-45624745D01*
X110268477Y-45535465D01*
X110220469Y-45387713D01*
X110205220Y-45340781D01*
X110205218Y-45340778D01*
X110205218Y-45340776D01*
X110149550Y-45231523D01*
X110112287Y-45158390D01*
X110104208Y-45147270D01*
X109991971Y-44992786D01*
X109847219Y-44848034D01*
X109783811Y-44801966D01*
X109740251Y-44770317D01*
X109697586Y-44714989D01*
X109691607Y-44645376D01*
X109724212Y-44583580D01*
X109740251Y-44569682D01*
X109847219Y-44491966D01*
X109941537Y-44397648D01*
X133039500Y-44397648D01*
X133039500Y-44602351D01*
X133071522Y-44804534D01*
X133134781Y-44999223D01*
X133175164Y-45078477D01*
X133227410Y-45181016D01*
X133227715Y-45181613D01*
X133348028Y-45347213D01*
X133492786Y-45491971D01*
X133647749Y-45604556D01*
X133658390Y-45612287D01*
X133774607Y-45671503D01*
X133840776Y-45705218D01*
X133840778Y-45705218D01*
X133840781Y-45705220D01*
X133900119Y-45724500D01*
X134035465Y-45768477D01*
X134136557Y-45784488D01*
X134237648Y-45800500D01*
X134237649Y-45800500D01*
X134442351Y-45800500D01*
X134442352Y-45800500D01*
X134644534Y-45768477D01*
X134839219Y-45705220D01*
X135021610Y-45612287D01*
X135127347Y-45535465D01*
X135187213Y-45491971D01*
X135187215Y-45491968D01*
X135187219Y-45491966D01*
X135331966Y-45347219D01*
X135331968Y-45347215D01*
X135331971Y-45347213D01*
X135418790Y-45227715D01*
X135452287Y-45181610D01*
X135545220Y-44999219D01*
X135608477Y-44804534D01*
X135640500Y-44602352D01*
X135640500Y-44397648D01*
X143199500Y-44397648D01*
X143199500Y-44602351D01*
X143231522Y-44804534D01*
X143294781Y-44999223D01*
X143335164Y-45078477D01*
X143387410Y-45181016D01*
X143387715Y-45181613D01*
X143508028Y-45347213D01*
X143652786Y-45491971D01*
X143807749Y-45604556D01*
X143818390Y-45612287D01*
X143934607Y-45671503D01*
X144000776Y-45705218D01*
X144000778Y-45705218D01*
X144000781Y-45705220D01*
X144060119Y-45724500D01*
X144195465Y-45768477D01*
X144296557Y-45784488D01*
X144397648Y-45800500D01*
X144397649Y-45800500D01*
X144602351Y-45800500D01*
X144602352Y-45800500D01*
X144804534Y-45768477D01*
X144999219Y-45705220D01*
X145181610Y-45612287D01*
X145287347Y-45535465D01*
X145347213Y-45491971D01*
X145347215Y-45491968D01*
X145347219Y-45491966D01*
X145491966Y-45347219D01*
X145491968Y-45347215D01*
X145491971Y-45347213D01*
X145578790Y-45227715D01*
X145612287Y-45181610D01*
X145705220Y-44999219D01*
X145768477Y-44804534D01*
X145800500Y-44602352D01*
X145800500Y-44397648D01*
X146539500Y-44397648D01*
X146539500Y-44602351D01*
X146571522Y-44804534D01*
X146634781Y-44999223D01*
X146675164Y-45078477D01*
X146727410Y-45181016D01*
X146727715Y-45181613D01*
X146848028Y-45347213D01*
X146992786Y-45491971D01*
X147147749Y-45604556D01*
X147158390Y-45612287D01*
X147274607Y-45671503D01*
X147340776Y-45705218D01*
X147340778Y-45705218D01*
X147340781Y-45705220D01*
X147400119Y-45724500D01*
X147535465Y-45768477D01*
X147636557Y-45784488D01*
X147737648Y-45800500D01*
X147737649Y-45800500D01*
X147942351Y-45800500D01*
X147942352Y-45800500D01*
X148144534Y-45768477D01*
X148339219Y-45705220D01*
X148521610Y-45612287D01*
X148627347Y-45535465D01*
X148687213Y-45491971D01*
X148687215Y-45491968D01*
X148687219Y-45491966D01*
X148831966Y-45347219D01*
X148831968Y-45347215D01*
X148831971Y-45347213D01*
X148918790Y-45227715D01*
X148952287Y-45181610D01*
X149045220Y-44999219D01*
X149108477Y-44804534D01*
X149140500Y-44602352D01*
X149140500Y-44397648D01*
X156699500Y-44397648D01*
X156699500Y-44602351D01*
X156731522Y-44804534D01*
X156794781Y-44999223D01*
X156835164Y-45078477D01*
X156887410Y-45181016D01*
X156887715Y-45181613D01*
X157008028Y-45347213D01*
X157152786Y-45491971D01*
X157307749Y-45604556D01*
X157318390Y-45612287D01*
X157434607Y-45671503D01*
X157500776Y-45705218D01*
X157500778Y-45705218D01*
X157500781Y-45705220D01*
X157560119Y-45724500D01*
X157695465Y-45768477D01*
X157796557Y-45784488D01*
X157897648Y-45800500D01*
X157897649Y-45800500D01*
X158102351Y-45800500D01*
X158102352Y-45800500D01*
X158304534Y-45768477D01*
X158499219Y-45705220D01*
X158681610Y-45612287D01*
X158787347Y-45535465D01*
X158847213Y-45491971D01*
X158847215Y-45491968D01*
X158847219Y-45491966D01*
X158991966Y-45347219D01*
X158991968Y-45347215D01*
X158991971Y-45347213D01*
X159078790Y-45227715D01*
X159112287Y-45181610D01*
X159205220Y-44999219D01*
X159268477Y-44804534D01*
X159300500Y-44602352D01*
X159300500Y-44397648D01*
X159268477Y-44195466D01*
X159205220Y-44000781D01*
X159205218Y-44000778D01*
X159205218Y-44000776D01*
X159160163Y-43912352D01*
X159112287Y-43818390D01*
X159102220Y-43804534D01*
X158991971Y-43652786D01*
X158847213Y-43508028D01*
X158681613Y-43387715D01*
X158681612Y-43387714D01*
X158681610Y-43387713D01*
X158624653Y-43358691D01*
X158499223Y-43294781D01*
X158304534Y-43231522D01*
X158129995Y-43203878D01*
X158102352Y-43199500D01*
X157897648Y-43199500D01*
X157873329Y-43203351D01*
X157695465Y-43231522D01*
X157500776Y-43294781D01*
X157318386Y-43387715D01*
X157152786Y-43508028D01*
X157008028Y-43652786D01*
X156887715Y-43818386D01*
X156794781Y-44000776D01*
X156731522Y-44195465D01*
X156699500Y-44397648D01*
X149140500Y-44397648D01*
X149108477Y-44195466D01*
X149045220Y-44000781D01*
X149045218Y-44000778D01*
X149045218Y-44000776D01*
X149000163Y-43912352D01*
X148952287Y-43818390D01*
X148942220Y-43804534D01*
X148831971Y-43652786D01*
X148687213Y-43508028D01*
X148521613Y-43387715D01*
X148521612Y-43387714D01*
X148521610Y-43387713D01*
X148464653Y-43358691D01*
X148339223Y-43294781D01*
X148144534Y-43231522D01*
X147969995Y-43203878D01*
X147942352Y-43199500D01*
X147737648Y-43199500D01*
X147713329Y-43203351D01*
X147535465Y-43231522D01*
X147340776Y-43294781D01*
X147158386Y-43387715D01*
X146992786Y-43508028D01*
X146848028Y-43652786D01*
X146727715Y-43818386D01*
X146634781Y-44000776D01*
X146571522Y-44195465D01*
X146539500Y-44397648D01*
X145800500Y-44397648D01*
X145768477Y-44195466D01*
X145705220Y-44000781D01*
X145705218Y-44000778D01*
X145705218Y-44000776D01*
X145660163Y-43912352D01*
X145612287Y-43818390D01*
X145602220Y-43804534D01*
X145491971Y-43652786D01*
X145347213Y-43508028D01*
X145181613Y-43387715D01*
X145181612Y-43387714D01*
X145181610Y-43387713D01*
X145124653Y-43358691D01*
X144999223Y-43294781D01*
X144804534Y-43231522D01*
X144629995Y-43203878D01*
X144602352Y-43199500D01*
X144397648Y-43199500D01*
X144373329Y-43203351D01*
X144195465Y-43231522D01*
X144000776Y-43294781D01*
X143818386Y-43387715D01*
X143652786Y-43508028D01*
X143508028Y-43652786D01*
X143387715Y-43818386D01*
X143294781Y-44000776D01*
X143231522Y-44195465D01*
X143199500Y-44397648D01*
X135640500Y-44397648D01*
X135608477Y-44195466D01*
X135545220Y-44000781D01*
X135545218Y-44000778D01*
X135545218Y-44000776D01*
X135500163Y-43912352D01*
X135452287Y-43818390D01*
X135442220Y-43804534D01*
X135331971Y-43652786D01*
X135187213Y-43508028D01*
X135021613Y-43387715D01*
X135021612Y-43387714D01*
X135021610Y-43387713D01*
X134964653Y-43358691D01*
X134839223Y-43294781D01*
X134644534Y-43231522D01*
X134469995Y-43203878D01*
X134442352Y-43199500D01*
X134237648Y-43199500D01*
X134213329Y-43203351D01*
X134035465Y-43231522D01*
X133840776Y-43294781D01*
X133658386Y-43387715D01*
X133492786Y-43508028D01*
X133348028Y-43652786D01*
X133227715Y-43818386D01*
X133134781Y-44000776D01*
X133071522Y-44195465D01*
X133039500Y-44397648D01*
X109941537Y-44397648D01*
X109991966Y-44347219D01*
X110019572Y-44309223D01*
X110034161Y-44289141D01*
X110112287Y-44181610D01*
X110205220Y-43999219D01*
X110268477Y-43804534D01*
X110300500Y-43602352D01*
X110300500Y-43397648D01*
X110287595Y-43316170D01*
X110268477Y-43195465D01*
X110239127Y-43105137D01*
X110205220Y-43000781D01*
X110205218Y-43000778D01*
X110205218Y-43000776D01*
X110171503Y-42934607D01*
X110112287Y-42818390D01*
X110077130Y-42770000D01*
X109991971Y-42652786D01*
X109847213Y-42508028D01*
X109681613Y-42387715D01*
X109681612Y-42387714D01*
X109681610Y-42387713D01*
X109624653Y-42358691D01*
X109499223Y-42294781D01*
X109304534Y-42231522D01*
X109129995Y-42203878D01*
X109102352Y-42199500D01*
X108897648Y-42199500D01*
X108873329Y-42203351D01*
X108695465Y-42231522D01*
X108500776Y-42294781D01*
X108318386Y-42387715D01*
X108152786Y-42508028D01*
X108008028Y-42652786D01*
X107887715Y-42818386D01*
X107794781Y-43000776D01*
X107731522Y-43195465D01*
X107699500Y-43397648D01*
X89556459Y-43397648D01*
X89678399Y-43316170D01*
X89678403Y-43316167D01*
X89689476Y-43305095D01*
X89821167Y-43173403D01*
X89821170Y-43173399D01*
X89933340Y-43005526D01*
X89933347Y-43005513D01*
X90010609Y-42818983D01*
X90010612Y-42818974D01*
X90020353Y-42770000D01*
X89080330Y-42770000D01*
X89100075Y-42750255D01*
X89149444Y-42664745D01*
X89175000Y-42569370D01*
X89175000Y-42470630D01*
X89149444Y-42375255D01*
X89100075Y-42289745D01*
X89085830Y-42275500D01*
X89126004Y-42275500D01*
X89126004Y-42275499D01*
X89139473Y-42272820D01*
X89141674Y-42272383D01*
X89165866Y-42270000D01*
X90020353Y-42270000D01*
X90010612Y-42221025D01*
X90010609Y-42221016D01*
X89933347Y-42034486D01*
X89933343Y-42034479D01*
X89879795Y-41954340D01*
X89858917Y-41887662D01*
X89877401Y-41820282D01*
X89879733Y-41816652D01*
X89933786Y-41735756D01*
X90011091Y-41549127D01*
X90050500Y-41351003D01*
X90050500Y-41148997D01*
X90011091Y-40950873D01*
X89989044Y-40897648D01*
X91539500Y-40897648D01*
X91539500Y-41102352D01*
X91543878Y-41129995D01*
X91571522Y-41304534D01*
X91634781Y-41499223D01*
X91727715Y-41681613D01*
X91848028Y-41847213D01*
X91992786Y-41991971D01*
X92111854Y-42078477D01*
X92158390Y-42112287D01*
X92272749Y-42170556D01*
X92340776Y-42205218D01*
X92340778Y-42205218D01*
X92340781Y-42205220D01*
X92435792Y-42236091D01*
X92535465Y-42268477D01*
X92636557Y-42284488D01*
X92737648Y-42300500D01*
X92737649Y-42300500D01*
X92942351Y-42300500D01*
X92942352Y-42300500D01*
X93144534Y-42268477D01*
X93339219Y-42205220D01*
X93521610Y-42112287D01*
X93628702Y-42034481D01*
X93687213Y-41991971D01*
X93687215Y-41991968D01*
X93687219Y-41991966D01*
X93831966Y-41847219D01*
X93831968Y-41847215D01*
X93831971Y-41847213D01*
X93912949Y-41735754D01*
X93952287Y-41681610D01*
X94045220Y-41499219D01*
X94108477Y-41304534D01*
X94140500Y-41102352D01*
X94140500Y-40897648D01*
X101699500Y-40897648D01*
X101699500Y-41102352D01*
X101703878Y-41129995D01*
X101731522Y-41304534D01*
X101794781Y-41499223D01*
X101887715Y-41681613D01*
X102008028Y-41847213D01*
X102152786Y-41991971D01*
X102271854Y-42078477D01*
X102318390Y-42112287D01*
X102432749Y-42170556D01*
X102500776Y-42205218D01*
X102500778Y-42205218D01*
X102500781Y-42205220D01*
X102595792Y-42236091D01*
X102695465Y-42268477D01*
X102796557Y-42284488D01*
X102897648Y-42300500D01*
X102897649Y-42300500D01*
X103102351Y-42300500D01*
X103102352Y-42300500D01*
X103304534Y-42268477D01*
X103499219Y-42205220D01*
X103681610Y-42112287D01*
X103788702Y-42034481D01*
X103847213Y-41991971D01*
X103847215Y-41991968D01*
X103847219Y-41991966D01*
X103991966Y-41847219D01*
X103991968Y-41847215D01*
X103991971Y-41847213D01*
X104072949Y-41735754D01*
X104112287Y-41681610D01*
X104205220Y-41499219D01*
X104268477Y-41304534D01*
X104300500Y-41102352D01*
X104300500Y-40897648D01*
X104285820Y-40804963D01*
X104268477Y-40695465D01*
X104205218Y-40500776D01*
X104130703Y-40354534D01*
X104112287Y-40318390D01*
X104054460Y-40238797D01*
X103991971Y-40152786D01*
X103847213Y-40008028D01*
X103826657Y-39993094D01*
X103695285Y-39897648D01*
X114199500Y-39897648D01*
X114199500Y-40102351D01*
X114231522Y-40304534D01*
X114294781Y-40499223D01*
X114387715Y-40681613D01*
X114508028Y-40847213D01*
X114652786Y-40991971D01*
X114807749Y-41104556D01*
X114818390Y-41112287D01*
X114934607Y-41171503D01*
X115000776Y-41205218D01*
X115000778Y-41205218D01*
X115000781Y-41205220D01*
X115105137Y-41239127D01*
X115195465Y-41268477D01*
X115296557Y-41284488D01*
X115397648Y-41300500D01*
X115397649Y-41300500D01*
X115602351Y-41300500D01*
X115602352Y-41300500D01*
X115804534Y-41268477D01*
X115999219Y-41205220D01*
X116181610Y-41112287D01*
X116274590Y-41044732D01*
X116347213Y-40991971D01*
X116347215Y-40991968D01*
X116347219Y-40991966D01*
X116491966Y-40847219D01*
X116491968Y-40847215D01*
X116491971Y-40847213D01*
X116558719Y-40755340D01*
X116612287Y-40681610D01*
X116705220Y-40499219D01*
X116768477Y-40304534D01*
X116800500Y-40102352D01*
X116800500Y-39897648D01*
X141619500Y-39897648D01*
X141619500Y-40102351D01*
X141651522Y-40304534D01*
X141714781Y-40499223D01*
X141807715Y-40681613D01*
X141928028Y-40847213D01*
X142072786Y-40991971D01*
X142227749Y-41104556D01*
X142238390Y-41112287D01*
X142354607Y-41171503D01*
X142420776Y-41205218D01*
X142420778Y-41205218D01*
X142420781Y-41205220D01*
X142525137Y-41239127D01*
X142615465Y-41268477D01*
X142716557Y-41284488D01*
X142817648Y-41300500D01*
X142817649Y-41300500D01*
X143022351Y-41300500D01*
X143022352Y-41300500D01*
X143224534Y-41268477D01*
X143419219Y-41205220D01*
X143601610Y-41112287D01*
X143694590Y-41044732D01*
X143767213Y-40991971D01*
X143767215Y-40991968D01*
X143767219Y-40991966D01*
X143911966Y-40847219D01*
X143911968Y-40847215D01*
X143911971Y-40847213D01*
X143978719Y-40755340D01*
X144032287Y-40681610D01*
X144125220Y-40499219D01*
X144188477Y-40304534D01*
X144220500Y-40102352D01*
X144220500Y-39897648D01*
X151779500Y-39897648D01*
X151779500Y-40102351D01*
X151811522Y-40304534D01*
X151874781Y-40499223D01*
X151967715Y-40681613D01*
X152088028Y-40847213D01*
X152232786Y-40991971D01*
X152387749Y-41104556D01*
X152398390Y-41112287D01*
X152514607Y-41171503D01*
X152580776Y-41205218D01*
X152580778Y-41205218D01*
X152580781Y-41205220D01*
X152685137Y-41239127D01*
X152775465Y-41268477D01*
X152876557Y-41284488D01*
X152977648Y-41300500D01*
X152977649Y-41300500D01*
X153182351Y-41300500D01*
X153182352Y-41300500D01*
X153384534Y-41268477D01*
X153579219Y-41205220D01*
X153761610Y-41112287D01*
X153854590Y-41044732D01*
X153927213Y-40991971D01*
X153927215Y-40991968D01*
X153927219Y-40991966D01*
X154071966Y-40847219D01*
X154071968Y-40847215D01*
X154071971Y-40847213D01*
X154138719Y-40755340D01*
X154192287Y-40681610D01*
X154285220Y-40499219D01*
X154348477Y-40304534D01*
X154380500Y-40102352D01*
X154380500Y-39897648D01*
X154354188Y-39731522D01*
X154348477Y-39695465D01*
X154310442Y-39578406D01*
X154285220Y-39500781D01*
X154285218Y-39500778D01*
X154285218Y-39500776D01*
X154217761Y-39368386D01*
X154192287Y-39318390D01*
X154179289Y-39300500D01*
X154071971Y-39152786D01*
X153927213Y-39008028D01*
X153761613Y-38887715D01*
X153761612Y-38887714D01*
X153761610Y-38887713D01*
X153704653Y-38858691D01*
X153579223Y-38794781D01*
X153384534Y-38731522D01*
X153209995Y-38703878D01*
X153182352Y-38699500D01*
X152977648Y-38699500D01*
X152953329Y-38703351D01*
X152775465Y-38731522D01*
X152580776Y-38794781D01*
X152398386Y-38887715D01*
X152232786Y-39008028D01*
X152088028Y-39152786D01*
X151967715Y-39318386D01*
X151874781Y-39500776D01*
X151811522Y-39695465D01*
X151779500Y-39897648D01*
X144220500Y-39897648D01*
X144194188Y-39731522D01*
X144188477Y-39695465D01*
X144150442Y-39578406D01*
X144125220Y-39500781D01*
X144125218Y-39500778D01*
X144125218Y-39500776D01*
X144057761Y-39368386D01*
X144032287Y-39318390D01*
X144019289Y-39300500D01*
X143911971Y-39152786D01*
X143767213Y-39008028D01*
X143601613Y-38887715D01*
X143601612Y-38887714D01*
X143601610Y-38887713D01*
X143544653Y-38858691D01*
X143419223Y-38794781D01*
X143224534Y-38731522D01*
X143049995Y-38703878D01*
X143022352Y-38699500D01*
X142817648Y-38699500D01*
X142793329Y-38703351D01*
X142615465Y-38731522D01*
X142420776Y-38794781D01*
X142238386Y-38887715D01*
X142072786Y-39008028D01*
X141928028Y-39152786D01*
X141807715Y-39318386D01*
X141714781Y-39500776D01*
X141651522Y-39695465D01*
X141619500Y-39897648D01*
X116800500Y-39897648D01*
X116774188Y-39731522D01*
X116768477Y-39695465D01*
X116730442Y-39578406D01*
X116705220Y-39500781D01*
X116705218Y-39500778D01*
X116705218Y-39500776D01*
X116637761Y-39368386D01*
X116612287Y-39318390D01*
X116599289Y-39300500D01*
X116491971Y-39152786D01*
X116347213Y-39008028D01*
X116181613Y-38887715D01*
X116181612Y-38887714D01*
X116181610Y-38887713D01*
X116124653Y-38858691D01*
X115999223Y-38794781D01*
X115804534Y-38731522D01*
X115629995Y-38703878D01*
X115602352Y-38699500D01*
X115397648Y-38699500D01*
X115373329Y-38703351D01*
X115195465Y-38731522D01*
X115000776Y-38794781D01*
X114818386Y-38887715D01*
X114652786Y-39008028D01*
X114508028Y-39152786D01*
X114387715Y-39318386D01*
X114294781Y-39500776D01*
X114231522Y-39695465D01*
X114199500Y-39897648D01*
X103695285Y-39897648D01*
X103681613Y-39887715D01*
X103681612Y-39887714D01*
X103681610Y-39887713D01*
X103624653Y-39858691D01*
X103499223Y-39794781D01*
X103304534Y-39731522D01*
X103129995Y-39703878D01*
X103102352Y-39699500D01*
X102897648Y-39699500D01*
X102873329Y-39703351D01*
X102695465Y-39731522D01*
X102500776Y-39794781D01*
X102318386Y-39887715D01*
X102152786Y-40008028D01*
X102008028Y-40152786D01*
X101887715Y-40318386D01*
X101794781Y-40500776D01*
X101731522Y-40695465D01*
X101714180Y-40804963D01*
X101699500Y-40897648D01*
X94140500Y-40897648D01*
X94125820Y-40804963D01*
X94108477Y-40695465D01*
X94045218Y-40500776D01*
X93970703Y-40354534D01*
X93952287Y-40318390D01*
X93894460Y-40238797D01*
X93831971Y-40152786D01*
X93687213Y-40008028D01*
X93521613Y-39887715D01*
X93521612Y-39887714D01*
X93521610Y-39887713D01*
X93464653Y-39858691D01*
X93339223Y-39794781D01*
X93144534Y-39731522D01*
X92969995Y-39703878D01*
X92942352Y-39699500D01*
X92737648Y-39699500D01*
X92713329Y-39703351D01*
X92535465Y-39731522D01*
X92340776Y-39794781D01*
X92158386Y-39887715D01*
X91992786Y-40008028D01*
X91848028Y-40152786D01*
X91727715Y-40318386D01*
X91634781Y-40500776D01*
X91571522Y-40695465D01*
X91554180Y-40804963D01*
X91539500Y-40897648D01*
X89989044Y-40897648D01*
X89977673Y-40870198D01*
X89970205Y-40800730D01*
X89989964Y-40755340D01*
X89989547Y-40755112D01*
X89992095Y-40750444D01*
X89992972Y-40748431D01*
X89993796Y-40747331D01*
X90044091Y-40612483D01*
X90050500Y-40552873D01*
X90050499Y-39407128D01*
X90044091Y-39347517D01*
X90033227Y-39318390D01*
X89993797Y-39212671D01*
X89993793Y-39212664D01*
X89907547Y-39097455D01*
X89907544Y-39097452D01*
X89792335Y-39011206D01*
X89792328Y-39011202D01*
X89657482Y-38960908D01*
X89657483Y-38960908D01*
X89597883Y-38954501D01*
X89597881Y-38954500D01*
X89597873Y-38954500D01*
X89597864Y-38954500D01*
X88002129Y-38954500D01*
X88002123Y-38954501D01*
X87942516Y-38960908D01*
X87807671Y-39011202D01*
X87807664Y-39011206D01*
X87692455Y-39097452D01*
X87692452Y-39097455D01*
X87606206Y-39212664D01*
X87606202Y-39212671D01*
X87555908Y-39347517D01*
X87549501Y-39407116D01*
X87549501Y-39407123D01*
X87549500Y-39407135D01*
X85132029Y-39407135D01*
X85112287Y-39368390D01*
X85112285Y-39368387D01*
X85112284Y-39368385D01*
X84991971Y-39202786D01*
X84847213Y-39058028D01*
X84681613Y-38937715D01*
X84681612Y-38937714D01*
X84681610Y-38937713D01*
X84624653Y-38908691D01*
X84499223Y-38844781D01*
X84304534Y-38781522D01*
X84129995Y-38753878D01*
X84102352Y-38749500D01*
X83897648Y-38749500D01*
X83873329Y-38753351D01*
X83695465Y-38781522D01*
X83500776Y-38844781D01*
X83318386Y-38937715D01*
X83152786Y-39058028D01*
X83008028Y-39202786D01*
X82887715Y-39368386D01*
X82794781Y-39550776D01*
X82731522Y-39745465D01*
X82699500Y-39947648D01*
X70826833Y-39947648D01*
X70697219Y-39818034D01*
X70697213Y-39818028D01*
X70531613Y-39697715D01*
X70531612Y-39697714D01*
X70531610Y-39697713D01*
X70474653Y-39668691D01*
X70349223Y-39604781D01*
X70154534Y-39541522D01*
X69979995Y-39513878D01*
X69952352Y-39509500D01*
X69747648Y-39509500D01*
X69723329Y-39513351D01*
X69545465Y-39541522D01*
X69350776Y-39604781D01*
X69168386Y-39697715D01*
X69002786Y-39818028D01*
X68858028Y-39962786D01*
X68737715Y-40128386D01*
X68644781Y-40310776D01*
X68581522Y-40505465D01*
X68549500Y-40707648D01*
X59300500Y-40707648D01*
X59300500Y-38397648D01*
X126199500Y-38397648D01*
X126199500Y-38602351D01*
X126231522Y-38804534D01*
X126294781Y-38999223D01*
X126352391Y-39112287D01*
X126383646Y-39173629D01*
X126387715Y-39181613D01*
X126508028Y-39347213D01*
X126652786Y-39491971D01*
X126771755Y-39578405D01*
X126818390Y-39612287D01*
X126919311Y-39663709D01*
X127000776Y-39705218D01*
X127000778Y-39705218D01*
X127000781Y-39705220D01*
X127105137Y-39739127D01*
X127195465Y-39768477D01*
X127296557Y-39784488D01*
X127397648Y-39800500D01*
X127397649Y-39800500D01*
X127602351Y-39800500D01*
X127602352Y-39800500D01*
X127712933Y-39782985D01*
X127793006Y-39770303D01*
X127794192Y-39770115D01*
X127804534Y-39768477D01*
X127999219Y-39705220D01*
X128181610Y-39612287D01*
X128279009Y-39541523D01*
X128347213Y-39491971D01*
X128347215Y-39491968D01*
X128347219Y-39491966D01*
X128491966Y-39347219D01*
X128491968Y-39347215D01*
X128491971Y-39347213D01*
X128549175Y-39268477D01*
X128612287Y-39181610D01*
X128705220Y-38999219D01*
X128768477Y-38804534D01*
X128800500Y-38602352D01*
X128800500Y-38397648D01*
X128768477Y-38195466D01*
X128754468Y-38152352D01*
X128705218Y-38000776D01*
X128652671Y-37897648D01*
X128612287Y-37818390D01*
X128598926Y-37800000D01*
X128491971Y-37652786D01*
X128347213Y-37508028D01*
X128181613Y-37387715D01*
X128181612Y-37387714D01*
X128181610Y-37387713D01*
X128124653Y-37358691D01*
X127999223Y-37294781D01*
X127804534Y-37231522D01*
X127629995Y-37203878D01*
X127602352Y-37199500D01*
X127397648Y-37199500D01*
X127376933Y-37202781D01*
X127195465Y-37231522D01*
X127000776Y-37294781D01*
X126818386Y-37387715D01*
X126652786Y-37508028D01*
X126508028Y-37652786D01*
X126387715Y-37818386D01*
X126294781Y-38000776D01*
X126231522Y-38195465D01*
X126199500Y-38397648D01*
X59300500Y-38397648D01*
X59300500Y-36197648D01*
X111549500Y-36197648D01*
X111549500Y-36402351D01*
X111581522Y-36604534D01*
X111644781Y-36799223D01*
X111708691Y-36924653D01*
X111737585Y-36981359D01*
X111737715Y-36981613D01*
X111858028Y-37147213D01*
X112002786Y-37291971D01*
X112134569Y-37387715D01*
X112168390Y-37412287D01*
X112284607Y-37471503D01*
X112350776Y-37505218D01*
X112350778Y-37505218D01*
X112350781Y-37505220D01*
X112455137Y-37539127D01*
X112545465Y-37568477D01*
X112614897Y-37579474D01*
X112747648Y-37600500D01*
X112747649Y-37600500D01*
X112952351Y-37600500D01*
X112952352Y-37600500D01*
X113154534Y-37568477D01*
X113349219Y-37505220D01*
X113531610Y-37412287D01*
X113624590Y-37344732D01*
X113697213Y-37291971D01*
X113697215Y-37291968D01*
X113697219Y-37291966D01*
X113841966Y-37147219D01*
X113841968Y-37147215D01*
X113841971Y-37147213D01*
X113906762Y-37058034D01*
X113962287Y-36981610D01*
X114055220Y-36799219D01*
X114118477Y-36604534D01*
X114150500Y-36402352D01*
X114150500Y-36197682D01*
X121710000Y-36197682D01*
X121710000Y-36402317D01*
X121742009Y-36604417D01*
X121805244Y-36799031D01*
X121898141Y-36981350D01*
X121898147Y-36981359D01*
X121930523Y-37025921D01*
X121930524Y-37025922D01*
X122610000Y-36346446D01*
X122610000Y-36352661D01*
X122637259Y-36454394D01*
X122689920Y-36545606D01*
X122764394Y-36620080D01*
X122855606Y-36672741D01*
X122957339Y-36700000D01*
X122963553Y-36700000D01*
X122284076Y-37379474D01*
X122328650Y-37411859D01*
X122510968Y-37504755D01*
X122705582Y-37567990D01*
X122907683Y-37600000D01*
X123112317Y-37600000D01*
X123314417Y-37567990D01*
X123509031Y-37504755D01*
X123691349Y-37411859D01*
X123735921Y-37379474D01*
X123056447Y-36700000D01*
X123062661Y-36700000D01*
X123164394Y-36672741D01*
X123255606Y-36620080D01*
X123330080Y-36545606D01*
X123382741Y-36454394D01*
X123410000Y-36352661D01*
X123410000Y-36346448D01*
X124089474Y-37025922D01*
X124089474Y-37025921D01*
X124121859Y-36981349D01*
X124214755Y-36799031D01*
X124277990Y-36604417D01*
X124310000Y-36402317D01*
X124310000Y-36397682D01*
X141620000Y-36397682D01*
X141620000Y-36602317D01*
X141652009Y-36804417D01*
X141715244Y-36999031D01*
X141808141Y-37181350D01*
X141808147Y-37181359D01*
X141840523Y-37225921D01*
X141840524Y-37225922D01*
X142520000Y-36546446D01*
X142520000Y-36552661D01*
X142547259Y-36654394D01*
X142599920Y-36745606D01*
X142674394Y-36820080D01*
X142765606Y-36872741D01*
X142867339Y-36900000D01*
X142873553Y-36900000D01*
X142194076Y-37579474D01*
X142238650Y-37611859D01*
X142420968Y-37704755D01*
X142615582Y-37767990D01*
X142817683Y-37800000D01*
X143022317Y-37800000D01*
X143224417Y-37767990D01*
X143419031Y-37704755D01*
X143601349Y-37611859D01*
X143645921Y-37579474D01*
X142966447Y-36900000D01*
X142972661Y-36900000D01*
X143074394Y-36872741D01*
X143165606Y-36820080D01*
X143240080Y-36745606D01*
X143292741Y-36654394D01*
X143320000Y-36552661D01*
X143320000Y-36546448D01*
X143999474Y-37225922D01*
X143999474Y-37225921D01*
X144031859Y-37181349D01*
X144124755Y-36999031D01*
X144187990Y-36804417D01*
X144220000Y-36602317D01*
X144220000Y-36397682D01*
X144219995Y-36397648D01*
X151779500Y-36397648D01*
X151779500Y-36602351D01*
X151811522Y-36804534D01*
X151874781Y-36999223D01*
X151927770Y-37103217D01*
X151967585Y-37181359D01*
X151967715Y-37181613D01*
X152088028Y-37347213D01*
X152232786Y-37491971D01*
X152338090Y-37568477D01*
X152398390Y-37612287D01*
X152477864Y-37652781D01*
X152580776Y-37705218D01*
X152580778Y-37705218D01*
X152580781Y-37705220D01*
X152618720Y-37717547D01*
X152775465Y-37768477D01*
X152876557Y-37784488D01*
X152977648Y-37800500D01*
X152977649Y-37800500D01*
X153182351Y-37800500D01*
X153182352Y-37800500D01*
X153384534Y-37768477D01*
X153579219Y-37705220D01*
X153761610Y-37612287D01*
X153896556Y-37514244D01*
X153927213Y-37491971D01*
X153927215Y-37491968D01*
X153927219Y-37491966D01*
X154071966Y-37347219D01*
X154071968Y-37347215D01*
X154071971Y-37347213D01*
X154156024Y-37231522D01*
X154192287Y-37181610D01*
X154285220Y-36999219D01*
X154348477Y-36804534D01*
X154376281Y-36628992D01*
X157749500Y-36628992D01*
X157749500Y-36831007D01*
X157788907Y-37029119D01*
X157788909Y-37029127D01*
X157866213Y-37215755D01*
X157876748Y-37231522D01*
X157919016Y-37294781D01*
X157919904Y-37296109D01*
X157940782Y-37362787D01*
X157922297Y-37430167D01*
X157919904Y-37433891D01*
X157866213Y-37514244D01*
X157788909Y-37700872D01*
X157788907Y-37700880D01*
X157749500Y-37898992D01*
X157749500Y-38101007D01*
X157788907Y-38299119D01*
X157788909Y-38299127D01*
X157822325Y-38379800D01*
X157829794Y-38449270D01*
X157810038Y-38494660D01*
X157810454Y-38494887D01*
X157807919Y-38499528D01*
X157807037Y-38501556D01*
X157806206Y-38502665D01*
X157806202Y-38502672D01*
X157755908Y-38637517D01*
X157751168Y-38681610D01*
X157749501Y-38697123D01*
X157749500Y-38697135D01*
X157749500Y-39842870D01*
X157749501Y-39842876D01*
X157755908Y-39902483D01*
X157806202Y-40037328D01*
X157806206Y-40037335D01*
X157892452Y-40152544D01*
X157892455Y-40152547D01*
X158007664Y-40238793D01*
X158007671Y-40238797D01*
X158142517Y-40289091D01*
X158142516Y-40289091D01*
X158149444Y-40289835D01*
X158202127Y-40295500D01*
X159797872Y-40295499D01*
X159857483Y-40289091D01*
X159992331Y-40238796D01*
X160107546Y-40152546D01*
X160193796Y-40037331D01*
X160244091Y-39902483D01*
X160250500Y-39842873D01*
X160250499Y-38697128D01*
X160244091Y-38637517D01*
X160230975Y-38602352D01*
X160193797Y-38502671D01*
X160193796Y-38502670D01*
X160193796Y-38502669D01*
X160192967Y-38501562D01*
X160192485Y-38500268D01*
X160189546Y-38494886D01*
X160190319Y-38494463D01*
X160168551Y-38436099D01*
X160177675Y-38379798D01*
X160211089Y-38299132D01*
X160211089Y-38299131D01*
X160211091Y-38299127D01*
X160250500Y-38101003D01*
X160250500Y-37947648D01*
X161999500Y-37947648D01*
X161999500Y-38152351D01*
X162031522Y-38354534D01*
X162094781Y-38549223D01*
X162139770Y-38637517D01*
X162187668Y-38731522D01*
X162187715Y-38731613D01*
X162308028Y-38897213D01*
X162452786Y-39041971D01*
X162549566Y-39112284D01*
X162618390Y-39162287D01*
X162717270Y-39212669D01*
X162800776Y-39255218D01*
X162800778Y-39255218D01*
X162800781Y-39255220D01*
X162905137Y-39289127D01*
X162995465Y-39318477D01*
X163096557Y-39334488D01*
X163197648Y-39350500D01*
X163197649Y-39350500D01*
X163402351Y-39350500D01*
X163402352Y-39350500D01*
X163604534Y-39318477D01*
X163799219Y-39255220D01*
X163981610Y-39162287D01*
X164074590Y-39094732D01*
X164147213Y-39041971D01*
X164147215Y-39041968D01*
X164147219Y-39041966D01*
X164212319Y-38976866D01*
X164273642Y-38943381D01*
X164343334Y-38948365D01*
X164387681Y-38976866D01*
X164452786Y-39041971D01*
X164549566Y-39112284D01*
X164618390Y-39162287D01*
X164717270Y-39212669D01*
X164800776Y-39255218D01*
X164800778Y-39255218D01*
X164800781Y-39255220D01*
X164905137Y-39289127D01*
X164995465Y-39318477D01*
X165096557Y-39334488D01*
X165197648Y-39350500D01*
X165197649Y-39350500D01*
X165402351Y-39350500D01*
X165402352Y-39350500D01*
X165604534Y-39318477D01*
X165799219Y-39255220D01*
X165981610Y-39162287D01*
X166074590Y-39094732D01*
X166147213Y-39041971D01*
X166147215Y-39041968D01*
X166147219Y-39041966D01*
X166291966Y-38897219D01*
X166291968Y-38897215D01*
X166291971Y-38897213D01*
X166366391Y-38794781D01*
X166412287Y-38731610D01*
X166505220Y-38549219D01*
X166568477Y-38354534D01*
X166600500Y-38152352D01*
X166600500Y-37947648D01*
X166592581Y-37897648D01*
X167669500Y-37897648D01*
X167669500Y-38102351D01*
X167701522Y-38304534D01*
X167764781Y-38499223D01*
X167817328Y-38602351D01*
X167835246Y-38637517D01*
X167857715Y-38681613D01*
X167978028Y-38847213D01*
X168122786Y-38991971D01*
X168267971Y-39097452D01*
X168288390Y-39112287D01*
X168404607Y-39171503D01*
X168470776Y-39205218D01*
X168470778Y-39205218D01*
X168470781Y-39205220D01*
X168575137Y-39239127D01*
X168665465Y-39268477D01*
X168766557Y-39284488D01*
X168867648Y-39300500D01*
X168867649Y-39300500D01*
X169072351Y-39300500D01*
X169072352Y-39300500D01*
X169274534Y-39268477D01*
X169469219Y-39205220D01*
X169651610Y-39112287D01*
X169744590Y-39044732D01*
X169817213Y-38991971D01*
X169817215Y-38991968D01*
X169817219Y-38991966D01*
X169961966Y-38847219D01*
X169961968Y-38847215D01*
X169961971Y-38847213D01*
X170069289Y-38699500D01*
X170082287Y-38681610D01*
X170175220Y-38499219D01*
X170238477Y-38304534D01*
X170270500Y-38102352D01*
X170270500Y-37897648D01*
X177829500Y-37897648D01*
X177829500Y-38102351D01*
X177861522Y-38304534D01*
X177924781Y-38499223D01*
X177977328Y-38602351D01*
X177995246Y-38637517D01*
X178017715Y-38681613D01*
X178138028Y-38847213D01*
X178282786Y-38991971D01*
X178427971Y-39097452D01*
X178448390Y-39112287D01*
X178564607Y-39171503D01*
X178630776Y-39205218D01*
X178630778Y-39205218D01*
X178630781Y-39205220D01*
X178735137Y-39239127D01*
X178825465Y-39268477D01*
X178926557Y-39284488D01*
X179027648Y-39300500D01*
X179027649Y-39300500D01*
X179232351Y-39300500D01*
X179232352Y-39300500D01*
X179434534Y-39268477D01*
X179629219Y-39205220D01*
X179811610Y-39112287D01*
X179904590Y-39044732D01*
X179977213Y-38991971D01*
X179977215Y-38991968D01*
X179977219Y-38991966D01*
X180121966Y-38847219D01*
X180121968Y-38847215D01*
X180121971Y-38847213D01*
X180229289Y-38699500D01*
X180242287Y-38681610D01*
X180335220Y-38499219D01*
X180398477Y-38304534D01*
X180430500Y-38102352D01*
X180430500Y-37938549D01*
X183299500Y-37938549D01*
X183299500Y-38161450D01*
X183299501Y-38161466D01*
X183328594Y-38382452D01*
X183328595Y-38382457D01*
X183328596Y-38382463D01*
X183360806Y-38502672D01*
X183386290Y-38597780D01*
X183386293Y-38597790D01*
X183462398Y-38781523D01*
X183471595Y-38803726D01*
X183583052Y-38996774D01*
X183583057Y-38996780D01*
X183583058Y-38996782D01*
X183718751Y-39173622D01*
X183718757Y-39173629D01*
X183876370Y-39331242D01*
X183876377Y-39331248D01*
X183901467Y-39350500D01*
X184053226Y-39466948D01*
X184246274Y-39578405D01*
X184452219Y-39663710D01*
X184667537Y-39721404D01*
X184888543Y-39750500D01*
X184888550Y-39750500D01*
X185111450Y-39750500D01*
X185111457Y-39750500D01*
X185332463Y-39721404D01*
X185547781Y-39663710D01*
X185753726Y-39578405D01*
X185946774Y-39466948D01*
X186123624Y-39331247D01*
X186281247Y-39173624D01*
X186416948Y-38996774D01*
X186528405Y-38803726D01*
X186613710Y-38597781D01*
X186671404Y-38382463D01*
X186700500Y-38161457D01*
X186700500Y-37938543D01*
X186671404Y-37717537D01*
X186613710Y-37502219D01*
X186613114Y-37500781D01*
X186556872Y-37365000D01*
X186528405Y-37296274D01*
X186416948Y-37103226D01*
X186343905Y-37008034D01*
X186281248Y-36926377D01*
X186281242Y-36926370D01*
X186123629Y-36768757D01*
X186123622Y-36768751D01*
X185946782Y-36633058D01*
X185946780Y-36633057D01*
X185946774Y-36633052D01*
X185753726Y-36521595D01*
X185753722Y-36521593D01*
X185547790Y-36436293D01*
X185547783Y-36436291D01*
X185547781Y-36436290D01*
X185332463Y-36378596D01*
X185332457Y-36378595D01*
X185332452Y-36378594D01*
X185111466Y-36349501D01*
X185111463Y-36349500D01*
X185111457Y-36349500D01*
X184888543Y-36349500D01*
X184888537Y-36349500D01*
X184888533Y-36349501D01*
X184667547Y-36378594D01*
X184667540Y-36378595D01*
X184667537Y-36378596D01*
X184452219Y-36436290D01*
X184452209Y-36436293D01*
X184246277Y-36521593D01*
X184246273Y-36521595D01*
X184053226Y-36633052D01*
X184053217Y-36633058D01*
X183876377Y-36768751D01*
X183876370Y-36768757D01*
X183718757Y-36926370D01*
X183718751Y-36926377D01*
X183583058Y-37103217D01*
X183583052Y-37103226D01*
X183471595Y-37296273D01*
X183471593Y-37296277D01*
X183386293Y-37502209D01*
X183386290Y-37502219D01*
X183333062Y-37700872D01*
X183328597Y-37717534D01*
X183328594Y-37717547D01*
X183299501Y-37938533D01*
X183299500Y-37938549D01*
X180430500Y-37938549D01*
X180430500Y-37897648D01*
X180399335Y-37700880D01*
X180398477Y-37695465D01*
X180357216Y-37568477D01*
X180335220Y-37500781D01*
X180335218Y-37500778D01*
X180335218Y-37500776D01*
X180277610Y-37387715D01*
X180242287Y-37318390D01*
X180225134Y-37294781D01*
X180121971Y-37152786D01*
X179977213Y-37008028D01*
X179811613Y-36887715D01*
X179811612Y-36887714D01*
X179811610Y-36887713D01*
X179744567Y-36853553D01*
X179629223Y-36794781D01*
X179434534Y-36731522D01*
X179259995Y-36703878D01*
X179232352Y-36699500D01*
X179027648Y-36699500D01*
X179003329Y-36703351D01*
X178825465Y-36731522D01*
X178630776Y-36794781D01*
X178448386Y-36887715D01*
X178282786Y-37008028D01*
X178138028Y-37152786D01*
X178017715Y-37318386D01*
X177924781Y-37500776D01*
X177861522Y-37695465D01*
X177829500Y-37897648D01*
X170270500Y-37897648D01*
X170239335Y-37700880D01*
X170238477Y-37695465D01*
X170197216Y-37568477D01*
X170175220Y-37500781D01*
X170175218Y-37500778D01*
X170175218Y-37500776D01*
X170117610Y-37387715D01*
X170082287Y-37318390D01*
X170065134Y-37294781D01*
X169961971Y-37152786D01*
X169817213Y-37008028D01*
X169651613Y-36887715D01*
X169651612Y-36887714D01*
X169651610Y-36887713D01*
X169584567Y-36853553D01*
X169469223Y-36794781D01*
X169274534Y-36731522D01*
X169099995Y-36703878D01*
X169072352Y-36699500D01*
X168867648Y-36699500D01*
X168843329Y-36703351D01*
X168665465Y-36731522D01*
X168470776Y-36794781D01*
X168288386Y-36887715D01*
X168122786Y-37008028D01*
X167978028Y-37152786D01*
X167857715Y-37318386D01*
X167764781Y-37500776D01*
X167701522Y-37695465D01*
X167669500Y-37897648D01*
X166592581Y-37897648D01*
X166568477Y-37745466D01*
X166505220Y-37550781D01*
X166505218Y-37550778D01*
X166505218Y-37550776D01*
X166443764Y-37430167D01*
X166412287Y-37368390D01*
X166404556Y-37357749D01*
X166291971Y-37202786D01*
X166147213Y-37058028D01*
X165981613Y-36937715D01*
X165981612Y-36937714D01*
X165981610Y-36937713D01*
X165883480Y-36887713D01*
X165799223Y-36844781D01*
X165604534Y-36781522D01*
X165429995Y-36753878D01*
X165402352Y-36749500D01*
X165197648Y-36749500D01*
X165173329Y-36753351D01*
X164995465Y-36781522D01*
X164800776Y-36844781D01*
X164618386Y-36937715D01*
X164452786Y-37058028D01*
X164452782Y-37058032D01*
X164387681Y-37123134D01*
X164326358Y-37156619D01*
X164256666Y-37151635D01*
X164212319Y-37123134D01*
X164147213Y-37058028D01*
X163981613Y-36937715D01*
X163981612Y-36937714D01*
X163981610Y-36937713D01*
X163883480Y-36887713D01*
X163799223Y-36844781D01*
X163604534Y-36781522D01*
X163429995Y-36753878D01*
X163402352Y-36749500D01*
X163197648Y-36749500D01*
X163173329Y-36753351D01*
X162995465Y-36781522D01*
X162800776Y-36844781D01*
X162618386Y-36937715D01*
X162452786Y-37058028D01*
X162308028Y-37202786D01*
X162187715Y-37368386D01*
X162094781Y-37550776D01*
X162031522Y-37745465D01*
X161999500Y-37947648D01*
X160250500Y-37947648D01*
X160250500Y-37898997D01*
X160211091Y-37700873D01*
X160133786Y-37514244D01*
X160080094Y-37433889D01*
X160059217Y-37367214D01*
X160077701Y-37299834D01*
X160080078Y-37296134D01*
X160133786Y-37215756D01*
X160211091Y-37029127D01*
X160250500Y-36831003D01*
X160250500Y-36628997D01*
X160211091Y-36430873D01*
X160133786Y-36244244D01*
X160133784Y-36244241D01*
X160133782Y-36244237D01*
X160021558Y-36076281D01*
X159878718Y-35933441D01*
X159710762Y-35821217D01*
X159710752Y-35821212D01*
X159524127Y-35743909D01*
X159524119Y-35743907D01*
X159326007Y-35704500D01*
X159326003Y-35704500D01*
X158673997Y-35704500D01*
X158673992Y-35704500D01*
X158475880Y-35743907D01*
X158475872Y-35743909D01*
X158289247Y-35821212D01*
X158289237Y-35821217D01*
X158121281Y-35933441D01*
X157978441Y-36076281D01*
X157866217Y-36244237D01*
X157866212Y-36244247D01*
X157788909Y-36430872D01*
X157788907Y-36430880D01*
X157749500Y-36628992D01*
X154376281Y-36628992D01*
X154380500Y-36602352D01*
X154380500Y-36397648D01*
X154365034Y-36299999D01*
X154348477Y-36195465D01*
X154302640Y-36054394D01*
X154285220Y-36000781D01*
X154285218Y-36000778D01*
X154285218Y-36000776D01*
X154250909Y-35933442D01*
X154192287Y-35818390D01*
X154171660Y-35789999D01*
X154071971Y-35652786D01*
X153927213Y-35508028D01*
X153761613Y-35387715D01*
X153761612Y-35387714D01*
X153761610Y-35387713D01*
X153704653Y-35358691D01*
X153579223Y-35294781D01*
X153384534Y-35231522D01*
X153209995Y-35203878D01*
X153182352Y-35199500D01*
X152977648Y-35199500D01*
X152953329Y-35203351D01*
X152775465Y-35231522D01*
X152580776Y-35294781D01*
X152398386Y-35387715D01*
X152232786Y-35508028D01*
X152088028Y-35652786D01*
X151967715Y-35818386D01*
X151874781Y-36000776D01*
X151811522Y-36195465D01*
X151779500Y-36397648D01*
X144219995Y-36397648D01*
X144187990Y-36195582D01*
X144124755Y-36000968D01*
X144031859Y-35818650D01*
X143999474Y-35774077D01*
X143999474Y-35774076D01*
X143320000Y-36453551D01*
X143320000Y-36447339D01*
X143292741Y-36345606D01*
X143240080Y-36254394D01*
X143165606Y-36179920D01*
X143074394Y-36127259D01*
X142972661Y-36100000D01*
X142966446Y-36100000D01*
X143645922Y-35420524D01*
X143645921Y-35420523D01*
X143601359Y-35388147D01*
X143601350Y-35388141D01*
X143419031Y-35295244D01*
X143224417Y-35232009D01*
X143022317Y-35200000D01*
X142817683Y-35200000D01*
X142615582Y-35232009D01*
X142420968Y-35295244D01*
X142238644Y-35388143D01*
X142194077Y-35420523D01*
X142194077Y-35420524D01*
X142873554Y-36100000D01*
X142867339Y-36100000D01*
X142765606Y-36127259D01*
X142674394Y-36179920D01*
X142599920Y-36254394D01*
X142547259Y-36345606D01*
X142520000Y-36447339D01*
X142520000Y-36453553D01*
X141840524Y-35774077D01*
X141840523Y-35774077D01*
X141808143Y-35818644D01*
X141715244Y-36000968D01*
X141652009Y-36195582D01*
X141620000Y-36397682D01*
X124310000Y-36397682D01*
X124310000Y-36197682D01*
X124277990Y-35995582D01*
X124214755Y-35800968D01*
X124121859Y-35618650D01*
X124089474Y-35574077D01*
X124089474Y-35574076D01*
X123410000Y-36253551D01*
X123410000Y-36247339D01*
X123382741Y-36145606D01*
X123330080Y-36054394D01*
X123255606Y-35979920D01*
X123164394Y-35927259D01*
X123062661Y-35900000D01*
X123056446Y-35900000D01*
X123735922Y-35220524D01*
X123735921Y-35220523D01*
X123691359Y-35188147D01*
X123691350Y-35188141D01*
X123509031Y-35095244D01*
X123314417Y-35032009D01*
X123112317Y-35000000D01*
X122907683Y-35000000D01*
X122705582Y-35032009D01*
X122510968Y-35095244D01*
X122328644Y-35188143D01*
X122284077Y-35220523D01*
X122284077Y-35220524D01*
X122963554Y-35900000D01*
X122957339Y-35900000D01*
X122855606Y-35927259D01*
X122764394Y-35979920D01*
X122689920Y-36054394D01*
X122637259Y-36145606D01*
X122610000Y-36247339D01*
X122610000Y-36253553D01*
X121930524Y-35574077D01*
X121930523Y-35574077D01*
X121898143Y-35618644D01*
X121805244Y-35800968D01*
X121742009Y-35995582D01*
X121710000Y-36197682D01*
X114150500Y-36197682D01*
X114150500Y-36197648D01*
X114131277Y-36076281D01*
X114118477Y-35995465D01*
X114061024Y-35818644D01*
X114055220Y-35800781D01*
X114055218Y-35800778D01*
X114055218Y-35800776D01*
X114006162Y-35704500D01*
X113962287Y-35618390D01*
X113930092Y-35574077D01*
X113841971Y-35452786D01*
X113697213Y-35308028D01*
X113531613Y-35187715D01*
X113531612Y-35187714D01*
X113531610Y-35187713D01*
X113474653Y-35158691D01*
X113349223Y-35094781D01*
X113154534Y-35031522D01*
X112979995Y-35003878D01*
X112952352Y-34999500D01*
X112747648Y-34999500D01*
X112723329Y-35003351D01*
X112545465Y-35031522D01*
X112350776Y-35094781D01*
X112168386Y-35187715D01*
X112002786Y-35308028D01*
X111858028Y-35452786D01*
X111737715Y-35618386D01*
X111644781Y-35800776D01*
X111581522Y-35995465D01*
X111549500Y-36197648D01*
X59300500Y-36197648D01*
X59300500Y-33547648D01*
X77549500Y-33547648D01*
X77549500Y-33752351D01*
X77581522Y-33954534D01*
X77644781Y-34149223D01*
X77705545Y-34268477D01*
X77718642Y-34294182D01*
X77737715Y-34331613D01*
X77858028Y-34497213D01*
X78002786Y-34641971D01*
X78096879Y-34710332D01*
X78168390Y-34762287D01*
X78284607Y-34821503D01*
X78350776Y-34855218D01*
X78350778Y-34855218D01*
X78350781Y-34855220D01*
X78455137Y-34889127D01*
X78545465Y-34918477D01*
X78646557Y-34934488D01*
X78747648Y-34950500D01*
X78747649Y-34950500D01*
X78952351Y-34950500D01*
X78952352Y-34950500D01*
X79154534Y-34918477D01*
X79349219Y-34855220D01*
X79531610Y-34762287D01*
X79624590Y-34694732D01*
X79697213Y-34641971D01*
X79697215Y-34641968D01*
X79697219Y-34641966D01*
X79841966Y-34497219D01*
X79841968Y-34497215D01*
X79841971Y-34497213D01*
X79956191Y-34340000D01*
X79962287Y-34331610D01*
X80055220Y-34149219D01*
X80118477Y-33954534D01*
X80150500Y-33752352D01*
X80150500Y-33547648D01*
X80142830Y-33499223D01*
X80118477Y-33345465D01*
X80094312Y-33271095D01*
X80083445Y-33237648D01*
X107699500Y-33237648D01*
X107699500Y-33442352D01*
X107703878Y-33469995D01*
X107731522Y-33644534D01*
X107794781Y-33839223D01*
X107853536Y-33954534D01*
X107882961Y-34012284D01*
X107887715Y-34021613D01*
X108008028Y-34187213D01*
X108152786Y-34331971D01*
X108307749Y-34444556D01*
X108318390Y-34452287D01*
X108406574Y-34497219D01*
X108500776Y-34545218D01*
X108500778Y-34545218D01*
X108500781Y-34545220D01*
X108605137Y-34579127D01*
X108695465Y-34608477D01*
X108796557Y-34624488D01*
X108897648Y-34640500D01*
X108897649Y-34640500D01*
X109102351Y-34640500D01*
X109102352Y-34640500D01*
X109304534Y-34608477D01*
X109499219Y-34545220D01*
X109681610Y-34452287D01*
X109774590Y-34384732D01*
X109847213Y-34331971D01*
X109847215Y-34331968D01*
X109847219Y-34331966D01*
X109991966Y-34187219D01*
X109991968Y-34187215D01*
X109991971Y-34187213D01*
X110051879Y-34104755D01*
X110112287Y-34021610D01*
X110205220Y-33839219D01*
X110268477Y-33644534D01*
X110300500Y-33442352D01*
X110300500Y-33237648D01*
X110268477Y-33035466D01*
X110205220Y-32840781D01*
X110205218Y-32840778D01*
X110205218Y-32840776D01*
X110131178Y-32695466D01*
X110112287Y-32658390D01*
X110104556Y-32647749D01*
X109991971Y-32492786D01*
X109896833Y-32397648D01*
X126199500Y-32397648D01*
X126199500Y-32602351D01*
X126231522Y-32804534D01*
X126294781Y-32999223D01*
X126322893Y-33054394D01*
X126372003Y-33150778D01*
X126387715Y-33181613D01*
X126508028Y-33347213D01*
X126573134Y-33412319D01*
X126606619Y-33473642D01*
X126601635Y-33543334D01*
X126573134Y-33587681D01*
X126508032Y-33652782D01*
X126508028Y-33652786D01*
X126387715Y-33818386D01*
X126294781Y-34000776D01*
X126231522Y-34195465D01*
X126199500Y-34397648D01*
X126199500Y-34602351D01*
X126231522Y-34804534D01*
X126294781Y-34999223D01*
X126387715Y-35181613D01*
X126508028Y-35347213D01*
X126652786Y-35491971D01*
X126765798Y-35574077D01*
X126818390Y-35612287D01*
X126897864Y-35652781D01*
X127000776Y-35705218D01*
X127000778Y-35705218D01*
X127000781Y-35705220D01*
X127059676Y-35724356D01*
X127195465Y-35768477D01*
X127230822Y-35774077D01*
X127397648Y-35800500D01*
X127397649Y-35800500D01*
X127602351Y-35800500D01*
X127602352Y-35800500D01*
X127804534Y-35768477D01*
X127999219Y-35705220D01*
X128181610Y-35612287D01*
X128274590Y-35544732D01*
X128347213Y-35491971D01*
X128347215Y-35491968D01*
X128347219Y-35491966D01*
X128491966Y-35347219D01*
X128491968Y-35347215D01*
X128491971Y-35347213D01*
X128576024Y-35231522D01*
X128612287Y-35181610D01*
X128705220Y-34999219D01*
X128768477Y-34804534D01*
X128800500Y-34602352D01*
X128800500Y-34397648D01*
X128768477Y-34195466D01*
X128765797Y-34187219D01*
X128739003Y-34104755D01*
X128705220Y-34000781D01*
X128705218Y-34000778D01*
X128705218Y-34000776D01*
X128646643Y-33885818D01*
X128612287Y-33818390D01*
X128564308Y-33752352D01*
X128491971Y-33652786D01*
X128426866Y-33587681D01*
X128393381Y-33526358D01*
X128398365Y-33456666D01*
X128426866Y-33412319D01*
X128449185Y-33390000D01*
X128491966Y-33347219D01*
X128491968Y-33347215D01*
X128491971Y-33347213D01*
X128584337Y-33220080D01*
X128612287Y-33181610D01*
X128703624Y-33002351D01*
X128705218Y-32999223D01*
X128705218Y-32999222D01*
X128705220Y-32999219D01*
X128738222Y-32897648D01*
X141619500Y-32897648D01*
X141619500Y-33102351D01*
X141651522Y-33304534D01*
X141714781Y-33499223D01*
X141778691Y-33624653D01*
X141793026Y-33652786D01*
X141807715Y-33681613D01*
X141928028Y-33847213D01*
X142072786Y-33991971D01*
X142227749Y-34104556D01*
X142238390Y-34112287D01*
X142347713Y-34167990D01*
X142420776Y-34205218D01*
X142420778Y-34205218D01*
X142420781Y-34205220D01*
X142525137Y-34239127D01*
X142615465Y-34268477D01*
X142716557Y-34284488D01*
X142817648Y-34300500D01*
X142817649Y-34300500D01*
X143022351Y-34300500D01*
X143022352Y-34300500D01*
X143224534Y-34268477D01*
X143419219Y-34205220D01*
X143601610Y-34112287D01*
X143726413Y-34021613D01*
X143767213Y-33991971D01*
X143767215Y-33991968D01*
X143767219Y-33991966D01*
X143911966Y-33847219D01*
X143911968Y-33847215D01*
X143911971Y-33847213D01*
X143980891Y-33752351D01*
X144032287Y-33681610D01*
X144125220Y-33499219D01*
X144188477Y-33304534D01*
X144220500Y-33102352D01*
X144220500Y-32897648D01*
X151779500Y-32897648D01*
X151779500Y-33102351D01*
X151811522Y-33304534D01*
X151874781Y-33499223D01*
X151938691Y-33624653D01*
X151953026Y-33652786D01*
X151967715Y-33681613D01*
X152088028Y-33847213D01*
X152232786Y-33991971D01*
X152387749Y-34104556D01*
X152398390Y-34112287D01*
X152507713Y-34167990D01*
X152580776Y-34205218D01*
X152580778Y-34205218D01*
X152580781Y-34205220D01*
X152685137Y-34239127D01*
X152775465Y-34268477D01*
X152876557Y-34284488D01*
X152977648Y-34300500D01*
X152977649Y-34300500D01*
X153182351Y-34300500D01*
X153182352Y-34300500D01*
X153384534Y-34268477D01*
X153579219Y-34205220D01*
X153761610Y-34112287D01*
X153886413Y-34021613D01*
X153927213Y-33991971D01*
X153927215Y-33991968D01*
X153927219Y-33991966D01*
X154071966Y-33847219D01*
X154071968Y-33847215D01*
X154071971Y-33847213D01*
X154140891Y-33752351D01*
X154192287Y-33681610D01*
X154285220Y-33499219D01*
X154348477Y-33304534D01*
X154380500Y-33102352D01*
X154380500Y-32897648D01*
X154364661Y-32797648D01*
X161969500Y-32797648D01*
X161969500Y-33002351D01*
X162001522Y-33204534D01*
X162064781Y-33399223D01*
X162120224Y-33508034D01*
X162157585Y-33581359D01*
X162157715Y-33581613D01*
X162278028Y-33747213D01*
X162422786Y-33891971D01*
X162543226Y-33979474D01*
X162588390Y-34012287D01*
X162704607Y-34071503D01*
X162770776Y-34105218D01*
X162770778Y-34105218D01*
X162770781Y-34105220D01*
X162875137Y-34139127D01*
X162965465Y-34168477D01*
X163066557Y-34184488D01*
X163167648Y-34200500D01*
X163167649Y-34200500D01*
X163372351Y-34200500D01*
X163372352Y-34200500D01*
X163574534Y-34168477D01*
X163769219Y-34105220D01*
X163951610Y-34012287D01*
X164044590Y-33944732D01*
X164117213Y-33891971D01*
X164117215Y-33891968D01*
X164117219Y-33891966D01*
X164261966Y-33747219D01*
X164261968Y-33747215D01*
X164261971Y-33747213D01*
X164330578Y-33652782D01*
X164382287Y-33581610D01*
X164475220Y-33399219D01*
X164538477Y-33204534D01*
X164570500Y-33002352D01*
X164570500Y-32797682D01*
X172130000Y-32797682D01*
X172130000Y-33002317D01*
X172162009Y-33204417D01*
X172225244Y-33399031D01*
X172318141Y-33581350D01*
X172318147Y-33581359D01*
X172350523Y-33625921D01*
X172350524Y-33625922D01*
X173030000Y-32946446D01*
X173030000Y-32952661D01*
X173057259Y-33054394D01*
X173109920Y-33145606D01*
X173184394Y-33220080D01*
X173275606Y-33272741D01*
X173377339Y-33300000D01*
X173383553Y-33300000D01*
X172704076Y-33979474D01*
X172748650Y-34011859D01*
X172930968Y-34104755D01*
X173125582Y-34167990D01*
X173327683Y-34200000D01*
X173532317Y-34200000D01*
X173734417Y-34167990D01*
X173929031Y-34104755D01*
X174111349Y-34011859D01*
X174155921Y-33979474D01*
X173476447Y-33300000D01*
X173482661Y-33300000D01*
X173584394Y-33272741D01*
X173675606Y-33220080D01*
X173750080Y-33145606D01*
X173802741Y-33054394D01*
X173830000Y-32952661D01*
X173830000Y-32946447D01*
X174509474Y-33625921D01*
X174541859Y-33581349D01*
X174634755Y-33399031D01*
X174697990Y-33204417D01*
X174716110Y-33090014D01*
X183300000Y-33090014D01*
X183300000Y-33840000D01*
X184345879Y-33840000D01*
X184326901Y-33885818D01*
X184300000Y-34021056D01*
X184300000Y-34158944D01*
X184326901Y-34294182D01*
X184345879Y-34340000D01*
X183300000Y-34340000D01*
X183300000Y-35089985D01*
X183310493Y-35192689D01*
X183310494Y-35192696D01*
X183365641Y-35359118D01*
X183365643Y-35359123D01*
X183457684Y-35508344D01*
X183581655Y-35632315D01*
X183730876Y-35724356D01*
X183730881Y-35724358D01*
X183897303Y-35779505D01*
X183897310Y-35779506D01*
X184000014Y-35789999D01*
X184000027Y-35790000D01*
X184750000Y-35790000D01*
X184750000Y-34744120D01*
X184795818Y-34763099D01*
X184931056Y-34790000D01*
X185068944Y-34790000D01*
X185204182Y-34763099D01*
X185250000Y-34744120D01*
X185250000Y-35790000D01*
X185999973Y-35790000D01*
X185999985Y-35789999D01*
X186102689Y-35779506D01*
X186102696Y-35779505D01*
X186269118Y-35724358D01*
X186269123Y-35724356D01*
X186418344Y-35632315D01*
X186542315Y-35508344D01*
X186634356Y-35359123D01*
X186634358Y-35359118D01*
X186689505Y-35192696D01*
X186689506Y-35192689D01*
X186699999Y-35089985D01*
X186700000Y-35089972D01*
X186700000Y-34340000D01*
X185654121Y-34340000D01*
X185673099Y-34294182D01*
X185700000Y-34158944D01*
X185700000Y-34021056D01*
X185673099Y-33885818D01*
X185654121Y-33840000D01*
X186700000Y-33840000D01*
X186700000Y-33090027D01*
X186699999Y-33090014D01*
X186689506Y-32987310D01*
X186689505Y-32987303D01*
X186634358Y-32820881D01*
X186634356Y-32820876D01*
X186542315Y-32671655D01*
X186418344Y-32547684D01*
X186269123Y-32455643D01*
X186269118Y-32455641D01*
X186102696Y-32400494D01*
X186102689Y-32400493D01*
X185999985Y-32390000D01*
X185250000Y-32390000D01*
X185250000Y-33435879D01*
X185204182Y-33416901D01*
X185068944Y-33390000D01*
X184931056Y-33390000D01*
X184795818Y-33416901D01*
X184750000Y-33435879D01*
X184750000Y-32390000D01*
X184000014Y-32390000D01*
X183897310Y-32400493D01*
X183897303Y-32400494D01*
X183730881Y-32455641D01*
X183730876Y-32455643D01*
X183581655Y-32547684D01*
X183457684Y-32671655D01*
X183365643Y-32820876D01*
X183365641Y-32820881D01*
X183310494Y-32987303D01*
X183310493Y-32987310D01*
X183300000Y-33090014D01*
X174716110Y-33090014D01*
X174719681Y-33067467D01*
X174730000Y-33002317D01*
X174730000Y-32797682D01*
X174697990Y-32595582D01*
X174634755Y-32400968D01*
X174541859Y-32218650D01*
X174509474Y-32174077D01*
X174509474Y-32174076D01*
X173830000Y-32853551D01*
X173830000Y-32847339D01*
X173802741Y-32745606D01*
X173750080Y-32654394D01*
X173675606Y-32579920D01*
X173584394Y-32527259D01*
X173482661Y-32500000D01*
X173476446Y-32500000D01*
X174155922Y-31820524D01*
X174155921Y-31820523D01*
X174111359Y-31788147D01*
X174111350Y-31788141D01*
X173929031Y-31695244D01*
X173734417Y-31632009D01*
X173532317Y-31600000D01*
X173327683Y-31600000D01*
X173125582Y-31632009D01*
X172930968Y-31695244D01*
X172748644Y-31788143D01*
X172704077Y-31820523D01*
X172704077Y-31820524D01*
X173383554Y-32500000D01*
X173377339Y-32500000D01*
X173275606Y-32527259D01*
X173184394Y-32579920D01*
X173109920Y-32654394D01*
X173057259Y-32745606D01*
X173030000Y-32847339D01*
X173030000Y-32853553D01*
X172350524Y-32174077D01*
X172350523Y-32174077D01*
X172318143Y-32218644D01*
X172225244Y-32400968D01*
X172162009Y-32595582D01*
X172130000Y-32797682D01*
X164570500Y-32797682D01*
X164570500Y-32797648D01*
X164548386Y-32658028D01*
X164538477Y-32595465D01*
X164489516Y-32444780D01*
X164475220Y-32400781D01*
X164475218Y-32400778D01*
X164475218Y-32400776D01*
X164441503Y-32334607D01*
X164382287Y-32218390D01*
X164350092Y-32174077D01*
X164261971Y-32052786D01*
X164117213Y-31908028D01*
X163951613Y-31787715D01*
X163951612Y-31787714D01*
X163951610Y-31787713D01*
X163894653Y-31758691D01*
X163769223Y-31694781D01*
X163574534Y-31631522D01*
X163399995Y-31603878D01*
X163372352Y-31599500D01*
X163167648Y-31599500D01*
X163143329Y-31603351D01*
X162965465Y-31631522D01*
X162770776Y-31694781D01*
X162588386Y-31787715D01*
X162422786Y-31908028D01*
X162278028Y-32052786D01*
X162157715Y-32218386D01*
X162064781Y-32400776D01*
X162001522Y-32595465D01*
X161969500Y-32797648D01*
X154364661Y-32797648D01*
X154348477Y-32695466D01*
X154340740Y-32671655D01*
X154300057Y-32546446D01*
X154285220Y-32500781D01*
X154285218Y-32500778D01*
X154285218Y-32500776D01*
X154251503Y-32434607D01*
X154192287Y-32318390D01*
X154184556Y-32307749D01*
X154071971Y-32152786D01*
X153927213Y-32008028D01*
X153761613Y-31887715D01*
X153761612Y-31887714D01*
X153761610Y-31887713D01*
X153704653Y-31858691D01*
X153579223Y-31794781D01*
X153384534Y-31731522D01*
X153209995Y-31703878D01*
X153182352Y-31699500D01*
X152977648Y-31699500D01*
X152953329Y-31703351D01*
X152775465Y-31731522D01*
X152580776Y-31794781D01*
X152398386Y-31887715D01*
X152232786Y-32008028D01*
X152088028Y-32152786D01*
X151967715Y-32318386D01*
X151874781Y-32500776D01*
X151811522Y-32695465D01*
X151779500Y-32897648D01*
X144220500Y-32897648D01*
X144188477Y-32695466D01*
X144180740Y-32671655D01*
X144140057Y-32546446D01*
X144125220Y-32500781D01*
X144125218Y-32500778D01*
X144125218Y-32500776D01*
X144091503Y-32434607D01*
X144032287Y-32318390D01*
X144024556Y-32307749D01*
X143911971Y-32152786D01*
X143767213Y-32008028D01*
X143601613Y-31887715D01*
X143601612Y-31887714D01*
X143601610Y-31887713D01*
X143544653Y-31858691D01*
X143419223Y-31794781D01*
X143224534Y-31731522D01*
X143049995Y-31703878D01*
X143022352Y-31699500D01*
X142817648Y-31699500D01*
X142793329Y-31703351D01*
X142615465Y-31731522D01*
X142420776Y-31794781D01*
X142238386Y-31887715D01*
X142072786Y-32008028D01*
X141928028Y-32152786D01*
X141807715Y-32318386D01*
X141714781Y-32500776D01*
X141651522Y-32695465D01*
X141619500Y-32897648D01*
X128738222Y-32897648D01*
X128768477Y-32804534D01*
X128800500Y-32602352D01*
X128800500Y-32397648D01*
X128768477Y-32195466D01*
X128761527Y-32174077D01*
X128722116Y-32052781D01*
X128705220Y-32000781D01*
X128705218Y-32000778D01*
X128705218Y-32000776D01*
X128647610Y-31887715D01*
X128612287Y-31818390D01*
X128595134Y-31794781D01*
X128491971Y-31652786D01*
X128347213Y-31508028D01*
X128181613Y-31387715D01*
X128181612Y-31387714D01*
X128181610Y-31387713D01*
X128124653Y-31358691D01*
X127999223Y-31294781D01*
X127804534Y-31231522D01*
X127629995Y-31203878D01*
X127602352Y-31199500D01*
X127397648Y-31199500D01*
X127373329Y-31203351D01*
X127195465Y-31231522D01*
X127000776Y-31294781D01*
X126818386Y-31387715D01*
X126652786Y-31508028D01*
X126508028Y-31652786D01*
X126387715Y-31818386D01*
X126294781Y-32000776D01*
X126231522Y-32195465D01*
X126199500Y-32397648D01*
X109896833Y-32397648D01*
X109847213Y-32348028D01*
X109681613Y-32227715D01*
X109681612Y-32227714D01*
X109681610Y-32227713D01*
X109576342Y-32174076D01*
X109499223Y-32134781D01*
X109304534Y-32071522D01*
X109129995Y-32043878D01*
X109102352Y-32039500D01*
X108897648Y-32039500D01*
X108873329Y-32043351D01*
X108695465Y-32071522D01*
X108500776Y-32134781D01*
X108318386Y-32227715D01*
X108152786Y-32348028D01*
X108008028Y-32492786D01*
X107887715Y-32658386D01*
X107794781Y-32840776D01*
X107731522Y-33035465D01*
X107699500Y-33237648D01*
X80083445Y-33237648D01*
X80055220Y-33150781D01*
X79962287Y-32968390D01*
X79912600Y-32900001D01*
X79841971Y-32802786D01*
X79697213Y-32658028D01*
X79531613Y-32537715D01*
X79531612Y-32537714D01*
X79531610Y-32537713D01*
X79443436Y-32492786D01*
X79349223Y-32444781D01*
X79154534Y-32381522D01*
X78979995Y-32353878D01*
X78952352Y-32349500D01*
X78747648Y-32349500D01*
X78723329Y-32353351D01*
X78545465Y-32381522D01*
X78350776Y-32444781D01*
X78168386Y-32537715D01*
X78002786Y-32658028D01*
X77858028Y-32802786D01*
X77737715Y-32968386D01*
X77644781Y-33150776D01*
X77581522Y-33345465D01*
X77549500Y-33547648D01*
X59300500Y-33547648D01*
X59300500Y-28888575D01*
X64190000Y-28888575D01*
X64190000Y-29111424D01*
X64219085Y-29332354D01*
X64219088Y-29332367D01*
X64276763Y-29547618D01*
X64362045Y-29753502D01*
X64362054Y-29753520D01*
X64473464Y-29946491D01*
X64473473Y-29946504D01*
X64524040Y-30012403D01*
X64524043Y-30012403D01*
X65250689Y-29285756D01*
X65269668Y-29331574D01*
X65346274Y-29446224D01*
X65443776Y-29543726D01*
X65558426Y-29620332D01*
X65604242Y-29639309D01*
X64877595Y-30365955D01*
X64877595Y-30365956D01*
X64943507Y-30416533D01*
X65136485Y-30527949D01*
X65136497Y-30527954D01*
X65342381Y-30613236D01*
X65557632Y-30670911D01*
X65557645Y-30670914D01*
X65778575Y-30700000D01*
X66001425Y-30700000D01*
X66222354Y-30670914D01*
X66222367Y-30670911D01*
X66437618Y-30613236D01*
X66643502Y-30527954D01*
X66643514Y-30527949D01*
X66836498Y-30416530D01*
X66902403Y-30365957D01*
X66902404Y-30365956D01*
X66175757Y-29639309D01*
X66221574Y-29620332D01*
X66336224Y-29543726D01*
X66433726Y-29446224D01*
X66510332Y-29331574D01*
X66529309Y-29285757D01*
X67255956Y-30012404D01*
X67255957Y-30012403D01*
X67306530Y-29946498D01*
X67417949Y-29753514D01*
X67417954Y-29753502D01*
X67503236Y-29547618D01*
X67560911Y-29332367D01*
X67560914Y-29332354D01*
X67590000Y-29111424D01*
X67590000Y-28888575D01*
X67560914Y-28667645D01*
X67560911Y-28667632D01*
X67503236Y-28452381D01*
X67417954Y-28246497D01*
X67417949Y-28246485D01*
X67309610Y-28058835D01*
X67306533Y-28053506D01*
X67265463Y-27999984D01*
X68149500Y-27999984D01*
X68149500Y-30000015D01*
X68160000Y-30102795D01*
X68160001Y-30102796D01*
X68215186Y-30269335D01*
X68215187Y-30269337D01*
X68307286Y-30418651D01*
X68307289Y-30418655D01*
X68431344Y-30542710D01*
X68431348Y-30542713D01*
X68580662Y-30634812D01*
X68580664Y-30634813D01*
X68580666Y-30634814D01*
X68747203Y-30689999D01*
X68849992Y-30700500D01*
X68849997Y-30700500D01*
X70850003Y-30700500D01*
X70850008Y-30700500D01*
X70952797Y-30689999D01*
X71119334Y-30634814D01*
X71268655Y-30542711D01*
X71392711Y-30418655D01*
X71484814Y-30269334D01*
X71539999Y-30102797D01*
X71550500Y-30000008D01*
X71550500Y-28897648D01*
X141699500Y-28897648D01*
X141699500Y-29102351D01*
X141731522Y-29304534D01*
X141794781Y-29499223D01*
X141856490Y-29620332D01*
X141883376Y-29673099D01*
X141887715Y-29681613D01*
X142008028Y-29847213D01*
X142152786Y-29991971D01*
X142305325Y-30102795D01*
X142318390Y-30112287D01*
X142434607Y-30171503D01*
X142500776Y-30205218D01*
X142500778Y-30205218D01*
X142500781Y-30205220D01*
X142605137Y-30239127D01*
X142695465Y-30268477D01*
X142796557Y-30284488D01*
X142897648Y-30300500D01*
X142897649Y-30300500D01*
X143102351Y-30300500D01*
X143102352Y-30300500D01*
X143304534Y-30268477D01*
X143499219Y-30205220D01*
X143681610Y-30112287D01*
X143774590Y-30044732D01*
X143847213Y-29991971D01*
X143847215Y-29991968D01*
X143847219Y-29991966D01*
X143991966Y-29847219D01*
X143991968Y-29847215D01*
X143991971Y-29847213D01*
X144060055Y-29753502D01*
X144112287Y-29681610D01*
X144205220Y-29499219D01*
X144268477Y-29304534D01*
X144300500Y-29102352D01*
X144300500Y-28897648D01*
X151859500Y-28897648D01*
X151859500Y-29102351D01*
X151891522Y-29304534D01*
X151954781Y-29499223D01*
X152016490Y-29620332D01*
X152043376Y-29673099D01*
X152047715Y-29681613D01*
X152168028Y-29847213D01*
X152312786Y-29991971D01*
X152465325Y-30102795D01*
X152478390Y-30112287D01*
X152594607Y-30171503D01*
X152660776Y-30205218D01*
X152660778Y-30205218D01*
X152660781Y-30205220D01*
X152765137Y-30239127D01*
X152855465Y-30268477D01*
X152956557Y-30284488D01*
X153057648Y-30300500D01*
X153057649Y-30300500D01*
X153262351Y-30300500D01*
X153262352Y-30300500D01*
X153464534Y-30268477D01*
X153659219Y-30205220D01*
X153841610Y-30112287D01*
X153934590Y-30044732D01*
X154007213Y-29991971D01*
X154007215Y-29991968D01*
X154007219Y-29991966D01*
X154151966Y-29847219D01*
X154151968Y-29847215D01*
X154151971Y-29847213D01*
X154220055Y-29753502D01*
X154272287Y-29681610D01*
X154365220Y-29499219D01*
X154428477Y-29304534D01*
X154460500Y-29102352D01*
X154460500Y-28897648D01*
X154459063Y-28888575D01*
X154428477Y-28695465D01*
X154365218Y-28500776D01*
X154331503Y-28434607D01*
X154272287Y-28318390D01*
X154258926Y-28300000D01*
X154151971Y-28152786D01*
X154007213Y-28008028D01*
X153841613Y-27887715D01*
X153841612Y-27887714D01*
X153841610Y-27887713D01*
X153784653Y-27858691D01*
X153659223Y-27794781D01*
X153464534Y-27731522D01*
X153289995Y-27703878D01*
X153262352Y-27699500D01*
X153057648Y-27699500D01*
X153033329Y-27703351D01*
X152855465Y-27731522D01*
X152660776Y-27794781D01*
X152478386Y-27887715D01*
X152312786Y-28008028D01*
X152168028Y-28152786D01*
X152047715Y-28318386D01*
X151954781Y-28500776D01*
X151891522Y-28695465D01*
X151859500Y-28897648D01*
X144300500Y-28897648D01*
X144299063Y-28888575D01*
X144268477Y-28695465D01*
X144205218Y-28500776D01*
X144171503Y-28434607D01*
X144112287Y-28318390D01*
X144098926Y-28300000D01*
X143991971Y-28152786D01*
X143847213Y-28008028D01*
X143681613Y-27887715D01*
X143681612Y-27887714D01*
X143681610Y-27887713D01*
X143624653Y-27858691D01*
X143499223Y-27794781D01*
X143304534Y-27731522D01*
X143129995Y-27703878D01*
X143102352Y-27699500D01*
X142897648Y-27699500D01*
X142873329Y-27703351D01*
X142695465Y-27731522D01*
X142500776Y-27794781D01*
X142318386Y-27887715D01*
X142152786Y-28008028D01*
X142008028Y-28152786D01*
X141887715Y-28318386D01*
X141794781Y-28500776D01*
X141731522Y-28695465D01*
X141699500Y-28897648D01*
X71550500Y-28897648D01*
X71550500Y-27999992D01*
X71539999Y-27897203D01*
X71484814Y-27730666D01*
X71465590Y-27699500D01*
X71392713Y-27581348D01*
X71392710Y-27581344D01*
X71268655Y-27457289D01*
X71268651Y-27457286D01*
X71119337Y-27365187D01*
X71119335Y-27365186D01*
X71036065Y-27337593D01*
X70952797Y-27310001D01*
X70952795Y-27310000D01*
X70850015Y-27299500D01*
X70850008Y-27299500D01*
X68849992Y-27299500D01*
X68849984Y-27299500D01*
X68747204Y-27310000D01*
X68747203Y-27310001D01*
X68580664Y-27365186D01*
X68580662Y-27365187D01*
X68431348Y-27457286D01*
X68431344Y-27457289D01*
X68307289Y-27581344D01*
X68307286Y-27581348D01*
X68215187Y-27730662D01*
X68215186Y-27730664D01*
X68160001Y-27897203D01*
X68160000Y-27897204D01*
X68149500Y-27999984D01*
X67265463Y-27999984D01*
X67255956Y-27987595D01*
X67255955Y-27987595D01*
X66529309Y-28714242D01*
X66510332Y-28668426D01*
X66433726Y-28553776D01*
X66336224Y-28456274D01*
X66221574Y-28379668D01*
X66175756Y-28360689D01*
X66902403Y-27634043D01*
X66902403Y-27634040D01*
X66836504Y-27583473D01*
X66836491Y-27583464D01*
X66643520Y-27472054D01*
X66643502Y-27472045D01*
X66437618Y-27386763D01*
X66222367Y-27329088D01*
X66222354Y-27329085D01*
X66001425Y-27300000D01*
X65778575Y-27300000D01*
X65557645Y-27329085D01*
X65557632Y-27329088D01*
X65342381Y-27386763D01*
X65136497Y-27472045D01*
X65136479Y-27472054D01*
X64943511Y-27583462D01*
X64877595Y-27634042D01*
X65604243Y-28360689D01*
X65558426Y-28379668D01*
X65443776Y-28456274D01*
X65346274Y-28553776D01*
X65269668Y-28668426D01*
X65250690Y-28714243D01*
X64524042Y-27987595D01*
X64473462Y-28053511D01*
X64362054Y-28246479D01*
X64362045Y-28246497D01*
X64276763Y-28452381D01*
X64219088Y-28667632D01*
X64219085Y-28667645D01*
X64190000Y-28888575D01*
X59300500Y-28888575D01*
X59300500Y-24774500D01*
X59320185Y-24707461D01*
X59372989Y-24661706D01*
X59424500Y-24650500D01*
X189025500Y-24650500D01*
X189092539Y-24670185D01*
G37*
%TD.AperFunction*%
%TD*%
M02*
