M48
; DRILL file {KiCad 9.0.8-1.fc43} date 2026-05-27T22:05:56-0400
; FORMAT={-:-/ absolute / metric / decimal}
; #@! TF.CreationDate,2026-05-27T22:05:56-04:00
; #@! TF.GenerationSoftware,Kicad,Pcbnew,9.0.8-1.fc43
; #@! TF.FileFunction,Plated,1,2,PTH
FMAT,2
METRIC
; #@! TA.AperFunction,Plated,PTH,ComponentDrill
T1C0.750
; #@! TA.AperFunction,Plated,PTH,ComponentDrill
T2C0.800
; #@! TA.AperFunction,Plated,PTH,ComponentDrill
T3C1.200
%
G90
G05
T1
X86.85Y-87.4
X86.85Y-88.67
X86.85Y-89.94
X133.1Y-82.73
X133.1Y-84.0
X133.1Y-85.27
X147.85Y-83.68
X147.85Y-91.3
T2
X51.85Y-86.35
X51.85Y-93.97
X66.85Y-67.5
X66.85Y-70.0
X66.9Y-73.8
X66.9Y-81.42
X67.0Y-101.65
X67.0Y-109.27
X74.2Y-102.06
X79.1Y-70.1
X79.2Y-102.06
X81.6Y-70.1
X100.4Y-88.65
X100.4Y-91.15
X105.8Y-85.4
X108.3Y-85.4
X110.4Y-90.6
X110.4Y-95.6
X117.55Y-89.23
X117.55Y-96.85
X123.11Y-82.65
X125.65Y-82.65
X128.19Y-82.65
X136.45Y-93.2
X138.95Y-93.2
X151.75Y-83.75
X151.75Y-91.3
X154.25Y-83.75
X154.25Y-91.3
T3
X72.4Y-81.45
X72.4Y-94.15
X74.16Y-109.26
X76.7Y-109.26
X86.8Y-70.1
X86.8Y-82.8
X93.25Y-88.6
X93.25Y-101.3
X93.5Y-70.05
X93.5Y-82.75
X99.6Y-70.1
X112.3Y-70.1
X122.86Y-89.15
X123.7Y-75.25
X125.4Y-89.15
X126.25Y-99.8
X136.4Y-75.25
X138.95Y-99.8
X141.0Y-72.55
X141.0Y-85.25
X151.75Y-65.95
X151.75Y-78.65
X157.8Y-72.6
X157.8Y-75.14
X157.8Y-96.65
X157.8Y-99.19
M30
