%TF.GenerationSoftware,KiCad,Pcbnew,9.0.8-1.fc43*%
%TF.CreationDate,2026-05-27T22:06:00-04:00*%
%TF.ProjectId,Detector,44657465-6374-46f7-922e-6b696361645f,rev?*%
%TF.SameCoordinates,Original*%
%TF.FileFunction,Copper,L1,Top*%
%TF.FilePolarity,Positive*%
%FSLAX46Y46*%
G04 Gerber Fmt 4.6, Leading zero omitted, Abs format (unit mm)*
G04 Created by KiCad (PCBNEW 9.0.8-1.fc43) date 2026-05-27 22:06:00*
%MOMM*%
%LPD*%
G01*
G04 APERTURE LIST*
G04 Aperture macros list*
%AMRoundRect*
0 Rectangle with rounded corners*
0 $1 Rounding radius*
0 $2 $3 $4 $5 $6 $7 $8 $9 X,Y pos of 4 corners*
0 Add a 4 corners polygon primitive as box body*
4,1,4,$2,$3,$4,$5,$6,$7,$8,$9,$2,$3,0*
0 Add four circle primitives for the rounded corners*
1,1,$1+$1,$2,$3*
1,1,$1+$1,$4,$5*
1,1,$1+$1,$6,$7*
1,1,$1+$1,$8,$9*
0 Add four rect primitives between the rounded corners*
20,1,$1+$1,$2,$3,$4,$5,0*
20,1,$1+$1,$4,$5,$6,$7,0*
20,1,$1+$1,$6,$7,$8,$9,0*
20,1,$1+$1,$8,$9,$2,$3,0*%
G04 Aperture macros list end*
%TA.AperFunction,ComponentPad*%
%ADD10C,1.600000*%
%TD*%
%TA.AperFunction,ComponentPad*%
%ADD11RoundRect,0.250000X-0.750000X0.750000X-0.750000X-0.750000X0.750000X-0.750000X0.750000X0.750000X0*%
%TD*%
%TA.AperFunction,ComponentPad*%
%ADD12C,2.000000*%
%TD*%
%TA.AperFunction,ComponentPad*%
%ADD13C,2.400000*%
%TD*%
%TA.AperFunction,ComponentPad*%
%ADD14R,1.500000X1.050000*%
%TD*%
%TA.AperFunction,ComponentPad*%
%ADD15O,1.500000X1.050000*%
%TD*%
%TA.AperFunction,ComponentPad*%
%ADD16RoundRect,0.250001X-0.499999X0.499999X-0.499999X-0.499999X0.499999X-0.499999X0.499999X0.499999X0*%
%TD*%
%TA.AperFunction,ComponentPad*%
%ADD17C,1.500000*%
%TD*%
%TA.AperFunction,ComponentPad*%
%ADD18RoundRect,0.250000X-0.750000X-0.750000X0.750000X-0.750000X0.750000X0.750000X-0.750000X0.750000X0*%
%TD*%
%TA.AperFunction,ComponentPad*%
%ADD19O,1.200000X2.000000*%
%TD*%
G04 APERTURE END LIST*
D10*
%TO.P,C6,1*%
%TO.N,Net-(C6-Pad1)*%
X110400000Y-90600000D03*
%TO.P,C6,2*%
%TO.N,GND*%
X110400000Y-95600000D03*
%TD*%
%TO.P,C9,1*%
%TO.N,Net-(D1-K)*%
X151750000Y-83750000D03*
%TO.P,C9,2*%
%TO.N,GND*%
X154250000Y-83750000D03*
%TD*%
%TO.P,C11,1*%
%TO.N,Net-(D1-K)*%
X151750000Y-91300000D03*
%TO.P,C11,2*%
%TO.N,Net-(J3-Pin_1)*%
X154250000Y-91300000D03*
%TD*%
D11*
%TO.P,J2,1,Pin_1*%
%TO.N,Net-(J2-Pin_1)*%
X157800000Y-72600000D03*
D12*
%TO.P,J2,2,Pin_2*%
%TO.N,GND*%
X157800000Y-75140000D03*
%TD*%
D13*
%TO.P,R1,2*%
%TO.N,Net-(Q1-B)*%
X86800000Y-82800000D03*
%TO.P,R1,1*%
%TO.N,Net-(C4-Pad2)*%
X86800000Y-70100000D03*
%TD*%
D14*
%TO.P,Q1,1,C*%
%TO.N,Net-(J1-Pin_1)*%
X86850000Y-87400000D03*
D15*
%TO.P,Q1,2,B*%
%TO.N,Net-(Q1-B)*%
X86850000Y-88670000D03*
%TO.P,Q1,3,E*%
%TO.N,Net-(Q1-E)*%
X86850000Y-89940000D03*
%TD*%
D12*
%TO.P,J3,2,Pin_2*%
%TO.N,GND*%
X157800000Y-99190000D03*
D11*
%TO.P,J3,1,Pin_1*%
%TO.N,Net-(J3-Pin_1)*%
X157800000Y-96650000D03*
%TD*%
D13*
%TO.P,R6,2*%
%TO.N,Net-(Q2-C)*%
X136400000Y-75250000D03*
%TO.P,R6,1*%
%TO.N,Net-(J1-Pin_3)*%
X123700000Y-75250000D03*
%TD*%
D10*
%TO.P,C4,1*%
%TO.N,GND*%
X79100000Y-70100000D03*
%TO.P,C4,2*%
%TO.N,Net-(C4-Pad2)*%
X81600000Y-70100000D03*
%TD*%
%TO.P,C10,2*%
%TO.N,Net-(D1-A)*%
X138950000Y-93200000D03*
%TO.P,C10,1*%
%TO.N,Net-(Q2-C)*%
X136450000Y-93200000D03*
%TD*%
%TO.P,C5,1*%
%TO.N,GND*%
X100400000Y-91150000D03*
%TO.P,C5,2*%
%TO.N,Net-(Q1-E)*%
X100400000Y-88650000D03*
%TD*%
D16*
%TO.P,D1,1,K*%
%TO.N,Net-(D1-K)*%
X147850000Y-83680000D03*
D17*
%TO.P,D1,2,A*%
%TO.N,Net-(D1-A)*%
X147850000Y-91300000D03*
%TD*%
D13*
%TO.P,R4,2*%
%TO.N,Net-(C4-Pad2)*%
X93500000Y-70050000D03*
%TO.P,R4,1*%
%TO.N,Net-(J1-Pin_1)*%
X93500000Y-82750000D03*
%TD*%
%TO.P,R8,2*%
%TO.N,GND*%
X151750000Y-65950000D03*
%TO.P,R8,1*%
%TO.N,Net-(D1-K)*%
X151750000Y-78650000D03*
%TD*%
D15*
%TO.P,Q2,3,E*%
%TO.N,GND*%
X133100000Y-82730000D03*
%TO.P,Q2,2,B*%
%TO.N,Net-(J1-Pin_3)*%
X133100000Y-84000000D03*
D14*
%TO.P,Q2,1,C*%
%TO.N,Net-(Q2-C)*%
X133100000Y-85270000D03*
%TD*%
D13*
%TO.P,R5,2*%
%TO.N,Net-(J2-Pin_1)*%
X112300000Y-70100000D03*
%TO.P,R5,1*%
%TO.N,Net-(C4-Pad2)*%
X99600000Y-70100000D03*
%TD*%
D18*
%TO.P,C8,1*%
%TO.N,Net-(C6-Pad1)*%
X122860000Y-89150000D03*
D12*
%TO.P,C8,2*%
%TO.N,GND*%
X125400000Y-89150000D03*
%TD*%
D10*
%TO.P,C7,1*%
%TO.N,Net-(Q1-E)*%
X105800000Y-85400000D03*
%TO.P,C7,2*%
%TO.N,Net-(C6-Pad1)*%
X108300000Y-85400000D03*
%TD*%
%TO.P,L4,1,1*%
%TO.N,GND*%
X117550000Y-96850000D03*
%TO.P,L4,2,2*%
%TO.N,Net-(C6-Pad1)*%
X117550000Y-89230000D03*
%TD*%
D13*
%TO.P,R9,2*%
%TO.N,GND*%
X126250000Y-99800000D03*
%TO.P,R9,1*%
%TO.N,Net-(D1-A)*%
X138950000Y-99800000D03*
%TD*%
D19*
%TO.P,J1,1,Pin_1*%
%TO.N,Net-(J1-Pin_1)*%
X123110000Y-82650000D03*
%TO.P,J1,2,Pin_2*%
%TO.N,GND*%
X125650000Y-82650000D03*
%TO.P,J1,3,Pin_3*%
%TO.N,Net-(J1-Pin_3)*%
X128190000Y-82650000D03*
%TD*%
D13*
%TO.P,R7,2*%
%TO.N,Net-(J2-Pin_1)*%
X141000000Y-72550000D03*
%TO.P,R7,1*%
%TO.N,Net-(Q2-C)*%
X141000000Y-85250000D03*
%TD*%
%TO.P,R3,2*%
%TO.N,GND*%
X93250000Y-101300000D03*
%TO.P,R3,1*%
%TO.N,Net-(Q1-E)*%
X93250000Y-88600000D03*
%TD*%
D18*
%TO.P,C2,1*%
%TO.N,Net-(C1-Pad1)*%
X74160000Y-109260000D03*
D12*
%TO.P,C2,2*%
%TO.N,GND*%
X76700000Y-109260000D03*
%TD*%
D10*
%TO.P,C1,1*%
%TO.N,Net-(C1-Pad1)*%
X74200000Y-102060000D03*
%TO.P,C1,2*%
%TO.N,GND*%
X79200000Y-102060000D03*
%TD*%
D13*
%TO.P,R2,1*%
%TO.N,Net-(Q1-B)*%
X72400000Y-81450000D03*
%TO.P,R2,2*%
%TO.N,GND*%
X72400000Y-94150000D03*
%TD*%
D10*
%TO.P,L3,2,2*%
%TO.N,Net-(Q1-B)*%
X66900000Y-81420000D03*
%TO.P,L3,1,1*%
%TO.N,Net-(C3-Pad2)*%
X66900000Y-73800000D03*
%TD*%
%TO.P,L2,2,2*%
%TO.N,Net-(L2-Pad2)*%
X51850000Y-86350000D03*
%TO.P,L2,1,1*%
%TO.N,GND*%
X51850000Y-93970000D03*
%TD*%
%TO.P,L1,2,2*%
%TO.N,GND*%
X67000000Y-101650000D03*
%TO.P,L1,1,1*%
%TO.N,Net-(C1-Pad1)*%
X67000000Y-109270000D03*
%TD*%
%TO.P,C3,2*%
%TO.N,Net-(C3-Pad2)*%
X66850000Y-70000000D03*
%TO.P,C3,1*%
%TO.N,GND*%
X66850000Y-67500000D03*
%TD*%
%TA.AperFunction,Conductor*%
%TO.N,GND*%
G36*
X160042539Y-63520185D02*
G01*
X160088294Y-63572989D01*
X160099500Y-63624500D01*
X160099500Y-104175500D01*
X160079815Y-104242539D01*
X160027011Y-104288294D01*
X159975500Y-104299500D01*
X85834108Y-104299500D01*
X85706812Y-104333608D01*
X85592686Y-104399500D01*
X85592683Y-104399502D01*
X85499502Y-104492683D01*
X85499500Y-104492686D01*
X85433608Y-104606812D01*
X85399500Y-104734108D01*
X85399500Y-111027182D01*
X85379815Y-111094221D01*
X85327011Y-111139976D01*
X85275835Y-111151182D01*
X49474835Y-111247811D01*
X49407742Y-111228307D01*
X49361845Y-111175627D01*
X49350500Y-111123811D01*
X49350500Y-109167648D01*
X65699500Y-109167648D01*
X65699500Y-109372351D01*
X65731522Y-109574534D01*
X65794781Y-109769223D01*
X65887715Y-109951613D01*
X66008028Y-110117213D01*
X66152786Y-110261971D01*
X66301894Y-110370302D01*
X66318390Y-110382287D01*
X66434607Y-110441503D01*
X66500776Y-110475218D01*
X66500778Y-110475218D01*
X66500781Y-110475220D01*
X66605137Y-110509127D01*
X66695465Y-110538477D01*
X66796557Y-110554488D01*
X66897648Y-110570500D01*
X66897649Y-110570500D01*
X67102351Y-110570500D01*
X67102352Y-110570500D01*
X67304534Y-110538477D01*
X67499219Y-110475220D01*
X67681610Y-110382287D01*
X67774590Y-110314732D01*
X67847213Y-110261971D01*
X67847215Y-110261968D01*
X67847219Y-110261966D01*
X67991966Y-110117219D01*
X67991968Y-110117215D01*
X67991971Y-110117213D01*
X68079085Y-109997309D01*
X68112287Y-109951610D01*
X68205220Y-109769219D01*
X68268477Y-109574534D01*
X68300500Y-109372352D01*
X68300500Y-109167648D01*
X68268477Y-108965466D01*
X68205220Y-108770781D01*
X68205218Y-108770778D01*
X68205218Y-108770776D01*
X68123487Y-108610372D01*
X68112287Y-108588390D01*
X68104919Y-108578249D01*
X68069663Y-108529722D01*
X68069660Y-108529719D01*
X68029053Y-108473828D01*
X68018994Y-108459983D01*
X72659500Y-108459983D01*
X72659500Y-110060001D01*
X72659501Y-110060018D01*
X72670000Y-110162796D01*
X72670001Y-110162799D01*
X72702862Y-110261966D01*
X72725186Y-110329334D01*
X72817288Y-110478656D01*
X72941344Y-110602712D01*
X73090666Y-110694814D01*
X73257203Y-110749999D01*
X73359991Y-110760500D01*
X74960008Y-110760499D01*
X75062797Y-110749999D01*
X75229334Y-110694814D01*
X75378656Y-110602712D01*
X75502712Y-110478656D01*
X75594814Y-110329334D01*
X75649999Y-110162797D01*
X75660500Y-110060009D01*
X75660499Y-109997305D01*
X75680183Y-109930269D01*
X75696818Y-109909626D01*
X76135387Y-109471058D01*
X76140889Y-109491591D01*
X76219881Y-109628408D01*
X76331592Y-109740119D01*
X76468409Y-109819111D01*
X76488940Y-109824612D01*
X75830893Y-110482658D01*
X75913828Y-110542914D01*
X76124197Y-110650102D01*
X76348752Y-110723065D01*
X76348751Y-110723065D01*
X76581948Y-110760000D01*
X76818052Y-110760000D01*
X77051247Y-110723065D01*
X77275802Y-110650102D01*
X77486163Y-110542918D01*
X77486169Y-110542914D01*
X77569104Y-110482658D01*
X77569105Y-110482658D01*
X76911058Y-109824612D01*
X76931591Y-109819111D01*
X77068408Y-109740119D01*
X77180119Y-109628408D01*
X77259111Y-109491591D01*
X77264612Y-109471058D01*
X77922658Y-110129105D01*
X77922658Y-110129104D01*
X77982914Y-110046169D01*
X77982918Y-110046163D01*
X78090102Y-109835802D01*
X78163065Y-109611247D01*
X78200000Y-109378052D01*
X78200000Y-109141947D01*
X78163065Y-108908752D01*
X78090102Y-108684197D01*
X77982914Y-108473828D01*
X77922658Y-108390894D01*
X77922658Y-108390893D01*
X77264612Y-109048940D01*
X77259111Y-109028409D01*
X77180119Y-108891592D01*
X77068408Y-108779881D01*
X76931591Y-108700889D01*
X76911059Y-108695387D01*
X77569105Y-108037340D01*
X77569104Y-108037338D01*
X77486174Y-107977087D01*
X77275802Y-107869897D01*
X77051247Y-107796934D01*
X77051248Y-107796934D01*
X76818052Y-107760000D01*
X76581948Y-107760000D01*
X76348752Y-107796934D01*
X76124197Y-107869897D01*
X75913830Y-107977084D01*
X75830894Y-108037340D01*
X76488941Y-108695387D01*
X76468409Y-108700889D01*
X76331592Y-108779881D01*
X76219881Y-108891592D01*
X76140889Y-109028409D01*
X76135387Y-109048941D01*
X75696818Y-108610372D01*
X75663333Y-108549049D01*
X75660499Y-108522691D01*
X75660499Y-108459998D01*
X75660498Y-108459981D01*
X75649999Y-108357203D01*
X75649998Y-108357200D01*
X75623763Y-108278028D01*
X75594814Y-108190666D01*
X75502712Y-108041344D01*
X75378656Y-107917288D01*
X75229334Y-107825186D01*
X75062797Y-107770001D01*
X75062795Y-107770000D01*
X74960010Y-107759500D01*
X73359998Y-107759500D01*
X73359981Y-107759501D01*
X73257203Y-107770000D01*
X73257200Y-107770001D01*
X73090668Y-107825185D01*
X73090663Y-107825187D01*
X72941342Y-107917289D01*
X72817289Y-108041342D01*
X72725187Y-108190663D01*
X72725186Y-108190666D01*
X72670001Y-108357203D01*
X72670001Y-108357204D01*
X72670000Y-108357204D01*
X72659500Y-108459983D01*
X68018994Y-108459983D01*
X67991966Y-108422781D01*
X67847219Y-108278034D01*
X67847213Y-108278028D01*
X67681613Y-108157715D01*
X67681612Y-108157714D01*
X67681610Y-108157713D01*
X67624653Y-108128691D01*
X67499223Y-108064781D01*
X67304534Y-108001522D01*
X67129995Y-107973878D01*
X67102352Y-107969500D01*
X66897648Y-107969500D01*
X66873329Y-107973351D01*
X66695465Y-108001522D01*
X66500776Y-108064781D01*
X66318386Y-108157715D01*
X66152786Y-108278028D01*
X66008028Y-108422786D01*
X65887715Y-108588386D01*
X65794781Y-108770776D01*
X65731522Y-108965465D01*
X65699500Y-109167648D01*
X49350500Y-109167648D01*
X49350500Y-101547682D01*
X65700000Y-101547682D01*
X65700000Y-101752317D01*
X65732009Y-101954417D01*
X65795244Y-102149031D01*
X65888141Y-102331350D01*
X65888147Y-102331359D01*
X65920523Y-102375921D01*
X65920524Y-102375922D01*
X66600000Y-101696446D01*
X66600000Y-101702661D01*
X66627259Y-101804394D01*
X66679920Y-101895606D01*
X66754394Y-101970080D01*
X66845606Y-102022741D01*
X66947339Y-102050000D01*
X66953553Y-102050000D01*
X66274076Y-102729474D01*
X66318650Y-102761859D01*
X66500968Y-102854755D01*
X66695582Y-102917990D01*
X66897683Y-102950000D01*
X67102317Y-102950000D01*
X67304417Y-102917990D01*
X67499031Y-102854755D01*
X67681349Y-102761859D01*
X67725921Y-102729474D01*
X67046447Y-102050000D01*
X67052661Y-102050000D01*
X67154394Y-102022741D01*
X67245606Y-101970080D01*
X67320080Y-101895606D01*
X67372741Y-101804394D01*
X67400000Y-101702661D01*
X67400000Y-101696447D01*
X68079474Y-102375921D01*
X68111859Y-102331349D01*
X68204755Y-102149031D01*
X68266940Y-101957648D01*
X72899500Y-101957648D01*
X72899500Y-102162351D01*
X72931522Y-102364534D01*
X72994781Y-102559223D01*
X73049165Y-102665955D01*
X73087585Y-102741359D01*
X73087715Y-102741613D01*
X73208028Y-102907213D01*
X73352786Y-103051971D01*
X73473226Y-103139474D01*
X73518390Y-103172287D01*
X73634607Y-103231503D01*
X73700776Y-103265218D01*
X73700778Y-103265218D01*
X73700781Y-103265220D01*
X73805137Y-103299127D01*
X73895465Y-103328477D01*
X73996557Y-103344488D01*
X74097648Y-103360500D01*
X74097649Y-103360500D01*
X74302351Y-103360500D01*
X74302352Y-103360500D01*
X74504534Y-103328477D01*
X74699219Y-103265220D01*
X74881610Y-103172287D01*
X74974590Y-103104732D01*
X75047213Y-103051971D01*
X75047215Y-103051968D01*
X75047219Y-103051966D01*
X75191966Y-102907219D01*
X75191968Y-102907215D01*
X75191971Y-102907213D01*
X75249555Y-102827954D01*
X75312287Y-102741610D01*
X75405220Y-102559219D01*
X75468477Y-102364534D01*
X75500500Y-102162352D01*
X75500500Y-101957682D01*
X77900000Y-101957682D01*
X77900000Y-102162317D01*
X77932009Y-102364417D01*
X77995244Y-102559031D01*
X78088141Y-102741350D01*
X78088147Y-102741359D01*
X78120523Y-102785921D01*
X78120524Y-102785922D01*
X78800000Y-102106446D01*
X78800000Y-102112661D01*
X78827259Y-102214394D01*
X78879920Y-102305606D01*
X78954394Y-102380080D01*
X79045606Y-102432741D01*
X79147339Y-102460000D01*
X79153553Y-102460000D01*
X78474076Y-103139474D01*
X78518650Y-103171859D01*
X78700968Y-103264755D01*
X78895582Y-103327990D01*
X79097683Y-103360000D01*
X79302317Y-103360000D01*
X79504417Y-103327990D01*
X79699031Y-103264755D01*
X79881349Y-103171859D01*
X79925921Y-103139474D01*
X79246447Y-102460000D01*
X79252661Y-102460000D01*
X79354394Y-102432741D01*
X79445606Y-102380080D01*
X79520080Y-102305606D01*
X79572741Y-102214394D01*
X79600000Y-102112661D01*
X79600000Y-102106447D01*
X80279474Y-102785921D01*
X80311859Y-102741349D01*
X80403391Y-102561708D01*
X80403392Y-102561706D01*
X80404754Y-102559033D01*
X80467990Y-102364417D01*
X80500000Y-102162317D01*
X80500000Y-101957682D01*
X80467990Y-101755582D01*
X80404755Y-101560968D01*
X80311859Y-101378650D01*
X80279474Y-101334077D01*
X80279474Y-101334076D01*
X79600000Y-102013551D01*
X79600000Y-102007339D01*
X79572741Y-101905606D01*
X79520080Y-101814394D01*
X79445606Y-101739920D01*
X79354394Y-101687259D01*
X79252661Y-101660000D01*
X79246446Y-101660000D01*
X79717872Y-101188575D01*
X91550000Y-101188575D01*
X91550000Y-101411424D01*
X91579085Y-101632354D01*
X91579088Y-101632367D01*
X91636763Y-101847618D01*
X91722045Y-102053502D01*
X91722054Y-102053520D01*
X91833464Y-102246491D01*
X91833473Y-102246504D01*
X91884040Y-102312403D01*
X91884043Y-102312403D01*
X92685387Y-101511059D01*
X92690889Y-101531591D01*
X92769881Y-101668408D01*
X92881592Y-101780119D01*
X93018409Y-101859111D01*
X93038940Y-101864612D01*
X92237595Y-102665955D01*
X92237595Y-102665956D01*
X92303507Y-102716533D01*
X92496485Y-102827949D01*
X92496497Y-102827954D01*
X92702381Y-102913236D01*
X92917632Y-102970911D01*
X92917645Y-102970914D01*
X93138575Y-103000000D01*
X93361425Y-103000000D01*
X93582354Y-102970914D01*
X93582367Y-102970911D01*
X93797618Y-102913236D01*
X94003502Y-102827954D01*
X94003514Y-102827949D01*
X94196498Y-102716530D01*
X94262403Y-102665957D01*
X94262404Y-102665956D01*
X93461059Y-101864612D01*
X93481591Y-101859111D01*
X93618408Y-101780119D01*
X93730119Y-101668408D01*
X93809111Y-101531591D01*
X93814612Y-101511059D01*
X94615956Y-102312404D01*
X94615957Y-102312403D01*
X94666530Y-102246498D01*
X94777949Y-102053514D01*
X94777954Y-102053502D01*
X94863236Y-101847618D01*
X94920911Y-101632367D01*
X94920914Y-101632354D01*
X94950000Y-101411424D01*
X94950000Y-101188575D01*
X94942840Y-101134188D01*
X94920914Y-100967645D01*
X94920911Y-100967632D01*
X94863236Y-100752381D01*
X94777954Y-100546497D01*
X94777949Y-100546485D01*
X94666533Y-100353507D01*
X94615956Y-100287595D01*
X94615955Y-100287595D01*
X93814612Y-101088939D01*
X93809111Y-101068409D01*
X93730119Y-100931592D01*
X93618408Y-100819881D01*
X93481591Y-100740889D01*
X93461058Y-100735387D01*
X94262403Y-99934043D01*
X94262403Y-99934040D01*
X94196504Y-99883473D01*
X94196502Y-99883471D01*
X94037902Y-99791905D01*
X94037901Y-99791904D01*
X94003513Y-99772050D01*
X94003502Y-99772045D01*
X93801992Y-99688575D01*
X124550000Y-99688575D01*
X124550000Y-99911424D01*
X124579085Y-100132354D01*
X124579088Y-100132367D01*
X124636763Y-100347618D01*
X124722045Y-100553502D01*
X124722054Y-100553520D01*
X124833464Y-100746491D01*
X124833473Y-100746504D01*
X124884040Y-100812403D01*
X124884043Y-100812403D01*
X125685387Y-100011059D01*
X125690889Y-100031591D01*
X125769881Y-100168408D01*
X125881592Y-100280119D01*
X126018409Y-100359111D01*
X126038940Y-100364612D01*
X125237595Y-101165955D01*
X125237595Y-101165956D01*
X125303507Y-101216533D01*
X125496485Y-101327949D01*
X125496497Y-101327954D01*
X125702381Y-101413236D01*
X125917632Y-101470911D01*
X125917645Y-101470914D01*
X126138575Y-101500000D01*
X126361425Y-101500000D01*
X126582354Y-101470914D01*
X126582367Y-101470911D01*
X126797618Y-101413236D01*
X127003502Y-101327954D01*
X127003514Y-101327949D01*
X127196498Y-101216530D01*
X127262403Y-101165957D01*
X127262404Y-101165956D01*
X126461059Y-100364612D01*
X126481591Y-100359111D01*
X126618408Y-100280119D01*
X126730119Y-100168408D01*
X126809111Y-100031591D01*
X126814612Y-100011059D01*
X127615956Y-100812404D01*
X127615957Y-100812403D01*
X127666530Y-100746498D01*
X127777949Y-100553514D01*
X127777954Y-100553502D01*
X127863236Y-100347618D01*
X127920911Y-100132367D01*
X127920914Y-100132354D01*
X127950000Y-99911424D01*
X127950000Y-99688575D01*
X127949997Y-99688549D01*
X137249500Y-99688549D01*
X137249500Y-99911450D01*
X137249501Y-99911466D01*
X137278594Y-100132452D01*
X137278595Y-100132457D01*
X137278596Y-100132463D01*
X137336289Y-100347776D01*
X137336290Y-100347780D01*
X137336293Y-100347790D01*
X137421593Y-100553722D01*
X137421595Y-100553726D01*
X137533052Y-100746774D01*
X137533057Y-100746780D01*
X137533058Y-100746782D01*
X137668751Y-100923622D01*
X137668757Y-100923629D01*
X137826370Y-101081242D01*
X137826376Y-101081247D01*
X138003226Y-101216948D01*
X138196274Y-101328405D01*
X138318400Y-101378991D01*
X138401074Y-101413236D01*
X138402219Y-101413710D01*
X138617537Y-101471404D01*
X138838543Y-101500500D01*
X138838550Y-101500500D01*
X139061450Y-101500500D01*
X139061457Y-101500500D01*
X139282463Y-101471404D01*
X139497781Y-101413710D01*
X139703726Y-101328405D01*
X139896774Y-101216948D01*
X140073624Y-101081247D01*
X140231247Y-100923624D01*
X140366948Y-100746774D01*
X140478405Y-100553726D01*
X140563710Y-100347781D01*
X140621404Y-100132463D01*
X140650500Y-99911457D01*
X140650500Y-99688543D01*
X140621404Y-99467537D01*
X140563710Y-99252219D01*
X140478405Y-99046274D01*
X140366948Y-98853226D01*
X140231247Y-98676376D01*
X140231242Y-98676370D01*
X140073629Y-98518757D01*
X140073622Y-98518751D01*
X139896782Y-98383058D01*
X139896780Y-98383057D01*
X139896774Y-98383052D01*
X139703726Y-98271595D01*
X139703722Y-98271593D01*
X139497790Y-98186293D01*
X139497783Y-98186291D01*
X139497781Y-98186290D01*
X139282463Y-98128596D01*
X139282457Y-98128595D01*
X139282452Y-98128594D01*
X139061466Y-98099501D01*
X139061463Y-98099500D01*
X139061457Y-98099500D01*
X138838543Y-98099500D01*
X138838537Y-98099500D01*
X138838533Y-98099501D01*
X138617547Y-98128594D01*
X138617540Y-98128595D01*
X138617537Y-98128596D01*
X138402219Y-98186290D01*
X138402209Y-98186293D01*
X138196277Y-98271593D01*
X138196273Y-98271595D01*
X138003226Y-98383052D01*
X138003217Y-98383058D01*
X137826377Y-98518751D01*
X137826370Y-98518757D01*
X137668757Y-98676370D01*
X137668751Y-98676377D01*
X137533058Y-98853217D01*
X137533052Y-98853226D01*
X137421595Y-99046273D01*
X137421593Y-99046277D01*
X137336293Y-99252209D01*
X137336290Y-99252219D01*
X137288228Y-99431592D01*
X137278597Y-99467534D01*
X137278594Y-99467547D01*
X137249501Y-99688533D01*
X137249500Y-99688549D01*
X127949997Y-99688549D01*
X127920914Y-99467645D01*
X127920911Y-99467632D01*
X127863236Y-99252381D01*
X127777954Y-99046497D01*
X127777949Y-99046485D01*
X127666533Y-98853507D01*
X127615956Y-98787595D01*
X127615955Y-98787595D01*
X126814612Y-99588939D01*
X126809111Y-99568409D01*
X126730119Y-99431592D01*
X126618408Y-99319881D01*
X126481591Y-99240889D01*
X126461058Y-99235387D01*
X127262403Y-98434043D01*
X127262403Y-98434040D01*
X127196504Y-98383473D01*
X127196491Y-98383464D01*
X127003520Y-98272054D01*
X127003502Y-98272045D01*
X126797618Y-98186763D01*
X126582367Y-98129088D01*
X126582354Y-98129085D01*
X126361425Y-98100000D01*
X126138575Y-98100000D01*
X125917645Y-98129085D01*
X125917632Y-98129088D01*
X125702381Y-98186763D01*
X125496497Y-98272045D01*
X125496479Y-98272054D01*
X125303511Y-98383462D01*
X125237595Y-98434042D01*
X126038941Y-99235387D01*
X126018409Y-99240889D01*
X125881592Y-99319881D01*
X125769881Y-99431592D01*
X125690889Y-99568409D01*
X125685387Y-99588940D01*
X124884042Y-98787595D01*
X124833462Y-98853511D01*
X124722054Y-99046479D01*
X124722045Y-99046497D01*
X124636763Y-99252381D01*
X124579088Y-99467632D01*
X124579085Y-99467645D01*
X124550000Y-99688575D01*
X93801992Y-99688575D01*
X93797618Y-99686763D01*
X93582367Y-99629088D01*
X93582354Y-99629085D01*
X93361425Y-99600000D01*
X93138575Y-99600000D01*
X92917645Y-99629085D01*
X92917632Y-99629088D01*
X92702381Y-99686763D01*
X92496497Y-99772045D01*
X92496479Y-99772054D01*
X92303511Y-99883462D01*
X92237595Y-99934042D01*
X93038941Y-100735387D01*
X93018409Y-100740889D01*
X92881592Y-100819881D01*
X92769881Y-100931592D01*
X92690889Y-101068409D01*
X92685387Y-101088940D01*
X91884042Y-100287595D01*
X91833462Y-100353511D01*
X91722054Y-100546479D01*
X91722045Y-100546497D01*
X91636763Y-100752381D01*
X91579088Y-100967632D01*
X91579085Y-100967645D01*
X91550000Y-101188575D01*
X79717872Y-101188575D01*
X79809611Y-101096836D01*
X79925922Y-100980524D01*
X79925921Y-100980523D01*
X79881359Y-100948147D01*
X79881350Y-100948141D01*
X79699031Y-100855244D01*
X79504417Y-100792009D01*
X79302317Y-100760000D01*
X79097683Y-100760000D01*
X78895582Y-100792009D01*
X78700968Y-100855244D01*
X78518644Y-100948143D01*
X78474077Y-100980523D01*
X78474077Y-100980524D01*
X79153554Y-101660000D01*
X79147339Y-101660000D01*
X79045606Y-101687259D01*
X78954394Y-101739920D01*
X78879920Y-101814394D01*
X78827259Y-101905606D01*
X78800000Y-102007339D01*
X78800000Y-102013553D01*
X78120524Y-101334077D01*
X78120523Y-101334077D01*
X78088143Y-101378644D01*
X77995244Y-101560968D01*
X77932009Y-101755582D01*
X77900000Y-101957682D01*
X75500500Y-101957682D01*
X75500500Y-101957648D01*
X75483073Y-101847618D01*
X75468477Y-101755465D01*
X75417098Y-101597339D01*
X75405220Y-101560781D01*
X75405218Y-101560778D01*
X75405218Y-101560776D01*
X75371503Y-101494607D01*
X75312287Y-101378390D01*
X75280092Y-101334077D01*
X75191971Y-101212786D01*
X75047213Y-101068028D01*
X74881613Y-100947715D01*
X74881612Y-100947714D01*
X74881610Y-100947713D01*
X74824653Y-100918691D01*
X74699223Y-100854781D01*
X74504534Y-100791522D01*
X74329995Y-100763878D01*
X74302352Y-100759500D01*
X74097648Y-100759500D01*
X74073329Y-100763351D01*
X73895465Y-100791522D01*
X73700776Y-100854781D01*
X73518386Y-100947715D01*
X73352786Y-101068028D01*
X73208028Y-101212786D01*
X73087715Y-101378386D01*
X72994781Y-101560776D01*
X72931522Y-101755465D01*
X72899500Y-101957648D01*
X68266940Y-101957648D01*
X68267988Y-101954422D01*
X68271321Y-101933380D01*
X68271322Y-101933377D01*
X68300000Y-101752317D01*
X68300000Y-101547682D01*
X68267990Y-101345582D01*
X68204755Y-101150968D01*
X68111859Y-100968650D01*
X68079474Y-100924077D01*
X68079474Y-100924076D01*
X67400000Y-101603551D01*
X67400000Y-101597339D01*
X67372741Y-101495606D01*
X67320080Y-101404394D01*
X67245606Y-101329920D01*
X67154394Y-101277259D01*
X67052661Y-101250000D01*
X67046446Y-101250000D01*
X67725922Y-100570524D01*
X67725921Y-100570523D01*
X67681359Y-100538147D01*
X67681350Y-100538141D01*
X67499031Y-100445244D01*
X67304417Y-100382009D01*
X67102317Y-100350000D01*
X66897683Y-100350000D01*
X66695582Y-100382009D01*
X66500968Y-100445244D01*
X66318644Y-100538143D01*
X66274077Y-100570523D01*
X66274077Y-100570524D01*
X66953554Y-101250000D01*
X66947339Y-101250000D01*
X66845606Y-101277259D01*
X66754394Y-101329920D01*
X66679920Y-101404394D01*
X66627259Y-101495606D01*
X66600000Y-101597339D01*
X66600000Y-101603553D01*
X65920524Y-100924077D01*
X65920523Y-100924077D01*
X65888143Y-100968644D01*
X65795244Y-101150968D01*
X65732009Y-101345582D01*
X65700000Y-101547682D01*
X49350500Y-101547682D01*
X49350500Y-93867682D01*
X50550000Y-93867682D01*
X50550000Y-94072317D01*
X50582009Y-94274417D01*
X50645244Y-94469031D01*
X50738141Y-94651350D01*
X50738147Y-94651359D01*
X50770523Y-94695921D01*
X50770524Y-94695922D01*
X51450000Y-94016446D01*
X51450000Y-94022661D01*
X51477259Y-94124394D01*
X51529920Y-94215606D01*
X51604394Y-94290080D01*
X51695606Y-94342741D01*
X51797339Y-94370000D01*
X51803553Y-94370000D01*
X51124076Y-95049474D01*
X51168650Y-95081859D01*
X51350968Y-95174755D01*
X51545582Y-95237990D01*
X51747683Y-95270000D01*
X51952317Y-95270000D01*
X52154417Y-95237990D01*
X52349031Y-95174755D01*
X52531349Y-95081859D01*
X52575921Y-95049474D01*
X51896447Y-94370000D01*
X51902661Y-94370000D01*
X52004394Y-94342741D01*
X52095606Y-94290080D01*
X52170080Y-94215606D01*
X52222741Y-94124394D01*
X52250000Y-94022661D01*
X52250000Y-94016447D01*
X52929474Y-94695921D01*
X52961859Y-94651349D01*
X53054755Y-94469031D01*
X53117990Y-94274417D01*
X53150000Y-94072317D01*
X53150000Y-94038575D01*
X70700000Y-94038575D01*
X70700000Y-94261424D01*
X70729085Y-94482354D01*
X70729088Y-94482367D01*
X70786763Y-94697618D01*
X70872045Y-94903502D01*
X70872054Y-94903520D01*
X70983464Y-95096491D01*
X70983473Y-95096504D01*
X71034040Y-95162403D01*
X71034043Y-95162403D01*
X71835387Y-94361059D01*
X71840889Y-94381591D01*
X71919881Y-94518408D01*
X72031592Y-94630119D01*
X72168409Y-94709111D01*
X72188940Y-94714612D01*
X71387595Y-95515955D01*
X71387595Y-95515956D01*
X71453507Y-95566533D01*
X71646485Y-95677949D01*
X71646497Y-95677954D01*
X71852381Y-95763236D01*
X72067632Y-95820911D01*
X72067645Y-95820914D01*
X72288575Y-95850000D01*
X72511425Y-95850000D01*
X72732354Y-95820914D01*
X72732367Y-95820911D01*
X72947618Y-95763236D01*
X73153502Y-95677954D01*
X73153514Y-95677949D01*
X73346498Y-95566530D01*
X73412404Y-95515957D01*
X73412404Y-95515956D01*
X73394130Y-95497682D01*
X109100000Y-95497682D01*
X109100000Y-95702317D01*
X109132009Y-95904417D01*
X109195244Y-96099031D01*
X109288141Y-96281350D01*
X109288147Y-96281359D01*
X109320523Y-96325921D01*
X109320524Y-96325922D01*
X110000000Y-95646446D01*
X110000000Y-95652661D01*
X110027259Y-95754394D01*
X110079920Y-95845606D01*
X110154394Y-95920080D01*
X110245606Y-95972741D01*
X110347339Y-96000000D01*
X110353553Y-96000000D01*
X109674076Y-96679474D01*
X109718650Y-96711859D01*
X109900968Y-96804755D01*
X110095582Y-96867990D01*
X110297683Y-96900000D01*
X110502317Y-96900000D01*
X110704417Y-96867990D01*
X110899031Y-96804755D01*
X111011043Y-96747682D01*
X116250000Y-96747682D01*
X116250000Y-96952317D01*
X116282009Y-97154417D01*
X116345244Y-97349031D01*
X116438141Y-97531350D01*
X116438147Y-97531359D01*
X116470523Y-97575921D01*
X116470524Y-97575922D01*
X117150000Y-96896446D01*
X117150000Y-96902661D01*
X117177259Y-97004394D01*
X117229920Y-97095606D01*
X117304394Y-97170080D01*
X117395606Y-97222741D01*
X117497339Y-97250000D01*
X117503553Y-97250000D01*
X116824076Y-97929474D01*
X116868650Y-97961859D01*
X117050968Y-98054755D01*
X117245582Y-98117990D01*
X117447683Y-98150000D01*
X117652317Y-98150000D01*
X117854417Y-98117990D01*
X118049031Y-98054755D01*
X118231349Y-97961859D01*
X118275921Y-97929474D01*
X117596447Y-97250000D01*
X117602661Y-97250000D01*
X117704394Y-97222741D01*
X117795606Y-97170080D01*
X117870080Y-97095606D01*
X117922741Y-97004394D01*
X117950000Y-96902661D01*
X117950000Y-96896448D01*
X118629474Y-97575922D01*
X118629474Y-97575921D01*
X118661859Y-97531349D01*
X118754755Y-97349031D01*
X118817990Y-97154417D01*
X118850000Y-96952317D01*
X118850000Y-96747682D01*
X118817990Y-96545582D01*
X118754755Y-96350968D01*
X118661859Y-96168650D01*
X118629474Y-96124077D01*
X118629474Y-96124076D01*
X117950000Y-96803551D01*
X117950000Y-96797339D01*
X117922741Y-96695606D01*
X117870080Y-96604394D01*
X117795606Y-96529920D01*
X117704394Y-96477259D01*
X117602661Y-96450000D01*
X117596446Y-96450000D01*
X118196463Y-95849983D01*
X156299500Y-95849983D01*
X156299500Y-97450001D01*
X156299501Y-97450018D01*
X156310000Y-97552796D01*
X156310001Y-97552799D01*
X156365185Y-97719331D01*
X156365186Y-97719334D01*
X156457288Y-97868656D01*
X156581344Y-97992712D01*
X156730666Y-98084814D01*
X156897203Y-98139999D01*
X156999991Y-98150500D01*
X157062692Y-98150499D01*
X157129729Y-98170183D01*
X157150372Y-98186818D01*
X157588941Y-98625387D01*
X157568409Y-98630889D01*
X157431592Y-98709881D01*
X157319881Y-98821592D01*
X157240889Y-98958409D01*
X157235387Y-98978941D01*
X156577340Y-98320894D01*
X156517084Y-98403830D01*
X156409897Y-98614197D01*
X156336934Y-98838752D01*
X156300000Y-99071947D01*
X156300000Y-99308052D01*
X156336934Y-99541247D01*
X156409897Y-99765802D01*
X156517087Y-99976174D01*
X156577338Y-100059104D01*
X156577340Y-100059105D01*
X157235387Y-99401058D01*
X157240889Y-99421591D01*
X157319881Y-99558408D01*
X157431592Y-99670119D01*
X157568409Y-99749111D01*
X157588940Y-99754612D01*
X156930893Y-100412658D01*
X157013828Y-100472914D01*
X157224197Y-100580102D01*
X157448752Y-100653065D01*
X157448751Y-100653065D01*
X157681948Y-100690000D01*
X157918052Y-100690000D01*
X158151247Y-100653065D01*
X158375802Y-100580102D01*
X158586163Y-100472918D01*
X158586169Y-100472914D01*
X158669104Y-100412658D01*
X158669105Y-100412658D01*
X158011058Y-99754612D01*
X158031591Y-99749111D01*
X158168408Y-99670119D01*
X158280119Y-99558408D01*
X158359111Y-99421591D01*
X158364612Y-99401059D01*
X159022658Y-100059105D01*
X159022658Y-100059104D01*
X159082914Y-99976169D01*
X159082918Y-99976163D01*
X159190102Y-99765802D01*
X159263065Y-99541247D01*
X159300000Y-99308052D01*
X159300000Y-99071947D01*
X159263065Y-98838752D01*
X159190102Y-98614197D01*
X159082914Y-98403828D01*
X159022658Y-98320894D01*
X159022658Y-98320893D01*
X158364612Y-98978940D01*
X158359111Y-98958409D01*
X158280119Y-98821592D01*
X158168408Y-98709881D01*
X158031591Y-98630889D01*
X158011058Y-98625387D01*
X158449627Y-98186818D01*
X158510950Y-98153333D01*
X158537307Y-98150499D01*
X158600008Y-98150499D01*
X158702797Y-98139999D01*
X158869334Y-98084814D01*
X159018656Y-97992712D01*
X159142712Y-97868656D01*
X159234814Y-97719334D01*
X159289999Y-97552797D01*
X159300500Y-97450009D01*
X159300499Y-95849992D01*
X159289999Y-95747203D01*
X159234814Y-95580666D01*
X159142712Y-95431344D01*
X159018656Y-95307288D01*
X158920015Y-95246446D01*
X158869336Y-95215187D01*
X158869331Y-95215185D01*
X158867862Y-95214698D01*
X158702797Y-95160001D01*
X158702795Y-95160000D01*
X158600010Y-95149500D01*
X156999998Y-95149500D01*
X156999981Y-95149501D01*
X156897203Y-95160000D01*
X156897200Y-95160001D01*
X156730668Y-95215185D01*
X156730663Y-95215187D01*
X156581342Y-95307289D01*
X156457289Y-95431342D01*
X156365187Y-95580663D01*
X156365185Y-95580668D01*
X156358779Y-95600001D01*
X156310001Y-95747203D01*
X156310001Y-95747204D01*
X156310000Y-95747204D01*
X156299500Y-95849983D01*
X118196463Y-95849983D01*
X118275922Y-95770524D01*
X118275921Y-95770523D01*
X118231359Y-95738147D01*
X118231350Y-95738141D01*
X118049031Y-95645244D01*
X117854417Y-95582009D01*
X117652317Y-95550000D01*
X117447683Y-95550000D01*
X117245582Y-95582009D01*
X117050968Y-95645244D01*
X116868644Y-95738143D01*
X116824077Y-95770523D01*
X116824077Y-95770524D01*
X117503554Y-96450000D01*
X117497339Y-96450000D01*
X117395606Y-96477259D01*
X117304394Y-96529920D01*
X117229920Y-96604394D01*
X117177259Y-96695606D01*
X117150000Y-96797339D01*
X117150000Y-96803553D01*
X116470524Y-96124077D01*
X116470523Y-96124077D01*
X116438143Y-96168644D01*
X116345244Y-96350968D01*
X116282009Y-96545582D01*
X116250000Y-96747682D01*
X111011043Y-96747682D01*
X111081349Y-96711859D01*
X111125922Y-96679474D01*
X110446447Y-96000000D01*
X110452661Y-96000000D01*
X110554394Y-95972741D01*
X110645606Y-95920080D01*
X110720080Y-95845606D01*
X110772741Y-95754394D01*
X110800000Y-95652661D01*
X110800000Y-95646448D01*
X111479474Y-96325922D01*
X111479474Y-96325921D01*
X111511859Y-96281349D01*
X111604755Y-96099031D01*
X111667990Y-95904417D01*
X111684784Y-95798385D01*
X111700000Y-95702317D01*
X111700000Y-95497682D01*
X111667990Y-95295582D01*
X111604755Y-95100968D01*
X111511859Y-94918650D01*
X111479474Y-94874077D01*
X111479474Y-94874076D01*
X110800000Y-95553551D01*
X110800000Y-95547339D01*
X110772741Y-95445606D01*
X110720080Y-95354394D01*
X110645606Y-95279920D01*
X110554394Y-95227259D01*
X110452661Y-95200000D01*
X110446446Y-95200000D01*
X111125922Y-94520524D01*
X111125921Y-94520523D01*
X111081359Y-94488147D01*
X111081350Y-94488141D01*
X110899031Y-94395244D01*
X110704417Y-94332009D01*
X110502317Y-94300000D01*
X110297683Y-94300000D01*
X110095582Y-94332009D01*
X109900968Y-94395244D01*
X109718644Y-94488143D01*
X109674077Y-94520523D01*
X109674077Y-94520524D01*
X110353554Y-95200000D01*
X110347339Y-95200000D01*
X110245606Y-95227259D01*
X110154394Y-95279920D01*
X110079920Y-95354394D01*
X110027259Y-95445606D01*
X110000000Y-95547339D01*
X110000000Y-95553553D01*
X109320524Y-94874077D01*
X109320523Y-94874077D01*
X109288143Y-94918644D01*
X109195244Y-95100968D01*
X109132009Y-95295582D01*
X109100000Y-95497682D01*
X73394130Y-95497682D01*
X72611059Y-94714612D01*
X72631591Y-94709111D01*
X72768408Y-94630119D01*
X72880119Y-94518408D01*
X72959111Y-94381591D01*
X72964612Y-94361059D01*
X73765956Y-95162404D01*
X73765957Y-95162403D01*
X73816530Y-95096498D01*
X73927949Y-94903514D01*
X73927954Y-94903502D01*
X74013236Y-94697618D01*
X74056624Y-94535690D01*
X74056624Y-94535689D01*
X74070912Y-94482363D01*
X74070914Y-94482354D01*
X74100000Y-94261424D01*
X74100000Y-94038575D01*
X74070914Y-93817645D01*
X74070911Y-93817632D01*
X74013236Y-93602381D01*
X73927954Y-93396497D01*
X73927949Y-93396485D01*
X73816533Y-93203507D01*
X73789490Y-93168264D01*
X73765956Y-93137595D01*
X73765955Y-93137595D01*
X72964612Y-93938939D01*
X72959111Y-93918409D01*
X72880119Y-93781592D01*
X72768408Y-93669881D01*
X72631591Y-93590889D01*
X72611058Y-93585387D01*
X73098798Y-93097648D01*
X135149500Y-93097648D01*
X135149500Y-93302351D01*
X135181522Y-93504534D01*
X135244781Y-93699223D01*
X135305121Y-93817645D01*
X135330616Y-93867682D01*
X135337715Y-93881613D01*
X135458028Y-94047213D01*
X135602786Y-94191971D01*
X135737824Y-94290080D01*
X135768390Y-94312287D01*
X135881658Y-94370000D01*
X135950776Y-94405218D01*
X135950778Y-94405218D01*
X135950781Y-94405220D01*
X136055137Y-94439127D01*
X136145465Y-94468477D01*
X136246557Y-94484488D01*
X136347648Y-94500500D01*
X136347649Y-94500500D01*
X136552351Y-94500500D01*
X136552352Y-94500500D01*
X136754534Y-94468477D01*
X136949219Y-94405220D01*
X137131610Y-94312287D01*
X137246258Y-94228991D01*
X137297213Y-94191971D01*
X137297215Y-94191968D01*
X137297219Y-94191966D01*
X137441966Y-94047219D01*
X137441968Y-94047215D01*
X137441971Y-94047213D01*
X137535551Y-93918409D01*
X137562287Y-93881610D01*
X137589515Y-93828171D01*
X137637490Y-93777376D01*
X137705311Y-93760581D01*
X137771446Y-93783118D01*
X137810484Y-93828171D01*
X137830616Y-93867682D01*
X137837715Y-93881613D01*
X137958028Y-94047213D01*
X138102786Y-94191971D01*
X138237824Y-94290080D01*
X138268390Y-94312287D01*
X138381658Y-94370000D01*
X138450776Y-94405218D01*
X138450778Y-94405218D01*
X138450781Y-94405220D01*
X138555137Y-94439127D01*
X138645465Y-94468477D01*
X138746557Y-94484488D01*
X138847648Y-94500500D01*
X138847649Y-94500500D01*
X139052351Y-94500500D01*
X139052352Y-94500500D01*
X139254534Y-94468477D01*
X139449219Y-94405220D01*
X139631610Y-94312287D01*
X139746258Y-94228991D01*
X139797213Y-94191971D01*
X139797215Y-94191968D01*
X139797219Y-94191966D01*
X139941966Y-94047219D01*
X139941968Y-94047215D01*
X139941971Y-94047213D01*
X140035551Y-93918409D01*
X140062287Y-93881610D01*
X140155220Y-93699219D01*
X140218477Y-93504534D01*
X140250500Y-93302352D01*
X140250500Y-93097648D01*
X140218477Y-92895466D01*
X140216871Y-92890524D01*
X140165839Y-92733464D01*
X140155220Y-92700781D01*
X140155218Y-92700778D01*
X140155218Y-92700776D01*
X140115396Y-92622623D01*
X140062287Y-92518390D01*
X140033733Y-92479088D01*
X139941971Y-92352786D01*
X139797213Y-92208028D01*
X139631613Y-92087715D01*
X139631612Y-92087714D01*
X139631610Y-92087713D01*
X139574653Y-92058691D01*
X139449223Y-91994781D01*
X139254534Y-91931522D01*
X139079995Y-91903878D01*
X139052352Y-91899500D01*
X138847648Y-91899500D01*
X138823329Y-91903351D01*
X138645465Y-91931522D01*
X138450776Y-91994781D01*
X138268386Y-92087715D01*
X138102786Y-92208028D01*
X137958028Y-92352786D01*
X137837713Y-92518388D01*
X137810484Y-92571828D01*
X137762510Y-92622623D01*
X137694688Y-92639418D01*
X137628554Y-92616880D01*
X137589516Y-92571828D01*
X137562286Y-92518388D01*
X137441971Y-92352786D01*
X137297213Y-92208028D01*
X137131613Y-92087715D01*
X137131612Y-92087714D01*
X137131610Y-92087713D01*
X137074653Y-92058691D01*
X136949223Y-91994781D01*
X136754534Y-91931522D01*
X136579995Y-91903878D01*
X136552352Y-91899500D01*
X136347648Y-91899500D01*
X136323329Y-91903351D01*
X136145465Y-91931522D01*
X135950776Y-91994781D01*
X135768386Y-92087715D01*
X135602786Y-92208028D01*
X135458028Y-92352786D01*
X135337715Y-92518386D01*
X135244781Y-92700776D01*
X135181522Y-92895465D01*
X135149500Y-93097648D01*
X73098798Y-93097648D01*
X73412403Y-92784043D01*
X73412403Y-92784040D01*
X73346504Y-92733473D01*
X73346491Y-92733464D01*
X73153520Y-92622054D01*
X73153502Y-92622045D01*
X72947618Y-92536763D01*
X72732367Y-92479088D01*
X72732354Y-92479085D01*
X72511425Y-92450000D01*
X72288575Y-92450000D01*
X72067645Y-92479085D01*
X72067632Y-92479088D01*
X71852381Y-92536763D01*
X71646497Y-92622045D01*
X71646479Y-92622054D01*
X71453511Y-92733462D01*
X71387595Y-92784042D01*
X72188941Y-93585387D01*
X72168409Y-93590889D01*
X72031592Y-93669881D01*
X71919881Y-93781592D01*
X71840889Y-93918409D01*
X71835387Y-93938940D01*
X71034042Y-93137595D01*
X70983462Y-93203511D01*
X70872054Y-93396479D01*
X70872045Y-93396497D01*
X70786763Y-93602381D01*
X70729088Y-93817632D01*
X70729085Y-93817645D01*
X70700000Y-94038575D01*
X53150000Y-94038575D01*
X53150000Y-93867682D01*
X53117990Y-93665582D01*
X53054755Y-93470968D01*
X52961859Y-93288650D01*
X52929474Y-93244077D01*
X52929474Y-93244076D01*
X52250000Y-93923551D01*
X52250000Y-93917339D01*
X52222741Y-93815606D01*
X52170080Y-93724394D01*
X52095606Y-93649920D01*
X52004394Y-93597259D01*
X51902661Y-93570000D01*
X51896446Y-93570000D01*
X52575921Y-92890525D01*
X52575921Y-92890522D01*
X52531359Y-92858147D01*
X52531350Y-92858141D01*
X52349031Y-92765244D01*
X52154417Y-92702009D01*
X51952317Y-92670000D01*
X51747683Y-92670000D01*
X51545582Y-92702009D01*
X51350968Y-92765244D01*
X51168644Y-92858143D01*
X51124077Y-92890523D01*
X51124077Y-92890524D01*
X51803554Y-93570000D01*
X51797339Y-93570000D01*
X51695606Y-93597259D01*
X51604394Y-93649920D01*
X51529920Y-93724394D01*
X51477259Y-93815606D01*
X51450000Y-93917339D01*
X51450000Y-93923553D01*
X50770524Y-93244077D01*
X50770523Y-93244077D01*
X50738143Y-93288644D01*
X50645244Y-93470968D01*
X50582009Y-93665582D01*
X50550000Y-93867682D01*
X49350500Y-93867682D01*
X49350500Y-86247648D01*
X50549500Y-86247648D01*
X50549500Y-86452351D01*
X50581522Y-86654534D01*
X50644781Y-86849223D01*
X50737715Y-87031613D01*
X50858028Y-87197213D01*
X51002786Y-87341971D01*
X51144293Y-87444780D01*
X51168390Y-87462287D01*
X51284607Y-87521503D01*
X51350776Y-87555218D01*
X51350778Y-87555218D01*
X51350781Y-87555220D01*
X51455137Y-87589127D01*
X51545465Y-87618477D01*
X51646557Y-87634488D01*
X51747648Y-87650500D01*
X51747649Y-87650500D01*
X51952351Y-87650500D01*
X51952352Y-87650500D01*
X52154534Y-87618477D01*
X52349219Y-87555220D01*
X52531610Y-87462287D01*
X52642773Y-87381523D01*
X52697213Y-87341971D01*
X52697215Y-87341968D01*
X52697219Y-87341966D01*
X52841966Y-87197219D01*
X52841968Y-87197215D01*
X52841971Y-87197213D01*
X52933236Y-87071595D01*
X52962287Y-87031610D01*
X53055220Y-86849219D01*
X53062396Y-86827135D01*
X85599500Y-86827135D01*
X85599500Y-87972870D01*
X85599501Y-87972876D01*
X85605908Y-88032483D01*
X85656202Y-88167328D01*
X85656203Y-88167330D01*
X85656204Y-88167331D01*
X85657028Y-88168432D01*
X85657509Y-88169721D01*
X85660454Y-88175114D01*
X85659678Y-88175537D01*
X85681448Y-88233895D01*
X85672325Y-88290198D01*
X85638910Y-88370868D01*
X85638907Y-88370880D01*
X85599500Y-88568992D01*
X85599500Y-88771007D01*
X85638907Y-88969119D01*
X85638909Y-88969127D01*
X85716213Y-89155755D01*
X85769904Y-89236109D01*
X85790782Y-89302787D01*
X85772297Y-89370167D01*
X85769904Y-89373891D01*
X85716213Y-89454244D01*
X85638909Y-89640872D01*
X85638907Y-89640880D01*
X85599500Y-89838992D01*
X85599500Y-90041007D01*
X85638907Y-90239119D01*
X85638909Y-90239127D01*
X85716212Y-90425752D01*
X85716217Y-90425762D01*
X85828441Y-90593718D01*
X85971281Y-90736558D01*
X86139237Y-90848782D01*
X86139241Y-90848784D01*
X86139244Y-90848786D01*
X86325873Y-90926091D01*
X86523992Y-90965499D01*
X86523996Y-90965500D01*
X86523997Y-90965500D01*
X87176004Y-90965500D01*
X87176005Y-90965499D01*
X87374127Y-90926091D01*
X87560756Y-90848786D01*
X87728718Y-90736558D01*
X87871558Y-90593718D01*
X87983786Y-90425756D01*
X88061091Y-90239127D01*
X88100500Y-90041003D01*
X88100500Y-89838997D01*
X88061091Y-89640873D01*
X87983786Y-89454244D01*
X87930094Y-89373889D01*
X87909217Y-89307214D01*
X87927701Y-89239834D01*
X87930078Y-89236134D01*
X87983786Y-89155756D01*
X88061091Y-88969127D01*
X88100500Y-88771003D01*
X88100500Y-88568997D01*
X88100405Y-88568523D01*
X88088502Y-88508675D01*
X88084499Y-88488549D01*
X91549500Y-88488549D01*
X91549500Y-88711450D01*
X91549501Y-88711466D01*
X91578594Y-88932452D01*
X91578595Y-88932457D01*
X91578596Y-88932463D01*
X91636290Y-89147780D01*
X91636293Y-89147790D01*
X91721593Y-89353722D01*
X91721595Y-89353726D01*
X91833052Y-89546774D01*
X91833057Y-89546780D01*
X91833058Y-89546782D01*
X91968751Y-89723622D01*
X91968757Y-89723629D01*
X92126370Y-89881242D01*
X92126377Y-89881248D01*
X92165946Y-89911610D01*
X92303226Y-90016948D01*
X92496274Y-90128405D01*
X92526964Y-90141117D01*
X92639456Y-90187713D01*
X92702219Y-90213710D01*
X92917537Y-90271404D01*
X93138543Y-90300500D01*
X93138550Y-90300500D01*
X93361450Y-90300500D01*
X93361457Y-90300500D01*
X93582463Y-90271404D01*
X93797781Y-90213710D01*
X94003726Y-90128405D01*
X94196774Y-90016948D01*
X94373624Y-89881247D01*
X94531247Y-89723624D01*
X94666948Y-89546774D01*
X94778405Y-89353726D01*
X94863710Y-89147781D01*
X94921404Y-88932463D01*
X94950500Y-88711457D01*
X94950500Y-88547648D01*
X99099500Y-88547648D01*
X99099500Y-88752351D01*
X99131522Y-88954534D01*
X99194781Y-89149223D01*
X99258691Y-89274653D01*
X99287668Y-89331522D01*
X99287715Y-89331613D01*
X99408028Y-89497213D01*
X99552786Y-89641971D01*
X99718385Y-89762284D01*
X99718387Y-89762285D01*
X99718390Y-89762287D01*
X99772378Y-89789795D01*
X99823174Y-89837769D01*
X99839969Y-89905590D01*
X99817432Y-89971725D01*
X99772378Y-90010765D01*
X99718644Y-90038143D01*
X99674077Y-90070523D01*
X99674077Y-90070524D01*
X100353554Y-90750000D01*
X100347339Y-90750000D01*
X100245606Y-90777259D01*
X100154394Y-90829920D01*
X100079920Y-90904394D01*
X100027259Y-90995606D01*
X100000000Y-91097339D01*
X100000000Y-91103553D01*
X99320524Y-90424077D01*
X99320523Y-90424077D01*
X99288143Y-90468644D01*
X99195244Y-90650968D01*
X99132009Y-90845582D01*
X99100000Y-91047682D01*
X99100000Y-91252317D01*
X99132009Y-91454417D01*
X99195244Y-91649031D01*
X99288141Y-91831350D01*
X99288147Y-91831359D01*
X99320523Y-91875921D01*
X99320524Y-91875922D01*
X100000000Y-91196446D01*
X100000000Y-91202661D01*
X100027259Y-91304394D01*
X100079920Y-91395606D01*
X100154394Y-91470080D01*
X100245606Y-91522741D01*
X100347339Y-91550000D01*
X100353553Y-91550000D01*
X99674076Y-92229474D01*
X99718650Y-92261859D01*
X99900968Y-92354755D01*
X100095582Y-92417990D01*
X100297683Y-92450000D01*
X100502317Y-92450000D01*
X100704417Y-92417990D01*
X100899031Y-92354755D01*
X101081349Y-92261859D01*
X101125921Y-92229474D01*
X100446447Y-91550000D01*
X100452661Y-91550000D01*
X100554394Y-91522741D01*
X100645606Y-91470080D01*
X100720080Y-91395606D01*
X100772741Y-91304394D01*
X100800000Y-91202661D01*
X100800000Y-91196448D01*
X101479474Y-91875922D01*
X101479474Y-91875921D01*
X101511859Y-91831349D01*
X101604755Y-91649031D01*
X101667990Y-91454417D01*
X101700000Y-91252317D01*
X101700000Y-91047682D01*
X101667990Y-90845582D01*
X101604754Y-90650965D01*
X101552837Y-90549072D01*
X101552836Y-90549071D01*
X101526634Y-90497648D01*
X109099500Y-90497648D01*
X109099500Y-90702351D01*
X109131522Y-90904534D01*
X109194781Y-91099223D01*
X109244932Y-91197648D01*
X109272787Y-91252317D01*
X109287715Y-91281613D01*
X109408028Y-91447213D01*
X109552786Y-91591971D01*
X109648349Y-91661400D01*
X109718390Y-91712287D01*
X109834607Y-91771503D01*
X109900776Y-91805218D01*
X109900778Y-91805218D01*
X109900781Y-91805220D01*
X109981198Y-91831349D01*
X110095465Y-91868477D01*
X110142471Y-91875922D01*
X110297648Y-91900500D01*
X110297649Y-91900500D01*
X110502351Y-91900500D01*
X110502352Y-91900500D01*
X110704534Y-91868477D01*
X110899219Y-91805220D01*
X111081610Y-91712287D01*
X111174590Y-91644732D01*
X111247213Y-91591971D01*
X111247215Y-91591968D01*
X111247219Y-91591966D01*
X111391966Y-91447219D01*
X111391968Y-91447215D01*
X111391971Y-91447213D01*
X111512284Y-91281614D01*
X111512285Y-91281613D01*
X111512287Y-91281610D01*
X111553066Y-91201577D01*
X146599500Y-91201577D01*
X146599500Y-91398422D01*
X146630290Y-91592826D01*
X146691117Y-91780029D01*
X146780476Y-91955405D01*
X146896172Y-92114646D01*
X147035354Y-92253828D01*
X147194595Y-92369524D01*
X147277455Y-92411743D01*
X147369970Y-92458882D01*
X147369972Y-92458882D01*
X147369975Y-92458884D01*
X147470317Y-92491487D01*
X147557173Y-92519709D01*
X147751578Y-92550500D01*
X147751583Y-92550500D01*
X147948422Y-92550500D01*
X148142826Y-92519709D01*
X148187424Y-92505218D01*
X148330025Y-92458884D01*
X148505405Y-92369524D01*
X148664646Y-92253828D01*
X148803828Y-92114646D01*
X148919524Y-91955405D01*
X149008884Y-91780025D01*
X149069709Y-91592826D01*
X149076492Y-91550000D01*
X149100500Y-91398422D01*
X149100500Y-91201577D01*
X149099878Y-91197648D01*
X150449500Y-91197648D01*
X150449500Y-91402351D01*
X150481522Y-91604534D01*
X150544781Y-91799223D01*
X150637715Y-91981613D01*
X150758028Y-92147213D01*
X150902786Y-92291971D01*
X151009531Y-92369524D01*
X151068390Y-92412287D01*
X151159838Y-92458882D01*
X151250776Y-92505218D01*
X151250778Y-92505218D01*
X151250781Y-92505220D01*
X151295374Y-92519709D01*
X151445465Y-92568477D01*
X151546557Y-92584488D01*
X151647648Y-92600500D01*
X151647649Y-92600500D01*
X151852351Y-92600500D01*
X151852352Y-92600500D01*
X152054534Y-92568477D01*
X152249219Y-92505220D01*
X152431610Y-92412287D01*
X152524590Y-92344732D01*
X152597213Y-92291971D01*
X152597215Y-92291968D01*
X152597219Y-92291966D01*
X152741966Y-92147219D01*
X152741968Y-92147215D01*
X152741971Y-92147213D01*
X152794732Y-92074590D01*
X152862287Y-91981610D01*
X152889515Y-91928171D01*
X152937490Y-91877376D01*
X153005311Y-91860581D01*
X153071446Y-91883118D01*
X153110485Y-91928172D01*
X153137715Y-91981613D01*
X153258028Y-92147213D01*
X153402786Y-92291971D01*
X153509531Y-92369524D01*
X153568390Y-92412287D01*
X153659838Y-92458882D01*
X153750776Y-92505218D01*
X153750778Y-92505218D01*
X153750781Y-92505220D01*
X153795374Y-92519709D01*
X153945465Y-92568477D01*
X154046557Y-92584488D01*
X154147648Y-92600500D01*
X154147649Y-92600500D01*
X154352351Y-92600500D01*
X154352352Y-92600500D01*
X154554534Y-92568477D01*
X154749219Y-92505220D01*
X154931610Y-92412287D01*
X155024590Y-92344732D01*
X155097213Y-92291971D01*
X155097215Y-92291968D01*
X155097219Y-92291966D01*
X155241966Y-92147219D01*
X155241968Y-92147215D01*
X155241971Y-92147213D01*
X155294732Y-92074590D01*
X155362287Y-91981610D01*
X155455220Y-91799219D01*
X155518477Y-91604534D01*
X155550500Y-91402352D01*
X155550500Y-91197648D01*
X155526747Y-91047682D01*
X155518477Y-90995465D01*
X155464688Y-90829920D01*
X155455220Y-90800781D01*
X155455218Y-90800778D01*
X155455218Y-90800776D01*
X155378886Y-90650968D01*
X155362287Y-90618390D01*
X155337893Y-90584814D01*
X155241971Y-90452786D01*
X155097213Y-90308028D01*
X154931613Y-90187715D01*
X154931612Y-90187714D01*
X154931610Y-90187713D01*
X154874653Y-90158691D01*
X154749223Y-90094781D01*
X154554534Y-90031522D01*
X154379995Y-90003878D01*
X154352352Y-89999500D01*
X154147648Y-89999500D01*
X154123329Y-90003351D01*
X153945465Y-90031522D01*
X153750776Y-90094781D01*
X153568386Y-90187715D01*
X153402786Y-90308028D01*
X153258028Y-90452786D01*
X153137713Y-90618388D01*
X153110484Y-90671828D01*
X153062510Y-90722623D01*
X152994688Y-90739418D01*
X152928554Y-90716880D01*
X152889516Y-90671828D01*
X152862286Y-90618388D01*
X152741971Y-90452786D01*
X152597213Y-90308028D01*
X152431613Y-90187715D01*
X152431612Y-90187714D01*
X152431610Y-90187713D01*
X152374653Y-90158691D01*
X152249223Y-90094781D01*
X152054534Y-90031522D01*
X151879995Y-90003878D01*
X151852352Y-89999500D01*
X151647648Y-89999500D01*
X151623329Y-90003351D01*
X151445465Y-90031522D01*
X151250776Y-90094781D01*
X151068386Y-90187715D01*
X150902786Y-90308028D01*
X150758028Y-90452786D01*
X150637715Y-90618386D01*
X150544781Y-90800776D01*
X150481522Y-90995465D01*
X150449500Y-91197648D01*
X149099878Y-91197648D01*
X149069709Y-91007173D01*
X149036359Y-90904534D01*
X149008884Y-90819975D01*
X149008882Y-90819972D01*
X149008882Y-90819970D01*
X148948952Y-90702351D01*
X148919524Y-90644595D01*
X148803828Y-90485354D01*
X148664646Y-90346172D01*
X148505405Y-90230476D01*
X148483553Y-90219342D01*
X148330029Y-90141117D01*
X148142826Y-90080290D01*
X147948422Y-90049500D01*
X147948417Y-90049500D01*
X147751583Y-90049500D01*
X147751578Y-90049500D01*
X147557173Y-90080290D01*
X147369970Y-90141117D01*
X147194594Y-90230476D01*
X147138261Y-90271405D01*
X147035354Y-90346172D01*
X147035352Y-90346174D01*
X147035351Y-90346174D01*
X146896174Y-90485351D01*
X146896174Y-90485352D01*
X146896172Y-90485354D01*
X146856395Y-90540102D01*
X146780476Y-90644594D01*
X146691117Y-90819970D01*
X146630290Y-91007173D01*
X146599500Y-91201577D01*
X111553066Y-91201577D01*
X111605220Y-91099219D01*
X111668477Y-90904534D01*
X111700500Y-90702352D01*
X111700500Y-90497648D01*
X111680069Y-90368655D01*
X111668477Y-90295465D01*
X111618326Y-90141117D01*
X111605220Y-90100781D01*
X111605218Y-90100778D01*
X111605218Y-90100776D01*
X111559354Y-90010765D01*
X111512287Y-89918390D01*
X111466392Y-89855220D01*
X111391971Y-89752786D01*
X111247213Y-89608028D01*
X111081613Y-89487715D01*
X111081612Y-89487714D01*
X111081610Y-89487713D01*
X111024653Y-89458691D01*
X110899223Y-89394781D01*
X110704534Y-89331522D01*
X110523105Y-89302787D01*
X110502352Y-89299500D01*
X110297648Y-89299500D01*
X110276895Y-89302787D01*
X110095465Y-89331522D01*
X109900776Y-89394781D01*
X109718386Y-89487715D01*
X109552786Y-89608028D01*
X109408028Y-89752786D01*
X109287715Y-89918386D01*
X109194781Y-90100776D01*
X109131522Y-90295465D01*
X109099500Y-90497648D01*
X101526634Y-90497648D01*
X101511859Y-90468650D01*
X101479474Y-90424077D01*
X101479474Y-90424076D01*
X100800000Y-91103551D01*
X100800000Y-91097339D01*
X100772741Y-90995606D01*
X100720080Y-90904394D01*
X100645606Y-90829920D01*
X100554394Y-90777259D01*
X100452661Y-90750000D01*
X100446446Y-90750000D01*
X101125922Y-90070524D01*
X101125921Y-90070523D01*
X101081359Y-90038147D01*
X101081350Y-90038141D01*
X101027621Y-90010765D01*
X100976825Y-89962791D01*
X100960030Y-89894970D01*
X100982567Y-89828835D01*
X101027621Y-89789795D01*
X101081610Y-89762287D01*
X101134819Y-89723629D01*
X101247213Y-89641971D01*
X101247215Y-89641968D01*
X101247219Y-89641966D01*
X101391966Y-89497219D01*
X101391968Y-89497215D01*
X101391971Y-89497213D01*
X101466391Y-89394781D01*
X101512287Y-89331610D01*
X101605220Y-89149219D01*
X101612229Y-89127648D01*
X116249500Y-89127648D01*
X116249500Y-89332351D01*
X116281522Y-89534534D01*
X116344781Y-89729223D01*
X116375645Y-89789795D01*
X116429234Y-89894970D01*
X116437715Y-89911613D01*
X116558028Y-90077213D01*
X116702786Y-90221971D01*
X116821236Y-90308028D01*
X116868390Y-90342287D01*
X116984607Y-90401503D01*
X117050776Y-90435218D01*
X117050778Y-90435218D01*
X117050781Y-90435220D01*
X117104844Y-90452786D01*
X117245465Y-90498477D01*
X117346557Y-90514488D01*
X117447648Y-90530500D01*
X117447649Y-90530500D01*
X117652351Y-90530500D01*
X117652352Y-90530500D01*
X117854534Y-90498477D01*
X118049219Y-90435220D01*
X118231610Y-90342287D01*
X118324590Y-90274732D01*
X118397213Y-90221971D01*
X118397215Y-90221968D01*
X118397219Y-90221966D01*
X118541966Y-90077219D01*
X118541968Y-90077215D01*
X118541971Y-90077213D01*
X118634384Y-89950015D01*
X118662287Y-89911610D01*
X118755220Y-89729219D01*
X118818477Y-89534534D01*
X118850500Y-89332352D01*
X118850500Y-89127648D01*
X118819585Y-88932463D01*
X118818477Y-88925465D01*
X118762229Y-88752352D01*
X118755220Y-88730781D01*
X118755218Y-88730778D01*
X118755218Y-88730776D01*
X118662287Y-88548390D01*
X118568803Y-88419719D01*
X118568802Y-88419716D01*
X118541971Y-88382787D01*
X118541967Y-88382782D01*
X118509168Y-88349983D01*
X121359500Y-88349983D01*
X121359500Y-89950001D01*
X121359501Y-89950018D01*
X121370000Y-90052796D01*
X121370001Y-90052799D01*
X121425185Y-90219331D01*
X121425187Y-90219336D01*
X121432058Y-90230476D01*
X121517288Y-90368656D01*
X121641344Y-90492712D01*
X121790666Y-90584814D01*
X121957203Y-90639999D01*
X122059991Y-90650500D01*
X123660008Y-90650499D01*
X123762797Y-90639999D01*
X123929334Y-90584814D01*
X124078656Y-90492712D01*
X124202712Y-90368656D01*
X124294814Y-90219334D01*
X124349999Y-90052797D01*
X124360500Y-89950009D01*
X124360499Y-89887305D01*
X124380183Y-89820269D01*
X124396818Y-89799626D01*
X124835387Y-89361058D01*
X124840889Y-89381591D01*
X124919881Y-89518408D01*
X125031592Y-89630119D01*
X125168409Y-89709111D01*
X125188940Y-89714612D01*
X124530893Y-90372658D01*
X124613828Y-90432914D01*
X124824197Y-90540102D01*
X125048752Y-90613065D01*
X125048751Y-90613065D01*
X125281948Y-90650000D01*
X125518052Y-90650000D01*
X125751247Y-90613065D01*
X125975802Y-90540102D01*
X126186163Y-90432918D01*
X126186169Y-90432914D01*
X126269104Y-90372658D01*
X126269105Y-90372658D01*
X125611058Y-89714612D01*
X125631591Y-89709111D01*
X125768408Y-89630119D01*
X125880119Y-89518408D01*
X125959111Y-89381591D01*
X125964612Y-89361059D01*
X126622658Y-90019105D01*
X126622658Y-90019104D01*
X126682914Y-89936169D01*
X126682918Y-89936163D01*
X126790102Y-89725802D01*
X126863065Y-89501247D01*
X126900000Y-89268052D01*
X126900000Y-89031947D01*
X126863065Y-88798752D01*
X126790102Y-88574197D01*
X126682914Y-88363828D01*
X126622658Y-88280894D01*
X126622658Y-88280893D01*
X125964612Y-88938940D01*
X125959111Y-88918409D01*
X125880119Y-88781592D01*
X125768408Y-88669881D01*
X125631591Y-88590889D01*
X125611059Y-88585387D01*
X126269105Y-87927340D01*
X126269104Y-87927338D01*
X126186174Y-87867087D01*
X125975802Y-87759897D01*
X125751247Y-87686934D01*
X125751248Y-87686934D01*
X125518052Y-87650000D01*
X125281948Y-87650000D01*
X125048752Y-87686934D01*
X124824197Y-87759897D01*
X124613830Y-87867084D01*
X124530894Y-87927340D01*
X125188941Y-88585387D01*
X125168409Y-88590889D01*
X125031592Y-88669881D01*
X124919881Y-88781592D01*
X124840889Y-88918409D01*
X124835387Y-88938941D01*
X124396818Y-88500372D01*
X124363333Y-88439049D01*
X124360499Y-88412691D01*
X124360499Y-88349998D01*
X124360498Y-88349981D01*
X124349999Y-88247203D01*
X124349998Y-88247200D01*
X124326110Y-88175112D01*
X124294814Y-88080666D01*
X124202712Y-87931344D01*
X124078656Y-87807288D01*
X123929334Y-87715186D01*
X123762797Y-87660001D01*
X123762795Y-87660000D01*
X123660010Y-87649500D01*
X122059998Y-87649500D01*
X122059981Y-87649501D01*
X121957203Y-87660000D01*
X121957200Y-87660001D01*
X121790668Y-87715185D01*
X121790663Y-87715187D01*
X121641342Y-87807289D01*
X121517289Y-87931342D01*
X121425187Y-88080663D01*
X121425186Y-88080666D01*
X121370001Y-88247203D01*
X121370001Y-88247204D01*
X121370000Y-88247204D01*
X121359500Y-88349983D01*
X118509168Y-88349983D01*
X118397213Y-88238028D01*
X118231613Y-88117715D01*
X118231612Y-88117714D01*
X118231610Y-88117713D01*
X118158905Y-88080668D01*
X118049223Y-88024781D01*
X117854534Y-87961522D01*
X117663994Y-87931344D01*
X117652352Y-87929500D01*
X117447648Y-87929500D01*
X117436006Y-87931344D01*
X117245465Y-87961522D01*
X117050776Y-88024781D01*
X116868386Y-88117715D01*
X116702786Y-88238028D01*
X116558028Y-88382786D01*
X116437715Y-88548386D01*
X116344781Y-88730776D01*
X116281522Y-88925465D01*
X116249500Y-89127648D01*
X101612229Y-89127648D01*
X101668477Y-88954534D01*
X101700500Y-88752352D01*
X101700500Y-88547648D01*
X101693012Y-88500372D01*
X101668477Y-88345465D01*
X101627948Y-88220730D01*
X101605220Y-88150781D01*
X101605218Y-88150778D01*
X101605218Y-88150776D01*
X101544944Y-88032483D01*
X101512287Y-87968390D01*
X101485372Y-87931344D01*
X101391971Y-87802786D01*
X101247213Y-87658028D01*
X101081613Y-87537715D01*
X101081612Y-87537714D01*
X101081610Y-87537713D01*
X101024653Y-87508691D01*
X100899223Y-87444781D01*
X100704534Y-87381522D01*
X100529995Y-87353878D01*
X100502352Y-87349500D01*
X100297648Y-87349500D01*
X100273329Y-87353351D01*
X100095465Y-87381522D01*
X99900776Y-87444781D01*
X99718386Y-87537715D01*
X99552786Y-87658028D01*
X99408028Y-87802786D01*
X99287715Y-87968386D01*
X99194781Y-88150776D01*
X99131522Y-88345465D01*
X99099500Y-88547648D01*
X94950500Y-88547648D01*
X94950500Y-88488543D01*
X94921404Y-88267537D01*
X94863710Y-88052219D01*
X94852344Y-88024780D01*
X94812878Y-87929500D01*
X94778405Y-87846274D01*
X94666948Y-87653226D01*
X94531247Y-87476376D01*
X94531242Y-87476370D01*
X94373629Y-87318757D01*
X94373622Y-87318751D01*
X94196782Y-87183058D01*
X94196780Y-87183057D01*
X94196774Y-87183052D01*
X94003726Y-87071595D01*
X94003722Y-87071593D01*
X93797790Y-86986293D01*
X93797783Y-86986291D01*
X93797781Y-86986290D01*
X93582463Y-86928596D01*
X93582457Y-86928595D01*
X93582452Y-86928594D01*
X93361466Y-86899501D01*
X93361463Y-86899500D01*
X93361457Y-86899500D01*
X93138543Y-86899500D01*
X93138537Y-86899500D01*
X93138533Y-86899501D01*
X92917547Y-86928594D01*
X92917540Y-86928595D01*
X92917537Y-86928596D01*
X92835790Y-86950500D01*
X92702219Y-86986290D01*
X92702209Y-86986293D01*
X92496277Y-87071593D01*
X92496273Y-87071595D01*
X92303226Y-87183052D01*
X92303217Y-87183058D01*
X92126377Y-87318751D01*
X92126370Y-87318757D01*
X91968757Y-87476370D01*
X91968751Y-87476377D01*
X91833058Y-87653217D01*
X91833052Y-87653226D01*
X91721595Y-87846273D01*
X91721593Y-87846277D01*
X91636293Y-88052209D01*
X91636290Y-88052219D01*
X91584045Y-88247203D01*
X91578597Y-88267534D01*
X91578594Y-88267547D01*
X91549501Y-88488533D01*
X91549500Y-88488549D01*
X88084499Y-88488549D01*
X88063461Y-88382787D01*
X88061091Y-88370873D01*
X88027673Y-88290198D01*
X88020205Y-88220730D01*
X88039964Y-88175340D01*
X88039547Y-88175112D01*
X88042095Y-88170444D01*
X88042972Y-88168431D01*
X88043796Y-88167331D01*
X88094091Y-88032483D01*
X88100500Y-87972873D01*
X88100499Y-86827128D01*
X88094091Y-86767517D01*
X88069095Y-86700500D01*
X88043797Y-86632671D01*
X88043793Y-86632664D01*
X87957547Y-86517455D01*
X87957544Y-86517452D01*
X87842335Y-86431206D01*
X87842328Y-86431202D01*
X87707482Y-86380908D01*
X87707483Y-86380908D01*
X87647883Y-86374501D01*
X87647881Y-86374500D01*
X87647873Y-86374500D01*
X87647864Y-86374500D01*
X86052129Y-86374500D01*
X86052123Y-86374501D01*
X85992516Y-86380908D01*
X85857671Y-86431202D01*
X85857664Y-86431206D01*
X85742455Y-86517452D01*
X85742452Y-86517455D01*
X85656206Y-86632664D01*
X85656202Y-86632671D01*
X85605908Y-86767517D01*
X85599501Y-86827116D01*
X85599501Y-86827123D01*
X85599500Y-86827135D01*
X53062396Y-86827135D01*
X53118477Y-86654534D01*
X53150500Y-86452352D01*
X53150500Y-86247648D01*
X53149097Y-86238793D01*
X53118477Y-86045465D01*
X53072019Y-85902483D01*
X53055220Y-85850781D01*
X53055218Y-85850778D01*
X53055218Y-85850776D01*
X52980703Y-85704534D01*
X52962287Y-85668390D01*
X52954556Y-85657749D01*
X52841971Y-85502786D01*
X52697213Y-85358028D01*
X52614105Y-85297648D01*
X104499500Y-85297648D01*
X104499500Y-85502351D01*
X104531522Y-85704534D01*
X104594781Y-85899223D01*
X104687715Y-86081613D01*
X104808028Y-86247213D01*
X104952786Y-86391971D01*
X105107749Y-86504556D01*
X105118390Y-86512287D01*
X105234607Y-86571503D01*
X105300776Y-86605218D01*
X105300778Y-86605218D01*
X105300781Y-86605220D01*
X105405137Y-86639127D01*
X105495465Y-86668477D01*
X105596557Y-86684488D01*
X105697648Y-86700500D01*
X105697649Y-86700500D01*
X105902351Y-86700500D01*
X105902352Y-86700500D01*
X106104534Y-86668477D01*
X106299219Y-86605220D01*
X106481610Y-86512287D01*
X106574590Y-86444732D01*
X106647213Y-86391971D01*
X106647215Y-86391968D01*
X106647219Y-86391966D01*
X106791966Y-86247219D01*
X106791968Y-86247215D01*
X106791971Y-86247213D01*
X106844732Y-86174590D01*
X106912287Y-86081610D01*
X106939515Y-86028171D01*
X106987490Y-85977376D01*
X107055311Y-85960581D01*
X107121446Y-85983118D01*
X107160485Y-86028172D01*
X107187715Y-86081613D01*
X107308028Y-86247213D01*
X107452786Y-86391971D01*
X107607749Y-86504556D01*
X107618390Y-86512287D01*
X107734607Y-86571503D01*
X107800776Y-86605218D01*
X107800778Y-86605218D01*
X107800781Y-86605220D01*
X107905137Y-86639127D01*
X107995465Y-86668477D01*
X108096557Y-86684488D01*
X108197648Y-86700500D01*
X108197649Y-86700500D01*
X108402351Y-86700500D01*
X108402352Y-86700500D01*
X108604534Y-86668477D01*
X108799219Y-86605220D01*
X108981610Y-86512287D01*
X109074590Y-86444732D01*
X109147213Y-86391971D01*
X109147215Y-86391968D01*
X109147219Y-86391966D01*
X109291966Y-86247219D01*
X109291968Y-86247215D01*
X109291971Y-86247213D01*
X109344732Y-86174590D01*
X109412287Y-86081610D01*
X109505220Y-85899219D01*
X109568477Y-85704534D01*
X109600500Y-85502352D01*
X109600500Y-85297648D01*
X109568477Y-85095466D01*
X109563946Y-85081522D01*
X109522908Y-84955220D01*
X109505220Y-84900781D01*
X109505218Y-84900778D01*
X109505218Y-84900776D01*
X109462470Y-84816880D01*
X109412287Y-84718390D01*
X109400531Y-84702209D01*
X109291971Y-84552786D01*
X109147213Y-84408028D01*
X108981613Y-84287715D01*
X108981612Y-84287714D01*
X108981610Y-84287713D01*
X108924653Y-84258691D01*
X108799223Y-84194781D01*
X108604534Y-84131522D01*
X108427941Y-84103553D01*
X108402352Y-84099500D01*
X108197648Y-84099500D01*
X108173329Y-84103351D01*
X107995465Y-84131522D01*
X107800776Y-84194781D01*
X107618386Y-84287715D01*
X107452786Y-84408028D01*
X107308028Y-84552786D01*
X107187713Y-84718388D01*
X107160484Y-84771828D01*
X107112510Y-84822623D01*
X107044688Y-84839418D01*
X106978554Y-84816880D01*
X106939516Y-84771828D01*
X106912286Y-84718388D01*
X106791971Y-84552786D01*
X106647213Y-84408028D01*
X106481613Y-84287715D01*
X106481612Y-84287714D01*
X106481610Y-84287713D01*
X106424653Y-84258691D01*
X106299223Y-84194781D01*
X106104534Y-84131522D01*
X105927941Y-84103553D01*
X105902352Y-84099500D01*
X105697648Y-84099500D01*
X105673329Y-84103351D01*
X105495465Y-84131522D01*
X105300776Y-84194781D01*
X105118386Y-84287715D01*
X104952786Y-84408028D01*
X104808028Y-84552786D01*
X104687715Y-84718386D01*
X104594781Y-84900776D01*
X104531522Y-85095465D01*
X104499500Y-85297648D01*
X52614105Y-85297648D01*
X52531613Y-85237715D01*
X52531612Y-85237714D01*
X52531610Y-85237713D01*
X52474653Y-85208691D01*
X52349223Y-85144781D01*
X52154534Y-85081522D01*
X51979995Y-85053878D01*
X51952352Y-85049500D01*
X51747648Y-85049500D01*
X51723329Y-85053351D01*
X51545465Y-85081522D01*
X51350776Y-85144781D01*
X51168386Y-85237715D01*
X51002786Y-85358028D01*
X50858028Y-85502786D01*
X50737715Y-85668386D01*
X50644781Y-85850776D01*
X50581522Y-86045465D01*
X50549500Y-86247648D01*
X49350500Y-86247648D01*
X49350500Y-81317648D01*
X65599500Y-81317648D01*
X65599500Y-81522352D01*
X65601198Y-81533070D01*
X65631522Y-81724534D01*
X65694781Y-81919223D01*
X65787715Y-82101613D01*
X65908028Y-82267213D01*
X66052786Y-82411971D01*
X66173599Y-82499745D01*
X66218390Y-82532287D01*
X66326337Y-82587289D01*
X66400776Y-82625218D01*
X66400778Y-82625218D01*
X66400781Y-82625220D01*
X66477043Y-82649999D01*
X66595465Y-82688477D01*
X66685019Y-82702661D01*
X66797648Y-82720500D01*
X66797649Y-82720500D01*
X67002351Y-82720500D01*
X67002352Y-82720500D01*
X67204534Y-82688477D01*
X67399219Y-82625220D01*
X67581610Y-82532287D01*
X67674590Y-82464732D01*
X67747213Y-82411971D01*
X67747215Y-82411968D01*
X67747219Y-82411966D01*
X67891966Y-82267219D01*
X67891968Y-82267215D01*
X67891971Y-82267213D01*
X67967402Y-82163389D01*
X68012287Y-82101610D01*
X68105220Y-81919219D01*
X68168477Y-81724534D01*
X68200500Y-81522352D01*
X68200500Y-81338549D01*
X70699500Y-81338549D01*
X70699500Y-81561450D01*
X70699501Y-81561466D01*
X70728594Y-81782452D01*
X70728595Y-81782457D01*
X70728596Y-81782463D01*
X70772359Y-81945788D01*
X70786290Y-81997780D01*
X70786293Y-81997790D01*
X70871593Y-82203722D01*
X70871595Y-82203726D01*
X70983052Y-82396774D01*
X70983057Y-82396780D01*
X70983058Y-82396782D01*
X71118751Y-82573622D01*
X71118757Y-82573629D01*
X71276370Y-82731242D01*
X71276377Y-82731248D01*
X71402294Y-82827867D01*
X71453226Y-82866948D01*
X71646274Y-82978405D01*
X71852219Y-83063710D01*
X72067537Y-83121404D01*
X72288543Y-83150500D01*
X72288550Y-83150500D01*
X72511450Y-83150500D01*
X72511457Y-83150500D01*
X72732463Y-83121404D01*
X72947781Y-83063710D01*
X73153726Y-82978405D01*
X73346774Y-82866948D01*
X73523624Y-82731247D01*
X73566322Y-82688549D01*
X85099500Y-82688549D01*
X85099500Y-82911450D01*
X85099501Y-82911466D01*
X85128594Y-83132452D01*
X85128595Y-83132457D01*
X85128596Y-83132463D01*
X85186290Y-83347780D01*
X85186293Y-83347790D01*
X85269845Y-83549501D01*
X85271595Y-83553726D01*
X85383052Y-83746774D01*
X85383057Y-83746780D01*
X85383058Y-83746782D01*
X85518751Y-83923622D01*
X85518757Y-83923629D01*
X85676370Y-84081242D01*
X85676377Y-84081248D01*
X85735191Y-84126377D01*
X85853226Y-84216948D01*
X86046274Y-84328405D01*
X86252219Y-84413710D01*
X86467537Y-84471404D01*
X86688543Y-84500500D01*
X86688550Y-84500500D01*
X86911450Y-84500500D01*
X86911457Y-84500500D01*
X87132463Y-84471404D01*
X87347781Y-84413710D01*
X87553726Y-84328405D01*
X87746774Y-84216948D01*
X87923624Y-84081247D01*
X88081247Y-83923624D01*
X88216948Y-83746774D01*
X88328405Y-83553726D01*
X88413710Y-83347781D01*
X88471404Y-83132463D01*
X88500500Y-82911457D01*
X88500500Y-82688543D01*
X88493918Y-82638549D01*
X91799500Y-82638549D01*
X91799500Y-82861450D01*
X91799501Y-82861466D01*
X91828594Y-83082452D01*
X91828595Y-83082457D01*
X91828596Y-83082463D01*
X91886290Y-83297780D01*
X91886293Y-83297790D01*
X91971593Y-83503722D01*
X91971595Y-83503726D01*
X92083052Y-83696774D01*
X92083057Y-83696780D01*
X92083058Y-83696782D01*
X92218751Y-83873622D01*
X92218757Y-83873629D01*
X92376370Y-84031242D01*
X92376377Y-84031248D01*
X92495614Y-84122741D01*
X92553226Y-84166948D01*
X92746274Y-84278405D01*
X92952219Y-84363710D01*
X93167537Y-84421404D01*
X93388543Y-84450500D01*
X93388550Y-84450500D01*
X93611450Y-84450500D01*
X93611457Y-84450500D01*
X93832463Y-84421404D01*
X94047781Y-84363710D01*
X94253726Y-84278405D01*
X94446774Y-84166948D01*
X94623624Y-84031247D01*
X94781247Y-83873624D01*
X94916948Y-83696774D01*
X95028405Y-83503726D01*
X95113710Y-83297781D01*
X95171404Y-83082463D01*
X95200500Y-82861457D01*
X95200500Y-82638543D01*
X95171404Y-82417537D01*
X95113710Y-82202219D01*
X95097626Y-82163389D01*
X122009500Y-82163389D01*
X122009500Y-83136611D01*
X122011700Y-83150500D01*
X122036579Y-83307585D01*
X122036598Y-83307701D01*
X122090127Y-83472445D01*
X122168768Y-83626788D01*
X122270586Y-83766928D01*
X122393072Y-83889414D01*
X122533212Y-83991232D01*
X122687555Y-84069873D01*
X122852299Y-84123402D01*
X123023389Y-84150500D01*
X123023390Y-84150500D01*
X123196610Y-84150500D01*
X123196611Y-84150500D01*
X123367701Y-84123402D01*
X123532445Y-84069873D01*
X123686788Y-83991232D01*
X123826928Y-83889414D01*
X123949414Y-83766928D01*
X124051232Y-83626788D01*
X124129873Y-83472445D01*
X124183402Y-83307701D01*
X124210500Y-83136611D01*
X124210500Y-82163428D01*
X124550000Y-82163428D01*
X124550000Y-83136571D01*
X124577086Y-83307585D01*
X124577086Y-83307588D01*
X124592235Y-83354211D01*
X124592236Y-83354211D01*
X125250000Y-82696447D01*
X125250000Y-82702661D01*
X125277259Y-82804394D01*
X125329920Y-82895606D01*
X125404394Y-82970080D01*
X125495606Y-83022741D01*
X125597339Y-83050000D01*
X125603552Y-83050000D01*
X124848958Y-83804592D01*
X124848958Y-83804593D01*
X124933397Y-83889032D01*
X125073475Y-83990804D01*
X125227742Y-84069408D01*
X125392415Y-84122914D01*
X125563429Y-84150000D01*
X125736571Y-84150000D01*
X125907584Y-84122914D01*
X126072257Y-84069408D01*
X126226524Y-83990804D01*
X126366601Y-83889033D01*
X126451041Y-83804592D01*
X125696448Y-83050000D01*
X125702661Y-83050000D01*
X125804394Y-83022741D01*
X125895606Y-82970080D01*
X125970080Y-82895606D01*
X126022741Y-82804394D01*
X126050000Y-82702661D01*
X126050000Y-82696449D01*
X126707762Y-83354211D01*
X126707763Y-83354211D01*
X126722913Y-83307585D01*
X126722914Y-83307582D01*
X126750000Y-83136571D01*
X126750000Y-82163428D01*
X126749994Y-82163389D01*
X127089500Y-82163389D01*
X127089500Y-83136611D01*
X127091700Y-83150500D01*
X127116579Y-83307585D01*
X127116598Y-83307701D01*
X127170127Y-83472445D01*
X127248768Y-83626788D01*
X127350586Y-83766928D01*
X127473072Y-83889414D01*
X127613212Y-83991232D01*
X127767555Y-84069873D01*
X127932299Y-84123402D01*
X128103389Y-84150500D01*
X128103390Y-84150500D01*
X128276610Y-84150500D01*
X128276611Y-84150500D01*
X128447701Y-84123402D01*
X128612445Y-84069873D01*
X128766788Y-83991232D01*
X128893745Y-83898992D01*
X131849500Y-83898992D01*
X131849500Y-84101007D01*
X131888907Y-84299119D01*
X131888909Y-84299127D01*
X131922325Y-84379800D01*
X131929794Y-84449270D01*
X131910038Y-84494660D01*
X131910454Y-84494887D01*
X131907919Y-84499528D01*
X131907037Y-84501556D01*
X131906206Y-84502665D01*
X131906202Y-84502672D01*
X131855908Y-84637517D01*
X131854711Y-84648655D01*
X131849501Y-84697123D01*
X131849500Y-84697135D01*
X131849500Y-85842870D01*
X131849501Y-85842876D01*
X131855908Y-85902483D01*
X131906202Y-86037328D01*
X131906206Y-86037335D01*
X131992452Y-86152544D01*
X131992455Y-86152547D01*
X132107664Y-86238793D01*
X132107671Y-86238797D01*
X132242517Y-86289091D01*
X132242516Y-86289091D01*
X132249444Y-86289835D01*
X132302127Y-86295500D01*
X133897872Y-86295499D01*
X133957483Y-86289091D01*
X134092331Y-86238796D01*
X134207546Y-86152546D01*
X134293796Y-86037331D01*
X134344091Y-85902483D01*
X134350500Y-85842873D01*
X134350499Y-85138549D01*
X139299500Y-85138549D01*
X139299500Y-85361450D01*
X139299501Y-85361466D01*
X139328594Y-85582452D01*
X139328595Y-85582457D01*
X139328596Y-85582463D01*
X139328597Y-85582465D01*
X139386290Y-85797780D01*
X139386293Y-85797790D01*
X139460680Y-85977376D01*
X139471595Y-86003726D01*
X139583052Y-86196774D01*
X139583057Y-86196780D01*
X139583058Y-86196782D01*
X139718751Y-86373622D01*
X139718757Y-86373629D01*
X139876370Y-86531242D01*
X139876376Y-86531247D01*
X140053226Y-86666948D01*
X140246274Y-86778405D01*
X140263372Y-86785487D01*
X140417234Y-86849219D01*
X140452219Y-86863710D01*
X140667537Y-86921404D01*
X140888543Y-86950500D01*
X140888550Y-86950500D01*
X141111450Y-86950500D01*
X141111457Y-86950500D01*
X141332463Y-86921404D01*
X141547781Y-86863710D01*
X141753726Y-86778405D01*
X141946774Y-86666948D01*
X142123624Y-86531247D01*
X142281247Y-86373624D01*
X142416948Y-86196774D01*
X142528405Y-86003726D01*
X142613710Y-85797781D01*
X142671404Y-85582463D01*
X142700500Y-85361457D01*
X142700500Y-85138543D01*
X142671404Y-84917537D01*
X142613710Y-84702219D01*
X142591521Y-84648651D01*
X142531055Y-84502672D01*
X142528405Y-84496274D01*
X142416948Y-84303226D01*
X142312378Y-84166947D01*
X142281248Y-84126377D01*
X142281242Y-84126370D01*
X142123629Y-83968757D01*
X142123622Y-83968751D01*
X141946782Y-83833058D01*
X141946780Y-83833057D01*
X141946774Y-83833052D01*
X141753726Y-83721595D01*
X141753722Y-83721593D01*
X141547790Y-83636293D01*
X141547783Y-83636291D01*
X141547781Y-83636290D01*
X141332463Y-83578596D01*
X141332457Y-83578595D01*
X141332452Y-83578594D01*
X141111466Y-83549501D01*
X141111463Y-83549500D01*
X141111457Y-83549500D01*
X140888543Y-83549500D01*
X140888537Y-83549500D01*
X140888533Y-83549501D01*
X140667547Y-83578594D01*
X140667540Y-83578595D01*
X140667537Y-83578596D01*
X140604055Y-83595606D01*
X140452219Y-83636290D01*
X140452209Y-83636293D01*
X140246277Y-83721593D01*
X140246273Y-83721595D01*
X140053226Y-83833052D01*
X140053217Y-83833058D01*
X139876377Y-83968751D01*
X139876370Y-83968757D01*
X139718757Y-84126370D01*
X139718751Y-84126377D01*
X139583058Y-84303217D01*
X139583052Y-84303226D01*
X139471595Y-84496273D01*
X139471593Y-84496277D01*
X139386293Y-84702209D01*
X139386290Y-84702219D01*
X139328597Y-84917534D01*
X139328594Y-84917547D01*
X139299501Y-85138533D01*
X139299500Y-85138549D01*
X134350499Y-85138549D01*
X134350499Y-84697128D01*
X134344091Y-84637517D01*
X134312488Y-84552786D01*
X134293797Y-84502671D01*
X134293796Y-84502670D01*
X134293796Y-84502669D01*
X134292967Y-84501562D01*
X134292485Y-84500268D01*
X134289546Y-84494886D01*
X134290319Y-84494463D01*
X134268551Y-84436099D01*
X134277675Y-84379798D01*
X134284340Y-84363709D01*
X134311091Y-84299127D01*
X134350500Y-84101003D01*
X134350500Y-83898997D01*
X134311091Y-83700873D01*
X134233786Y-83514244D01*
X134179794Y-83433439D01*
X134158917Y-83366764D01*
X134177401Y-83299384D01*
X134179796Y-83295658D01*
X134233344Y-83215518D01*
X134233346Y-83215515D01*
X134268774Y-83129984D01*
X146599500Y-83129984D01*
X146599500Y-84230015D01*
X146610000Y-84332795D01*
X146610001Y-84332796D01*
X146665186Y-84499335D01*
X146665187Y-84499337D01*
X146757286Y-84648651D01*
X146757289Y-84648655D01*
X146881344Y-84772710D01*
X146881348Y-84772713D01*
X147030662Y-84864812D01*
X147030664Y-84864813D01*
X147030666Y-84864814D01*
X147197203Y-84919999D01*
X147299992Y-84930500D01*
X147299997Y-84930500D01*
X148400003Y-84930500D01*
X148400008Y-84930500D01*
X148502797Y-84919999D01*
X148669334Y-84864814D01*
X148818655Y-84772711D01*
X148942711Y-84648655D01*
X149034814Y-84499334D01*
X149089999Y-84332797D01*
X149100500Y-84230008D01*
X149100500Y-83647648D01*
X150449500Y-83647648D01*
X150449500Y-83852351D01*
X150481522Y-84054534D01*
X150544781Y-84249223D01*
X150587365Y-84332797D01*
X150637585Y-84431359D01*
X150637715Y-84431613D01*
X150758028Y-84597213D01*
X150902786Y-84741971D01*
X151023226Y-84829474D01*
X151068390Y-84862287D01*
X151143929Y-84900776D01*
X151250776Y-84955218D01*
X151250778Y-84955218D01*
X151250781Y-84955220D01*
X151355137Y-84989127D01*
X151445465Y-85018477D01*
X151546557Y-85034488D01*
X151647648Y-85050500D01*
X151647649Y-85050500D01*
X151852351Y-85050500D01*
X151852352Y-85050500D01*
X152054534Y-85018477D01*
X152249219Y-84955220D01*
X152431610Y-84862287D01*
X152554902Y-84772711D01*
X152597213Y-84741971D01*
X152597215Y-84741968D01*
X152597219Y-84741966D01*
X152741966Y-84597219D01*
X152741968Y-84597215D01*
X152741971Y-84597213D01*
X152849456Y-84449270D01*
X152862287Y-84431610D01*
X152889795Y-84377621D01*
X152937769Y-84326826D01*
X153005589Y-84310030D01*
X153071725Y-84332567D01*
X153110765Y-84377621D01*
X153138141Y-84431350D01*
X153138147Y-84431359D01*
X153170523Y-84475921D01*
X153170524Y-84475922D01*
X153850000Y-83796446D01*
X153850000Y-83802661D01*
X153877259Y-83904394D01*
X153929920Y-83995606D01*
X154004394Y-84070080D01*
X154095606Y-84122741D01*
X154197339Y-84150000D01*
X154203553Y-84150000D01*
X153524076Y-84829474D01*
X153568650Y-84861859D01*
X153750968Y-84954755D01*
X153945582Y-85017990D01*
X154147683Y-85050000D01*
X154352317Y-85050000D01*
X154554417Y-85017990D01*
X154749031Y-84954755D01*
X154931349Y-84861859D01*
X154975921Y-84829474D01*
X154296447Y-84150000D01*
X154302661Y-84150000D01*
X154404394Y-84122741D01*
X154495606Y-84070080D01*
X154570080Y-83995606D01*
X154622741Y-83904394D01*
X154650000Y-83802661D01*
X154650000Y-83796447D01*
X155329474Y-84475921D01*
X155361859Y-84431349D01*
X155454755Y-84249031D01*
X155517990Y-84054417D01*
X155550000Y-83852317D01*
X155550000Y-83647682D01*
X155517990Y-83445582D01*
X155454755Y-83250968D01*
X155361859Y-83068650D01*
X155329474Y-83024077D01*
X155329474Y-83024076D01*
X154650000Y-83703551D01*
X154650000Y-83697339D01*
X154622741Y-83595606D01*
X154570080Y-83504394D01*
X154495606Y-83429920D01*
X154404394Y-83377259D01*
X154302661Y-83350000D01*
X154296446Y-83350000D01*
X154975922Y-82670524D01*
X154975921Y-82670523D01*
X154931359Y-82638147D01*
X154931350Y-82638141D01*
X154749031Y-82545244D01*
X154554417Y-82482009D01*
X154352317Y-82450000D01*
X154147683Y-82450000D01*
X153945582Y-82482009D01*
X153750968Y-82545244D01*
X153568644Y-82638143D01*
X153524077Y-82670523D01*
X153524077Y-82670524D01*
X154203554Y-83350000D01*
X154197339Y-83350000D01*
X154095606Y-83377259D01*
X154004394Y-83429920D01*
X153929920Y-83504394D01*
X153877259Y-83595606D01*
X153850000Y-83697339D01*
X153850000Y-83703553D01*
X153170524Y-83024077D01*
X153170523Y-83024077D01*
X153138143Y-83068644D01*
X153110765Y-83122378D01*
X153062790Y-83173174D01*
X152994969Y-83189969D01*
X152928834Y-83167431D01*
X152889795Y-83122378D01*
X152862287Y-83068390D01*
X152862285Y-83068387D01*
X152862284Y-83068385D01*
X152741971Y-82902786D01*
X152597213Y-82758028D01*
X152431613Y-82637715D01*
X152431612Y-82637714D01*
X152431610Y-82637713D01*
X152351320Y-82596803D01*
X152249223Y-82544781D01*
X152054534Y-82481522D01*
X151879995Y-82453878D01*
X151852352Y-82449500D01*
X151647648Y-82449500D01*
X151623329Y-82453351D01*
X151445465Y-82481522D01*
X151250776Y-82544781D01*
X151068386Y-82637715D01*
X150902786Y-82758028D01*
X150758028Y-82902786D01*
X150637715Y-83068386D01*
X150544781Y-83250776D01*
X150481522Y-83445465D01*
X150449500Y-83647648D01*
X149100500Y-83647648D01*
X149100500Y-83129992D01*
X149089999Y-83027203D01*
X149034814Y-82860666D01*
X148971509Y-82758034D01*
X148942713Y-82711348D01*
X148942710Y-82711344D01*
X148818655Y-82587289D01*
X148818651Y-82587286D01*
X148669337Y-82495187D01*
X148669335Y-82495186D01*
X148585886Y-82467534D01*
X148502797Y-82440001D01*
X148502795Y-82440000D01*
X148400015Y-82429500D01*
X148400008Y-82429500D01*
X147299992Y-82429500D01*
X147299984Y-82429500D01*
X147197204Y-82440000D01*
X147197203Y-82440001D01*
X147030664Y-82495186D01*
X147030662Y-82495187D01*
X146881348Y-82587286D01*
X146881344Y-82587289D01*
X146757289Y-82711344D01*
X146757286Y-82711348D01*
X146665187Y-82860662D01*
X146665186Y-82860664D01*
X146610001Y-83027203D01*
X146610000Y-83027204D01*
X146599500Y-83129984D01*
X134268774Y-83129984D01*
X134289733Y-83079383D01*
X134289733Y-83079382D01*
X134310610Y-83028979D01*
X134310612Y-83028974D01*
X134320353Y-82980000D01*
X133465866Y-82980000D01*
X133441674Y-82977617D01*
X133426004Y-82974500D01*
X133426003Y-82974500D01*
X133385830Y-82974500D01*
X133400075Y-82960255D01*
X133449444Y-82874745D01*
X133475000Y-82779370D01*
X133475000Y-82680630D01*
X133449444Y-82585255D01*
X133400075Y-82499745D01*
X133380330Y-82480000D01*
X134320353Y-82480000D01*
X134310612Y-82431025D01*
X134310609Y-82431016D01*
X134233347Y-82244486D01*
X134233340Y-82244473D01*
X134121170Y-82076600D01*
X134121167Y-82076596D01*
X133978403Y-81933832D01*
X133978399Y-81933829D01*
X133810526Y-81821659D01*
X133810513Y-81821652D01*
X133623983Y-81744390D01*
X133623974Y-81744387D01*
X133425958Y-81705000D01*
X133350000Y-81705000D01*
X133350000Y-82449670D01*
X133330255Y-82429925D01*
X133244745Y-82380556D01*
X133149370Y-82355000D01*
X133050630Y-82355000D01*
X132955255Y-82380556D01*
X132869745Y-82429925D01*
X132850000Y-82449670D01*
X132850000Y-81705000D01*
X132774041Y-81705000D01*
X132576025Y-81744387D01*
X132576016Y-81744390D01*
X132389486Y-81821652D01*
X132389473Y-81821659D01*
X132221600Y-81933829D01*
X132221596Y-81933832D01*
X132078832Y-82076596D01*
X132078829Y-82076600D01*
X131966659Y-82244473D01*
X131966652Y-82244486D01*
X131889390Y-82431016D01*
X131889387Y-82431025D01*
X131879647Y-82480000D01*
X132819670Y-82480000D01*
X132799925Y-82499745D01*
X132750556Y-82585255D01*
X132725000Y-82680630D01*
X132725000Y-82779370D01*
X132750556Y-82874745D01*
X132799925Y-82960255D01*
X132814170Y-82974500D01*
X132773997Y-82974500D01*
X132773996Y-82974500D01*
X132758326Y-82977617D01*
X132734134Y-82980000D01*
X131879647Y-82980000D01*
X131889387Y-83028974D01*
X131889390Y-83028983D01*
X131966652Y-83215513D01*
X131966659Y-83215526D01*
X132020203Y-83295659D01*
X132041081Y-83362336D01*
X132022597Y-83429716D01*
X132020204Y-83433439D01*
X131966214Y-83514243D01*
X131888909Y-83700872D01*
X131888907Y-83700880D01*
X131849500Y-83898992D01*
X128893745Y-83898992D01*
X128906928Y-83889414D01*
X129029414Y-83766928D01*
X129131232Y-83626788D01*
X129209873Y-83472445D01*
X129263402Y-83307701D01*
X129290500Y-83136611D01*
X129290500Y-82163389D01*
X129263402Y-81992299D01*
X129209873Y-81827555D01*
X129131232Y-81673212D01*
X129029414Y-81533072D01*
X128906928Y-81410586D01*
X128766788Y-81308768D01*
X128612445Y-81230127D01*
X128447701Y-81176598D01*
X128447699Y-81176597D01*
X128447698Y-81176597D01*
X128316271Y-81155781D01*
X128276611Y-81149500D01*
X128103389Y-81149500D01*
X128063728Y-81155781D01*
X127932302Y-81176597D01*
X127767552Y-81230128D01*
X127613211Y-81308768D01*
X127572244Y-81338533D01*
X127473072Y-81410586D01*
X127473070Y-81410588D01*
X127473069Y-81410588D01*
X127350588Y-81533069D01*
X127350588Y-81533070D01*
X127350586Y-81533072D01*
X127306859Y-81593256D01*
X127248768Y-81673211D01*
X127170128Y-81827552D01*
X127116597Y-81992302D01*
X127103246Y-82076600D01*
X127089500Y-82163389D01*
X126749994Y-82163389D01*
X126722914Y-81992420D01*
X126722914Y-81992417D01*
X126707762Y-81945788D01*
X126707762Y-81945787D01*
X126050000Y-82603550D01*
X126050000Y-82597339D01*
X126022741Y-82495606D01*
X125970080Y-82404394D01*
X125895606Y-82329920D01*
X125804394Y-82277259D01*
X125702661Y-82250000D01*
X125696449Y-82250000D01*
X126451041Y-81495406D01*
X126366598Y-81410964D01*
X126226524Y-81309195D01*
X126072257Y-81230591D01*
X125907584Y-81177085D01*
X125736571Y-81150000D01*
X125563429Y-81150000D01*
X125392415Y-81177085D01*
X125227742Y-81230591D01*
X125073471Y-81309198D01*
X124933398Y-81410966D01*
X124848958Y-81495406D01*
X125603552Y-82250000D01*
X125597339Y-82250000D01*
X125495606Y-82277259D01*
X125404394Y-82329920D01*
X125329920Y-82404394D01*
X125277259Y-82495606D01*
X125250000Y-82597339D01*
X125250000Y-82603552D01*
X124592236Y-81945788D01*
X124592235Y-81945788D01*
X124577086Y-81992414D01*
X124550000Y-82163428D01*
X124210500Y-82163428D01*
X124210500Y-82163389D01*
X124183402Y-81992299D01*
X124129873Y-81827555D01*
X124051232Y-81673212D01*
X123949414Y-81533072D01*
X123826928Y-81410586D01*
X123686788Y-81308768D01*
X123532445Y-81230127D01*
X123367701Y-81176598D01*
X123367699Y-81176597D01*
X123367698Y-81176597D01*
X123236271Y-81155781D01*
X123196611Y-81149500D01*
X123023389Y-81149500D01*
X122983728Y-81155781D01*
X122852302Y-81176597D01*
X122687552Y-81230128D01*
X122533211Y-81308768D01*
X122492244Y-81338533D01*
X122393072Y-81410586D01*
X122393070Y-81410588D01*
X122393069Y-81410588D01*
X122270588Y-81533069D01*
X122270588Y-81533070D01*
X122270586Y-81533072D01*
X122226859Y-81593256D01*
X122168768Y-81673211D01*
X122090128Y-81827552D01*
X122036597Y-81992302D01*
X122023246Y-82076600D01*
X122009500Y-82163389D01*
X95097626Y-82163389D01*
X95028405Y-81996274D01*
X94916948Y-81803226D01*
X94781247Y-81626376D01*
X94781242Y-81626370D01*
X94623629Y-81468757D01*
X94623622Y-81468751D01*
X94446782Y-81333058D01*
X94446780Y-81333057D01*
X94446774Y-81333052D01*
X94253726Y-81221595D01*
X94253722Y-81221593D01*
X94047790Y-81136293D01*
X94047783Y-81136291D01*
X94047781Y-81136290D01*
X93832463Y-81078596D01*
X93832457Y-81078595D01*
X93832452Y-81078594D01*
X93611466Y-81049501D01*
X93611463Y-81049500D01*
X93611457Y-81049500D01*
X93388543Y-81049500D01*
X93388537Y-81049500D01*
X93388533Y-81049501D01*
X93167547Y-81078594D01*
X93167540Y-81078595D01*
X93167537Y-81078596D01*
X93022169Y-81117547D01*
X92952219Y-81136290D01*
X92952209Y-81136293D01*
X92746277Y-81221593D01*
X92746273Y-81221595D01*
X92553226Y-81333052D01*
X92553217Y-81333058D01*
X92376377Y-81468751D01*
X92376370Y-81468757D01*
X92218757Y-81626370D01*
X92218751Y-81626377D01*
X92083058Y-81803217D01*
X92083052Y-81803226D01*
X91971595Y-81996273D01*
X91971593Y-81996277D01*
X91886293Y-82202209D01*
X91886290Y-82202219D01*
X91830088Y-82411971D01*
X91828597Y-82417534D01*
X91828594Y-82417547D01*
X91799501Y-82638533D01*
X91799500Y-82638549D01*
X88493918Y-82638549D01*
X88493917Y-82638543D01*
X88481573Y-82544780D01*
X88471404Y-82467537D01*
X88413710Y-82252219D01*
X88328405Y-82046274D01*
X88216948Y-81853226D01*
X88177867Y-81802294D01*
X88081248Y-81676377D01*
X88081242Y-81676370D01*
X87923629Y-81518757D01*
X87923622Y-81518751D01*
X87746782Y-81383058D01*
X87746780Y-81383057D01*
X87746774Y-81383052D01*
X87553726Y-81271595D01*
X87553722Y-81271593D01*
X87347790Y-81186293D01*
X87347783Y-81186291D01*
X87347781Y-81186290D01*
X87132463Y-81128596D01*
X87132457Y-81128595D01*
X87132452Y-81128594D01*
X86911466Y-81099501D01*
X86911463Y-81099500D01*
X86911457Y-81099500D01*
X86688543Y-81099500D01*
X86688537Y-81099500D01*
X86688533Y-81099501D01*
X86467547Y-81128594D01*
X86467540Y-81128595D01*
X86467537Y-81128596D01*
X86389522Y-81149500D01*
X86252219Y-81186290D01*
X86252209Y-81186293D01*
X86046277Y-81271593D01*
X86046273Y-81271595D01*
X85853226Y-81383052D01*
X85853217Y-81383058D01*
X85676377Y-81518751D01*
X85676370Y-81518757D01*
X85518757Y-81676370D01*
X85518751Y-81676377D01*
X85383058Y-81853217D01*
X85383052Y-81853226D01*
X85271595Y-82046273D01*
X85271593Y-82046277D01*
X85186293Y-82252209D01*
X85186290Y-82252219D01*
X85135975Y-82440000D01*
X85128597Y-82467534D01*
X85128594Y-82467547D01*
X85099501Y-82688533D01*
X85099500Y-82688549D01*
X73566322Y-82688549D01*
X73584348Y-82670523D01*
X73658069Y-82596803D01*
X73681242Y-82573629D01*
X73681247Y-82573624D01*
X73816948Y-82396774D01*
X73928405Y-82203726D01*
X74013710Y-81997781D01*
X74071404Y-81782463D01*
X74100500Y-81561457D01*
X74100500Y-81338543D01*
X74071404Y-81117537D01*
X74013710Y-80902219D01*
X73928405Y-80696274D01*
X73816948Y-80503226D01*
X73777867Y-80452294D01*
X73681248Y-80326377D01*
X73681242Y-80326370D01*
X73523629Y-80168757D01*
X73523622Y-80168751D01*
X73346782Y-80033058D01*
X73346780Y-80033057D01*
X73346774Y-80033052D01*
X73153726Y-79921595D01*
X73153722Y-79921593D01*
X72947790Y-79836293D01*
X72947783Y-79836291D01*
X72947781Y-79836290D01*
X72732463Y-79778596D01*
X72732457Y-79778595D01*
X72732452Y-79778594D01*
X72511466Y-79749501D01*
X72511463Y-79749500D01*
X72511457Y-79749500D01*
X72288543Y-79749500D01*
X72288537Y-79749500D01*
X72288533Y-79749501D01*
X72067547Y-79778594D01*
X72067540Y-79778595D01*
X72067537Y-79778596D01*
X71852219Y-79836290D01*
X71852209Y-79836293D01*
X71646277Y-79921593D01*
X71646273Y-79921595D01*
X71453226Y-80033052D01*
X71453217Y-80033058D01*
X71276377Y-80168751D01*
X71276370Y-80168757D01*
X71118757Y-80326370D01*
X71118751Y-80326377D01*
X70983058Y-80503217D01*
X70983052Y-80503226D01*
X70871595Y-80696273D01*
X70871593Y-80696277D01*
X70786293Y-80902209D01*
X70786290Y-80902219D01*
X70746827Y-81049500D01*
X70728597Y-81117534D01*
X70728594Y-81117547D01*
X70699501Y-81338533D01*
X70699500Y-81338549D01*
X68200500Y-81338549D01*
X68200500Y-81317648D01*
X68193206Y-81271595D01*
X68168477Y-81115465D01*
X68105218Y-80920776D01*
X68071503Y-80854607D01*
X68012287Y-80738390D01*
X68004556Y-80727749D01*
X67891971Y-80572786D01*
X67747213Y-80428028D01*
X67581613Y-80307715D01*
X67581612Y-80307714D01*
X67581610Y-80307713D01*
X67524653Y-80278691D01*
X67399223Y-80214781D01*
X67204534Y-80151522D01*
X67029995Y-80123878D01*
X67002352Y-80119500D01*
X66797648Y-80119500D01*
X66773329Y-80123351D01*
X66595465Y-80151522D01*
X66400776Y-80214781D01*
X66218386Y-80307715D01*
X66052786Y-80428028D01*
X65908028Y-80572786D01*
X65787715Y-80738386D01*
X65694781Y-80920776D01*
X65631522Y-81115465D01*
X65606794Y-81271595D01*
X65599500Y-81317648D01*
X49350500Y-81317648D01*
X49350500Y-78538549D01*
X150049500Y-78538549D01*
X150049500Y-78761450D01*
X150049501Y-78761466D01*
X150078594Y-78982452D01*
X150078595Y-78982457D01*
X150078596Y-78982463D01*
X150078597Y-78982465D01*
X150136290Y-79197780D01*
X150136293Y-79197790D01*
X150221593Y-79403722D01*
X150221595Y-79403726D01*
X150333052Y-79596774D01*
X150333057Y-79596780D01*
X150333058Y-79596782D01*
X150468751Y-79773622D01*
X150468757Y-79773629D01*
X150626370Y-79931242D01*
X150626376Y-79931247D01*
X150803226Y-80066948D01*
X150996274Y-80178405D01*
X151202219Y-80263710D01*
X151417537Y-80321404D01*
X151638543Y-80350500D01*
X151638550Y-80350500D01*
X151861450Y-80350500D01*
X151861457Y-80350500D01*
X152082463Y-80321404D01*
X152297781Y-80263710D01*
X152503726Y-80178405D01*
X152696774Y-80066948D01*
X152873624Y-79931247D01*
X153031247Y-79773624D01*
X153166948Y-79596774D01*
X153278405Y-79403726D01*
X153363710Y-79197781D01*
X153421404Y-78982463D01*
X153450500Y-78761457D01*
X153450500Y-78538543D01*
X153421404Y-78317537D01*
X153363710Y-78102219D01*
X153278405Y-77896274D01*
X153166948Y-77703226D01*
X153031247Y-77526376D01*
X153031242Y-77526370D01*
X152873629Y-77368757D01*
X152873622Y-77368751D01*
X152696782Y-77233058D01*
X152696780Y-77233057D01*
X152696774Y-77233052D01*
X152503726Y-77121595D01*
X152503722Y-77121593D01*
X152297790Y-77036293D01*
X152297783Y-77036291D01*
X152297781Y-77036290D01*
X152082463Y-76978596D01*
X152082457Y-76978595D01*
X152082452Y-76978594D01*
X151861466Y-76949501D01*
X151861463Y-76949500D01*
X151861457Y-76949500D01*
X151638543Y-76949500D01*
X151638537Y-76949500D01*
X151638533Y-76949501D01*
X151417547Y-76978594D01*
X151417540Y-76978595D01*
X151417537Y-76978596D01*
X151202219Y-77036290D01*
X151202209Y-77036293D01*
X150996277Y-77121593D01*
X150996273Y-77121595D01*
X150803226Y-77233052D01*
X150803217Y-77233058D01*
X150626377Y-77368751D01*
X150626370Y-77368757D01*
X150468757Y-77526370D01*
X150468751Y-77526377D01*
X150333058Y-77703217D01*
X150333052Y-77703226D01*
X150221595Y-77896273D01*
X150221593Y-77896277D01*
X150136293Y-78102209D01*
X150136290Y-78102219D01*
X150078597Y-78317534D01*
X150078594Y-78317547D01*
X150049501Y-78538533D01*
X150049500Y-78538549D01*
X49350500Y-78538549D01*
X49350500Y-75138549D01*
X121999500Y-75138549D01*
X121999500Y-75361450D01*
X121999501Y-75361466D01*
X122028594Y-75582452D01*
X122028595Y-75582457D01*
X122028596Y-75582463D01*
X122028597Y-75582465D01*
X122086290Y-75797780D01*
X122086293Y-75797790D01*
X122139472Y-75926174D01*
X122171595Y-76003726D01*
X122283052Y-76196774D01*
X122283057Y-76196780D01*
X122283058Y-76196782D01*
X122418751Y-76373622D01*
X122418757Y-76373629D01*
X122576370Y-76531242D01*
X122576377Y-76531248D01*
X122702294Y-76627867D01*
X122753226Y-76666948D01*
X122946274Y-76778405D01*
X123152219Y-76863710D01*
X123367537Y-76921404D01*
X123588543Y-76950500D01*
X123588550Y-76950500D01*
X123811450Y-76950500D01*
X123811457Y-76950500D01*
X124032463Y-76921404D01*
X124247781Y-76863710D01*
X124453726Y-76778405D01*
X124646774Y-76666948D01*
X124823624Y-76531247D01*
X124981247Y-76373624D01*
X125116948Y-76196774D01*
X125228405Y-76003726D01*
X125313710Y-75797781D01*
X125371404Y-75582463D01*
X125400500Y-75361457D01*
X125400500Y-75138549D01*
X134699500Y-75138549D01*
X134699500Y-75361450D01*
X134699501Y-75361466D01*
X134728594Y-75582452D01*
X134728595Y-75582457D01*
X134728596Y-75582463D01*
X134728597Y-75582465D01*
X134786290Y-75797780D01*
X134786293Y-75797790D01*
X134839472Y-75926174D01*
X134871595Y-76003726D01*
X134983052Y-76196774D01*
X134983057Y-76196780D01*
X134983058Y-76196782D01*
X135118751Y-76373622D01*
X135118757Y-76373629D01*
X135276370Y-76531242D01*
X135276377Y-76531248D01*
X135402294Y-76627867D01*
X135453226Y-76666948D01*
X135646274Y-76778405D01*
X135852219Y-76863710D01*
X136067537Y-76921404D01*
X136288543Y-76950500D01*
X136288550Y-76950500D01*
X136511450Y-76950500D01*
X136511457Y-76950500D01*
X136732463Y-76921404D01*
X136947781Y-76863710D01*
X137153726Y-76778405D01*
X137346774Y-76666948D01*
X137523624Y-76531247D01*
X137681247Y-76373624D01*
X137732810Y-76306425D01*
X137783847Y-76239913D01*
X137816941Y-76196783D01*
X137816942Y-76196782D01*
X137816948Y-76196774D01*
X137928405Y-76003726D01*
X138013710Y-75797781D01*
X138071404Y-75582463D01*
X138100500Y-75361457D01*
X138100500Y-75138543D01*
X138071404Y-74917537D01*
X138013710Y-74702219D01*
X137928405Y-74496274D01*
X137816948Y-74303226D01*
X137709894Y-74163710D01*
X137681248Y-74126377D01*
X137681242Y-74126370D01*
X137523629Y-73968757D01*
X137523622Y-73968751D01*
X137346782Y-73833058D01*
X137346780Y-73833057D01*
X137346774Y-73833052D01*
X137153726Y-73721595D01*
X137153722Y-73721593D01*
X136947790Y-73636293D01*
X136947783Y-73636291D01*
X136947781Y-73636290D01*
X136732463Y-73578596D01*
X136732457Y-73578595D01*
X136732452Y-73578594D01*
X136511466Y-73549501D01*
X136511463Y-73549500D01*
X136511457Y-73549500D01*
X136288543Y-73549500D01*
X136288537Y-73549500D01*
X136288533Y-73549501D01*
X136067547Y-73578594D01*
X136067540Y-73578595D01*
X136067537Y-73578596D01*
X135852219Y-73636290D01*
X135852209Y-73636293D01*
X135646277Y-73721593D01*
X135646273Y-73721595D01*
X135453226Y-73833052D01*
X135453217Y-73833058D01*
X135276377Y-73968751D01*
X135276370Y-73968757D01*
X135118757Y-74126370D01*
X135118751Y-74126377D01*
X134983058Y-74303217D01*
X134983052Y-74303226D01*
X134871595Y-74496273D01*
X134871593Y-74496277D01*
X134786293Y-74702209D01*
X134786290Y-74702219D01*
X134762243Y-74791966D01*
X134728597Y-74917534D01*
X134728594Y-74917547D01*
X134699501Y-75138533D01*
X134699500Y-75138549D01*
X125400500Y-75138549D01*
X125400500Y-75138543D01*
X125371404Y-74917537D01*
X125313710Y-74702219D01*
X125228405Y-74496274D01*
X125116948Y-74303226D01*
X125009894Y-74163710D01*
X124981248Y-74126377D01*
X124981242Y-74126370D01*
X124823629Y-73968757D01*
X124823622Y-73968751D01*
X124646782Y-73833058D01*
X124646780Y-73833057D01*
X124646774Y-73833052D01*
X124453726Y-73721595D01*
X124453722Y-73721593D01*
X124247790Y-73636293D01*
X124247783Y-73636291D01*
X124247781Y-73636290D01*
X124032463Y-73578596D01*
X124032457Y-73578595D01*
X124032452Y-73578594D01*
X123811466Y-73549501D01*
X123811463Y-73549500D01*
X123811457Y-73549500D01*
X123588543Y-73549500D01*
X123588537Y-73549500D01*
X123588533Y-73549501D01*
X123367547Y-73578594D01*
X123367540Y-73578595D01*
X123367537Y-73578596D01*
X123152219Y-73636290D01*
X123152209Y-73636293D01*
X122946277Y-73721593D01*
X122946273Y-73721595D01*
X122753226Y-73833052D01*
X122753217Y-73833058D01*
X122576377Y-73968751D01*
X122576370Y-73968757D01*
X122418757Y-74126370D01*
X122418751Y-74126377D01*
X122283058Y-74303217D01*
X122283052Y-74303226D01*
X122171595Y-74496273D01*
X122171593Y-74496277D01*
X122086293Y-74702209D01*
X122086290Y-74702219D01*
X122062243Y-74791966D01*
X122028597Y-74917534D01*
X122028594Y-74917547D01*
X121999501Y-75138533D01*
X121999500Y-75138549D01*
X49350500Y-75138549D01*
X49350500Y-73697648D01*
X65599500Y-73697648D01*
X65599500Y-73902351D01*
X65631522Y-74104534D01*
X65694781Y-74299223D01*
X65787715Y-74481613D01*
X65908028Y-74647213D01*
X66052786Y-74791971D01*
X66207749Y-74904556D01*
X66218390Y-74912287D01*
X66334607Y-74971503D01*
X66400776Y-75005218D01*
X66400778Y-75005218D01*
X66400781Y-75005220D01*
X66505137Y-75039127D01*
X66595465Y-75068477D01*
X66696557Y-75084488D01*
X66797648Y-75100500D01*
X66797649Y-75100500D01*
X67002351Y-75100500D01*
X67002352Y-75100500D01*
X67204534Y-75068477D01*
X67399219Y-75005220D01*
X67581610Y-74912287D01*
X67674590Y-74844732D01*
X67747213Y-74791971D01*
X67747215Y-74791968D01*
X67747219Y-74791966D01*
X67891966Y-74647219D01*
X67891968Y-74647215D01*
X67891971Y-74647213D01*
X67944732Y-74574590D01*
X68012287Y-74481610D01*
X68105220Y-74299219D01*
X68168477Y-74104534D01*
X68200500Y-73902352D01*
X68200500Y-73697648D01*
X68181643Y-73578594D01*
X68168477Y-73495465D01*
X68106177Y-73303726D01*
X68105220Y-73300781D01*
X68105218Y-73300778D01*
X68105218Y-73300776D01*
X68071503Y-73234607D01*
X68012287Y-73118390D01*
X67997313Y-73097780D01*
X67891971Y-72952786D01*
X67747213Y-72808028D01*
X67581613Y-72687715D01*
X67581612Y-72687714D01*
X67581610Y-72687713D01*
X67524653Y-72658691D01*
X67399223Y-72594781D01*
X67268833Y-72552415D01*
X67204534Y-72531522D01*
X67029995Y-72503878D01*
X67002352Y-72499500D01*
X66797648Y-72499500D01*
X66773329Y-72503351D01*
X66595465Y-72531522D01*
X66400776Y-72594781D01*
X66218386Y-72687715D01*
X66052786Y-72808028D01*
X65908028Y-72952786D01*
X65787715Y-73118386D01*
X65694781Y-73300776D01*
X65631522Y-73495465D01*
X65599500Y-73697648D01*
X49350500Y-73697648D01*
X49350500Y-72438549D01*
X139299500Y-72438549D01*
X139299500Y-72661450D01*
X139299501Y-72661466D01*
X139328594Y-72882452D01*
X139328595Y-72882457D01*
X139328596Y-72882463D01*
X139328597Y-72882465D01*
X139386290Y-73097780D01*
X139386293Y-73097790D01*
X139470373Y-73300776D01*
X139471595Y-73303726D01*
X139583052Y-73496774D01*
X139583057Y-73496780D01*
X139583058Y-73496782D01*
X139718751Y-73673622D01*
X139718757Y-73673629D01*
X139876370Y-73831242D01*
X139876376Y-73831247D01*
X140053226Y-73966948D01*
X140246274Y-74078405D01*
X140452219Y-74163710D01*
X140667537Y-74221404D01*
X140888543Y-74250500D01*
X140888550Y-74250500D01*
X141111450Y-74250500D01*
X141111457Y-74250500D01*
X141332463Y-74221404D01*
X141547781Y-74163710D01*
X141753726Y-74078405D01*
X141946774Y-73966948D01*
X142123624Y-73831247D01*
X142281247Y-73673624D01*
X142416948Y-73496774D01*
X142528405Y-73303726D01*
X142613710Y-73097781D01*
X142671404Y-72882463D01*
X142700500Y-72661457D01*
X142700500Y-72438543D01*
X142671404Y-72217537D01*
X142613710Y-72002219D01*
X142529941Y-71799983D01*
X156299500Y-71799983D01*
X156299500Y-73400001D01*
X156299501Y-73400018D01*
X156310000Y-73502796D01*
X156310001Y-73502799D01*
X156354236Y-73636290D01*
X156365186Y-73669334D01*
X156457288Y-73818656D01*
X156581344Y-73942712D01*
X156730666Y-74034814D01*
X156897203Y-74089999D01*
X156999991Y-74100500D01*
X157062692Y-74100499D01*
X157129729Y-74120183D01*
X157150372Y-74136818D01*
X157588941Y-74575387D01*
X157568409Y-74580889D01*
X157431592Y-74659881D01*
X157319881Y-74771592D01*
X157240889Y-74908409D01*
X157235387Y-74928941D01*
X156577340Y-74270894D01*
X156517084Y-74353830D01*
X156409897Y-74564197D01*
X156336934Y-74788752D01*
X156300000Y-75021947D01*
X156300000Y-75258052D01*
X156336934Y-75491247D01*
X156409897Y-75715802D01*
X156517087Y-75926174D01*
X156577338Y-76009104D01*
X156577340Y-76009105D01*
X157235387Y-75351058D01*
X157240889Y-75371591D01*
X157319881Y-75508408D01*
X157431592Y-75620119D01*
X157568409Y-75699111D01*
X157588940Y-75704612D01*
X156930893Y-76362658D01*
X157013828Y-76422914D01*
X157224197Y-76530102D01*
X157448752Y-76603065D01*
X157448751Y-76603065D01*
X157681948Y-76640000D01*
X157918052Y-76640000D01*
X158151247Y-76603065D01*
X158375802Y-76530102D01*
X158586163Y-76422918D01*
X158586169Y-76422914D01*
X158669104Y-76362658D01*
X158669105Y-76362658D01*
X158011058Y-75704612D01*
X158031591Y-75699111D01*
X158168408Y-75620119D01*
X158280119Y-75508408D01*
X158359111Y-75371591D01*
X158364612Y-75351059D01*
X159022658Y-76009105D01*
X159022658Y-76009104D01*
X159082914Y-75926169D01*
X159082918Y-75926163D01*
X159190102Y-75715802D01*
X159263065Y-75491247D01*
X159300000Y-75258052D01*
X159300000Y-75021947D01*
X159263065Y-74788752D01*
X159190102Y-74564197D01*
X159082914Y-74353828D01*
X159022658Y-74270894D01*
X159022658Y-74270893D01*
X158364612Y-74928940D01*
X158359111Y-74908409D01*
X158280119Y-74771592D01*
X158168408Y-74659881D01*
X158031591Y-74580889D01*
X158011058Y-74575387D01*
X158449627Y-74136818D01*
X158510950Y-74103333D01*
X158537307Y-74100499D01*
X158600008Y-74100499D01*
X158702797Y-74089999D01*
X158869334Y-74034814D01*
X159018656Y-73942712D01*
X159142712Y-73818656D01*
X159234814Y-73669334D01*
X159289999Y-73502797D01*
X159300500Y-73400009D01*
X159300499Y-71799992D01*
X159289999Y-71697203D01*
X159234814Y-71530666D01*
X159142712Y-71381344D01*
X159018656Y-71257288D01*
X158892499Y-71179474D01*
X158869336Y-71165187D01*
X158869331Y-71165185D01*
X158867862Y-71164698D01*
X158702797Y-71110001D01*
X158702795Y-71110000D01*
X158600010Y-71099500D01*
X156999998Y-71099500D01*
X156999981Y-71099501D01*
X156897203Y-71110000D01*
X156897200Y-71110001D01*
X156730668Y-71165185D01*
X156730663Y-71165187D01*
X156581342Y-71257289D01*
X156457289Y-71381342D01*
X156365187Y-71530663D01*
X156365185Y-71530668D01*
X156341145Y-71603217D01*
X156310001Y-71697203D01*
X156310001Y-71697204D01*
X156310000Y-71697204D01*
X156299500Y-71799983D01*
X142529941Y-71799983D01*
X142528405Y-71796274D01*
X142416948Y-71603226D01*
X142312378Y-71466947D01*
X142281248Y-71426377D01*
X142281242Y-71426370D01*
X142123629Y-71268757D01*
X142123622Y-71268751D01*
X141946782Y-71133058D01*
X141946780Y-71133057D01*
X141946774Y-71133052D01*
X141753726Y-71021595D01*
X141753722Y-71021593D01*
X141547790Y-70936293D01*
X141547783Y-70936291D01*
X141547781Y-70936290D01*
X141332463Y-70878596D01*
X141332457Y-70878595D01*
X141332452Y-70878594D01*
X141111466Y-70849501D01*
X141111463Y-70849500D01*
X141111457Y-70849500D01*
X140888543Y-70849500D01*
X140888537Y-70849500D01*
X140888533Y-70849501D01*
X140667547Y-70878594D01*
X140667540Y-70878595D01*
X140667537Y-70878596D01*
X140452219Y-70936290D01*
X140452209Y-70936293D01*
X140246277Y-71021593D01*
X140246273Y-71021595D01*
X140053226Y-71133052D01*
X140053217Y-71133058D01*
X139876377Y-71268751D01*
X139876370Y-71268757D01*
X139718757Y-71426370D01*
X139718751Y-71426377D01*
X139583058Y-71603217D01*
X139583052Y-71603226D01*
X139471595Y-71796273D01*
X139471593Y-71796277D01*
X139386293Y-72002209D01*
X139386290Y-72002219D01*
X139328597Y-72217534D01*
X139328594Y-72217547D01*
X139299501Y-72438533D01*
X139299500Y-72438549D01*
X49350500Y-72438549D01*
X49350500Y-69897648D01*
X65549500Y-69897648D01*
X65549500Y-70102351D01*
X65581522Y-70304534D01*
X65644781Y-70499223D01*
X65737715Y-70681613D01*
X65858028Y-70847213D01*
X66002786Y-70991971D01*
X66140420Y-71091966D01*
X66168390Y-71112287D01*
X66272208Y-71165185D01*
X66350776Y-71205218D01*
X66350778Y-71205218D01*
X66350781Y-71205220D01*
X66455137Y-71239127D01*
X66545465Y-71268477D01*
X66646557Y-71284488D01*
X66747648Y-71300500D01*
X66747649Y-71300500D01*
X66952351Y-71300500D01*
X66952352Y-71300500D01*
X67154534Y-71268477D01*
X67349219Y-71205220D01*
X67531610Y-71112287D01*
X67621783Y-71046773D01*
X67642259Y-71031897D01*
X67642260Y-71031896D01*
X67697215Y-70991969D01*
X67697215Y-70991968D01*
X67697219Y-70991966D01*
X67841966Y-70847219D01*
X67841968Y-70847215D01*
X67841971Y-70847213D01*
X67928858Y-70727621D01*
X67962287Y-70681610D01*
X68055220Y-70499219D01*
X68118477Y-70304534D01*
X68150500Y-70102352D01*
X68150500Y-69997682D01*
X77800000Y-69997682D01*
X77800000Y-70202317D01*
X77832009Y-70404417D01*
X77895244Y-70599031D01*
X77988141Y-70781350D01*
X77988147Y-70781359D01*
X78020523Y-70825921D01*
X78020524Y-70825922D01*
X78700000Y-70146446D01*
X78700000Y-70152661D01*
X78727259Y-70254394D01*
X78779920Y-70345606D01*
X78854394Y-70420080D01*
X78945606Y-70472741D01*
X79047339Y-70500000D01*
X79053553Y-70500000D01*
X78374076Y-71179474D01*
X78418650Y-71211859D01*
X78600968Y-71304755D01*
X78795582Y-71367990D01*
X78997683Y-71400000D01*
X79202317Y-71400000D01*
X79404417Y-71367990D01*
X79599031Y-71304755D01*
X79781349Y-71211859D01*
X79825921Y-71179474D01*
X79146447Y-70500000D01*
X79152661Y-70500000D01*
X79254394Y-70472741D01*
X79345606Y-70420080D01*
X79420080Y-70345606D01*
X79472741Y-70254394D01*
X79500000Y-70152661D01*
X79500000Y-70146447D01*
X80179474Y-70825921D01*
X80211859Y-70781349D01*
X80239233Y-70727624D01*
X80287207Y-70676827D01*
X80355028Y-70660031D01*
X80421163Y-70682567D01*
X80460203Y-70727621D01*
X80487713Y-70781611D01*
X80608028Y-70947213D01*
X80752786Y-71091971D01*
X80865181Y-71173629D01*
X80918390Y-71212287D01*
X81034607Y-71271503D01*
X81100776Y-71305218D01*
X81100778Y-71305218D01*
X81100781Y-71305220D01*
X81180884Y-71331247D01*
X81295465Y-71368477D01*
X81376691Y-71381342D01*
X81497648Y-71400500D01*
X81497649Y-71400500D01*
X81702351Y-71400500D01*
X81702352Y-71400500D01*
X81904534Y-71368477D01*
X82099219Y-71305220D01*
X82281610Y-71212287D01*
X82390669Y-71133052D01*
X82447213Y-71091971D01*
X82447215Y-71091968D01*
X82447219Y-71091966D01*
X82591966Y-70947219D01*
X82591968Y-70947215D01*
X82591971Y-70947213D01*
X82659895Y-70853722D01*
X82712287Y-70781610D01*
X82805220Y-70599219D01*
X82868477Y-70404534D01*
X82900500Y-70202352D01*
X82900500Y-69997648D01*
X82899059Y-69988549D01*
X85099500Y-69988549D01*
X85099500Y-70211450D01*
X85099501Y-70211466D01*
X85128594Y-70432452D01*
X85128595Y-70432457D01*
X85128596Y-70432463D01*
X85172893Y-70597781D01*
X85186290Y-70647780D01*
X85186293Y-70647790D01*
X85269845Y-70849501D01*
X85271595Y-70853726D01*
X85383052Y-71046774D01*
X85383057Y-71046780D01*
X85383058Y-71046782D01*
X85518751Y-71223622D01*
X85518757Y-71223629D01*
X85676370Y-71381242D01*
X85676377Y-71381248D01*
X85735191Y-71426377D01*
X85853226Y-71516948D01*
X86046274Y-71628405D01*
X86252219Y-71713710D01*
X86467537Y-71771404D01*
X86688543Y-71800500D01*
X86688550Y-71800500D01*
X86911450Y-71800500D01*
X86911457Y-71800500D01*
X87132463Y-71771404D01*
X87347781Y-71713710D01*
X87553726Y-71628405D01*
X87746774Y-71516948D01*
X87923624Y-71381247D01*
X88081247Y-71223624D01*
X88216948Y-71046774D01*
X88328405Y-70853726D01*
X88413710Y-70647781D01*
X88471404Y-70432463D01*
X88500500Y-70211457D01*
X88500500Y-69988543D01*
X88493918Y-69938549D01*
X91799500Y-69938549D01*
X91799500Y-70161450D01*
X91799501Y-70161466D01*
X91828594Y-70382452D01*
X91828595Y-70382457D01*
X91828596Y-70382463D01*
X91852786Y-70472741D01*
X91886290Y-70597780D01*
X91886293Y-70597790D01*
X91971593Y-70803722D01*
X91971595Y-70803726D01*
X92083052Y-70996774D01*
X92083057Y-70996780D01*
X92083058Y-70996782D01*
X92218751Y-71173622D01*
X92218757Y-71173629D01*
X92376370Y-71331242D01*
X92376377Y-71331248D01*
X92441539Y-71381248D01*
X92553226Y-71466948D01*
X92746274Y-71578405D01*
X92952219Y-71663710D01*
X93167537Y-71721404D01*
X93388543Y-71750500D01*
X93388550Y-71750500D01*
X93611450Y-71750500D01*
X93611457Y-71750500D01*
X93832463Y-71721404D01*
X94047781Y-71663710D01*
X94253726Y-71578405D01*
X94446774Y-71466948D01*
X94623624Y-71331247D01*
X94781247Y-71173624D01*
X94916948Y-70996774D01*
X95028405Y-70803726D01*
X95113710Y-70597781D01*
X95171404Y-70382463D01*
X95200500Y-70161457D01*
X95200500Y-69988549D01*
X97899500Y-69988549D01*
X97899500Y-70211450D01*
X97899501Y-70211466D01*
X97928594Y-70432452D01*
X97928595Y-70432457D01*
X97928596Y-70432463D01*
X97972893Y-70597781D01*
X97986290Y-70647780D01*
X97986293Y-70647790D01*
X98069845Y-70849501D01*
X98071595Y-70853726D01*
X98183052Y-71046774D01*
X98183057Y-71046780D01*
X98183058Y-71046782D01*
X98318751Y-71223622D01*
X98318757Y-71223629D01*
X98476370Y-71381242D01*
X98476377Y-71381248D01*
X98535191Y-71426377D01*
X98653226Y-71516948D01*
X98846274Y-71628405D01*
X99052219Y-71713710D01*
X99267537Y-71771404D01*
X99488543Y-71800500D01*
X99488550Y-71800500D01*
X99711450Y-71800500D01*
X99711457Y-71800500D01*
X99932463Y-71771404D01*
X100147781Y-71713710D01*
X100353726Y-71628405D01*
X100546774Y-71516948D01*
X100723624Y-71381247D01*
X100881247Y-71223624D01*
X101016948Y-71046774D01*
X101128405Y-70853726D01*
X101213710Y-70647781D01*
X101271404Y-70432463D01*
X101300500Y-70211457D01*
X101300500Y-69988549D01*
X110599500Y-69988549D01*
X110599500Y-70211450D01*
X110599501Y-70211466D01*
X110628594Y-70432452D01*
X110628595Y-70432457D01*
X110628596Y-70432463D01*
X110672893Y-70597781D01*
X110686290Y-70647780D01*
X110686293Y-70647790D01*
X110769845Y-70849501D01*
X110771595Y-70853726D01*
X110883052Y-71046774D01*
X110883057Y-71046780D01*
X110883058Y-71046782D01*
X111018751Y-71223622D01*
X111018757Y-71223629D01*
X111176370Y-71381242D01*
X111176377Y-71381248D01*
X111235191Y-71426377D01*
X111353226Y-71516948D01*
X111546274Y-71628405D01*
X111752219Y-71713710D01*
X111967537Y-71771404D01*
X112188543Y-71800500D01*
X112188550Y-71800500D01*
X112411450Y-71800500D01*
X112411457Y-71800500D01*
X112632463Y-71771404D01*
X112847781Y-71713710D01*
X113053726Y-71628405D01*
X113246774Y-71516948D01*
X113423624Y-71381247D01*
X113581247Y-71223624D01*
X113716948Y-71046774D01*
X113828405Y-70853726D01*
X113913710Y-70647781D01*
X113971404Y-70432463D01*
X114000500Y-70211457D01*
X114000500Y-69988543D01*
X113971404Y-69767537D01*
X113913710Y-69552219D01*
X113908635Y-69539968D01*
X113858385Y-69418652D01*
X113828405Y-69346274D01*
X113716948Y-69153226D01*
X113581247Y-68976376D01*
X113581242Y-68976370D01*
X113423629Y-68818757D01*
X113423622Y-68818751D01*
X113246782Y-68683058D01*
X113246780Y-68683057D01*
X113246774Y-68683052D01*
X113053726Y-68571595D01*
X113053722Y-68571593D01*
X112847790Y-68486293D01*
X112847783Y-68486291D01*
X112847781Y-68486290D01*
X112632463Y-68428596D01*
X112632457Y-68428595D01*
X112632452Y-68428594D01*
X112411466Y-68399501D01*
X112411463Y-68399500D01*
X112411457Y-68399500D01*
X112188543Y-68399500D01*
X112188537Y-68399500D01*
X112188533Y-68399501D01*
X111967547Y-68428594D01*
X111967540Y-68428595D01*
X111967537Y-68428596D01*
X111752219Y-68486290D01*
X111752209Y-68486293D01*
X111546277Y-68571593D01*
X111546273Y-68571595D01*
X111353226Y-68683052D01*
X111353217Y-68683058D01*
X111176377Y-68818751D01*
X111176370Y-68818757D01*
X111018757Y-68976370D01*
X111018751Y-68976377D01*
X110883058Y-69153217D01*
X110883052Y-69153226D01*
X110771595Y-69346273D01*
X110771593Y-69346277D01*
X110686293Y-69552209D01*
X110686290Y-69552219D01*
X110639389Y-69727259D01*
X110628597Y-69767534D01*
X110628594Y-69767547D01*
X110599501Y-69988533D01*
X110599500Y-69988549D01*
X101300500Y-69988549D01*
X101300500Y-69988543D01*
X101271404Y-69767537D01*
X101213710Y-69552219D01*
X101208635Y-69539968D01*
X101158385Y-69418652D01*
X101128405Y-69346274D01*
X101016948Y-69153226D01*
X100881247Y-68976376D01*
X100881242Y-68976370D01*
X100723629Y-68818757D01*
X100723622Y-68818751D01*
X100546782Y-68683058D01*
X100546780Y-68683057D01*
X100546774Y-68683052D01*
X100353726Y-68571595D01*
X100353722Y-68571593D01*
X100147790Y-68486293D01*
X100147783Y-68486291D01*
X100147781Y-68486290D01*
X99932463Y-68428596D01*
X99932457Y-68428595D01*
X99932452Y-68428594D01*
X99711466Y-68399501D01*
X99711463Y-68399500D01*
X99711457Y-68399500D01*
X99488543Y-68399500D01*
X99488537Y-68399500D01*
X99488533Y-68399501D01*
X99267547Y-68428594D01*
X99267540Y-68428595D01*
X99267537Y-68428596D01*
X99052219Y-68486290D01*
X99052209Y-68486293D01*
X98846277Y-68571593D01*
X98846273Y-68571595D01*
X98653226Y-68683052D01*
X98653217Y-68683058D01*
X98476377Y-68818751D01*
X98476370Y-68818757D01*
X98318757Y-68976370D01*
X98318751Y-68976377D01*
X98183058Y-69153217D01*
X98183052Y-69153226D01*
X98071595Y-69346273D01*
X98071593Y-69346277D01*
X97986293Y-69552209D01*
X97986290Y-69552219D01*
X97939389Y-69727259D01*
X97928597Y-69767534D01*
X97928594Y-69767547D01*
X97899501Y-69988533D01*
X97899500Y-69988549D01*
X95200500Y-69988549D01*
X95200500Y-69938543D01*
X95171404Y-69717537D01*
X95113710Y-69502219D01*
X95113114Y-69500781D01*
X95082197Y-69426140D01*
X95028405Y-69296274D01*
X94916948Y-69103226D01*
X94843905Y-69008034D01*
X94781248Y-68926377D01*
X94781242Y-68926370D01*
X94623629Y-68768757D01*
X94623622Y-68768751D01*
X94446782Y-68633058D01*
X94446780Y-68633057D01*
X94446774Y-68633052D01*
X94253726Y-68521595D01*
X94253722Y-68521593D01*
X94047790Y-68436293D01*
X94047783Y-68436291D01*
X94047781Y-68436290D01*
X93832463Y-68378596D01*
X93832457Y-68378595D01*
X93832452Y-68378594D01*
X93611466Y-68349501D01*
X93611463Y-68349500D01*
X93611457Y-68349500D01*
X93388543Y-68349500D01*
X93388537Y-68349500D01*
X93388533Y-68349501D01*
X93167547Y-68378594D01*
X93167540Y-68378595D01*
X93167537Y-68378596D01*
X92980941Y-68428594D01*
X92952219Y-68436290D01*
X92952209Y-68436293D01*
X92746277Y-68521593D01*
X92746273Y-68521595D01*
X92553226Y-68633052D01*
X92553217Y-68633058D01*
X92376377Y-68768751D01*
X92376370Y-68768757D01*
X92218757Y-68926370D01*
X92218751Y-68926377D01*
X92083058Y-69103217D01*
X92083052Y-69103226D01*
X91971595Y-69296273D01*
X91971593Y-69296277D01*
X91886293Y-69502209D01*
X91886290Y-69502219D01*
X91859831Y-69600968D01*
X91828597Y-69717534D01*
X91828594Y-69717547D01*
X91799501Y-69938533D01*
X91799500Y-69938549D01*
X88493918Y-69938549D01*
X88493917Y-69938543D01*
X88471405Y-69767547D01*
X88471404Y-69767537D01*
X88413710Y-69552219D01*
X88408635Y-69539968D01*
X88358385Y-69418652D01*
X88328405Y-69346274D01*
X88216948Y-69153226D01*
X88081247Y-68976376D01*
X88081242Y-68976370D01*
X87923629Y-68818757D01*
X87923622Y-68818751D01*
X87746782Y-68683058D01*
X87746780Y-68683057D01*
X87746774Y-68683052D01*
X87553726Y-68571595D01*
X87553722Y-68571593D01*
X87347790Y-68486293D01*
X87347783Y-68486291D01*
X87347781Y-68486290D01*
X87132463Y-68428596D01*
X87132457Y-68428595D01*
X87132452Y-68428594D01*
X86911466Y-68399501D01*
X86911463Y-68399500D01*
X86911457Y-68399500D01*
X86688543Y-68399500D01*
X86688537Y-68399500D01*
X86688533Y-68399501D01*
X86467547Y-68428594D01*
X86467540Y-68428595D01*
X86467537Y-68428596D01*
X86252219Y-68486290D01*
X86252209Y-68486293D01*
X86046277Y-68571593D01*
X86046273Y-68571595D01*
X85853226Y-68683052D01*
X85853217Y-68683058D01*
X85676377Y-68818751D01*
X85676370Y-68818757D01*
X85518757Y-68976370D01*
X85518751Y-68976377D01*
X85383058Y-69153217D01*
X85383052Y-69153226D01*
X85271595Y-69346273D01*
X85271593Y-69346277D01*
X85186293Y-69552209D01*
X85186290Y-69552219D01*
X85139389Y-69727259D01*
X85128597Y-69767534D01*
X85128594Y-69767547D01*
X85099501Y-69988533D01*
X85099500Y-69988549D01*
X82899059Y-69988549D01*
X82892257Y-69945606D01*
X82868477Y-69795465D01*
X82835985Y-69695465D01*
X82805220Y-69600781D01*
X82805218Y-69600778D01*
X82805218Y-69600776D01*
X82754265Y-69500776D01*
X82712287Y-69418390D01*
X82680092Y-69374077D01*
X82591971Y-69252786D01*
X82447213Y-69108028D01*
X82281613Y-68987715D01*
X82281612Y-68987714D01*
X82281610Y-68987713D01*
X82224653Y-68958691D01*
X82099223Y-68894781D01*
X81904534Y-68831522D01*
X81729995Y-68803878D01*
X81702352Y-68799500D01*
X81497648Y-68799500D01*
X81473329Y-68803351D01*
X81295465Y-68831522D01*
X81100776Y-68894781D01*
X80918386Y-68987715D01*
X80752786Y-69108028D01*
X80608028Y-69252786D01*
X80487714Y-69418386D01*
X80460203Y-69472379D01*
X80412227Y-69523174D01*
X80344406Y-69539968D01*
X80278272Y-69517429D01*
X80239234Y-69472376D01*
X80211861Y-69418652D01*
X80179474Y-69374077D01*
X80179474Y-69374076D01*
X79500000Y-70053551D01*
X79500000Y-70047339D01*
X79472741Y-69945606D01*
X79420080Y-69854394D01*
X79345606Y-69779920D01*
X79254394Y-69727259D01*
X79152661Y-69700000D01*
X79146446Y-69700000D01*
X79825922Y-69020524D01*
X79825921Y-69020523D01*
X79781359Y-68988147D01*
X79781350Y-68988141D01*
X79599031Y-68895244D01*
X79404417Y-68832009D01*
X79202317Y-68800000D01*
X78997683Y-68800000D01*
X78795582Y-68832009D01*
X78600968Y-68895244D01*
X78418644Y-68988143D01*
X78374077Y-69020523D01*
X78374077Y-69020524D01*
X79053554Y-69700000D01*
X79047339Y-69700000D01*
X78945606Y-69727259D01*
X78854394Y-69779920D01*
X78779920Y-69854394D01*
X78727259Y-69945606D01*
X78700000Y-70047339D01*
X78700000Y-70053553D01*
X78020524Y-69374077D01*
X78020523Y-69374077D01*
X77988143Y-69418644D01*
X77895244Y-69600968D01*
X77832009Y-69795582D01*
X77800000Y-69997682D01*
X68150500Y-69997682D01*
X68150500Y-69897648D01*
X68134316Y-69795465D01*
X68118477Y-69695465D01*
X68071930Y-69552209D01*
X68055220Y-69500781D01*
X68055218Y-69500778D01*
X68055218Y-69500776D01*
X68013369Y-69418644D01*
X67962287Y-69318390D01*
X67946218Y-69296273D01*
X67841971Y-69152786D01*
X67697213Y-69008028D01*
X67531611Y-68887713D01*
X67477621Y-68860203D01*
X67426825Y-68812228D01*
X67410031Y-68744407D01*
X67432569Y-68678272D01*
X67477624Y-68639233D01*
X67531349Y-68611859D01*
X67575921Y-68579474D01*
X66896447Y-67900000D01*
X66902661Y-67900000D01*
X67004394Y-67872741D01*
X67095606Y-67820080D01*
X67170080Y-67745606D01*
X67222741Y-67654394D01*
X67250000Y-67552661D01*
X67250000Y-67546447D01*
X67929474Y-68225921D01*
X67961859Y-68181349D01*
X68054755Y-67999031D01*
X68117990Y-67804417D01*
X68150000Y-67602317D01*
X68150000Y-67397682D01*
X68132533Y-67287401D01*
X68117990Y-67195582D01*
X68054755Y-67000968D01*
X67961859Y-66818650D01*
X67929474Y-66774077D01*
X67929474Y-66774076D01*
X67250000Y-67453551D01*
X67250000Y-67447339D01*
X67222741Y-67345606D01*
X67170080Y-67254394D01*
X67095606Y-67179920D01*
X67004394Y-67127259D01*
X66902661Y-67100000D01*
X66896446Y-67100000D01*
X67575922Y-66420524D01*
X67575921Y-66420523D01*
X67531359Y-66388147D01*
X67531350Y-66388141D01*
X67349031Y-66295244D01*
X67154417Y-66232009D01*
X66952317Y-66200000D01*
X66747683Y-66200000D01*
X66545582Y-66232009D01*
X66350968Y-66295244D01*
X66168644Y-66388143D01*
X66124077Y-66420523D01*
X66124077Y-66420524D01*
X66803554Y-67100000D01*
X66797339Y-67100000D01*
X66695606Y-67127259D01*
X66604394Y-67179920D01*
X66529920Y-67254394D01*
X66477259Y-67345606D01*
X66450000Y-67447339D01*
X66450000Y-67453553D01*
X65770524Y-66774077D01*
X65770523Y-66774077D01*
X65738143Y-66818644D01*
X65645244Y-67000968D01*
X65582009Y-67195582D01*
X65550000Y-67397682D01*
X65550000Y-67602317D01*
X65582009Y-67804417D01*
X65645244Y-67999031D01*
X65738141Y-68181350D01*
X65738147Y-68181359D01*
X65770523Y-68225921D01*
X65770524Y-68225922D01*
X66450000Y-67546446D01*
X66450000Y-67552661D01*
X66477259Y-67654394D01*
X66529920Y-67745606D01*
X66604394Y-67820080D01*
X66695606Y-67872741D01*
X66797339Y-67900000D01*
X66803553Y-67900000D01*
X66124076Y-68579474D01*
X66168652Y-68611861D01*
X66222376Y-68639234D01*
X66273172Y-68687208D01*
X66289968Y-68755028D01*
X66267431Y-68821164D01*
X66222379Y-68860203D01*
X66168386Y-68887714D01*
X66002786Y-69008028D01*
X65858028Y-69152786D01*
X65737715Y-69318386D01*
X65644781Y-69500776D01*
X65581522Y-69695465D01*
X65549500Y-69897648D01*
X49350500Y-69897648D01*
X49350500Y-65838575D01*
X150050000Y-65838575D01*
X150050000Y-66061424D01*
X150079085Y-66282354D01*
X150079088Y-66282367D01*
X150136763Y-66497618D01*
X150222045Y-66703502D01*
X150222054Y-66703520D01*
X150333464Y-66896491D01*
X150333473Y-66896504D01*
X150384040Y-66962403D01*
X150384043Y-66962403D01*
X151185387Y-66161059D01*
X151190889Y-66181591D01*
X151269881Y-66318408D01*
X151381592Y-66430119D01*
X151518409Y-66509111D01*
X151538940Y-66514612D01*
X150737595Y-67315955D01*
X150737595Y-67315956D01*
X150803507Y-67366533D01*
X150996485Y-67477949D01*
X150996497Y-67477954D01*
X151202381Y-67563236D01*
X151417632Y-67620911D01*
X151417645Y-67620914D01*
X151638575Y-67650000D01*
X151861425Y-67650000D01*
X152082354Y-67620914D01*
X152082367Y-67620911D01*
X152297618Y-67563236D01*
X152503502Y-67477954D01*
X152503514Y-67477949D01*
X152696498Y-67366530D01*
X152762403Y-67315957D01*
X152762404Y-67315956D01*
X151961059Y-66514612D01*
X151981591Y-66509111D01*
X152118408Y-66430119D01*
X152230119Y-66318408D01*
X152309111Y-66181591D01*
X152314612Y-66161060D01*
X153115956Y-66962404D01*
X153115957Y-66962403D01*
X153166530Y-66896498D01*
X153277949Y-66703514D01*
X153277954Y-66703502D01*
X153363236Y-66497618D01*
X153420911Y-66282367D01*
X153420914Y-66282354D01*
X153450000Y-66061424D01*
X153450000Y-65838575D01*
X153420914Y-65617645D01*
X153420911Y-65617632D01*
X153363236Y-65402381D01*
X153277954Y-65196497D01*
X153277949Y-65196485D01*
X153166533Y-65003507D01*
X153115956Y-64937595D01*
X153115955Y-64937595D01*
X152314612Y-65738939D01*
X152309111Y-65718409D01*
X152230119Y-65581592D01*
X152118408Y-65469881D01*
X151981591Y-65390889D01*
X151961058Y-65385387D01*
X152762403Y-64584043D01*
X152762403Y-64584040D01*
X152696504Y-64533473D01*
X152696491Y-64533464D01*
X152503520Y-64422054D01*
X152503502Y-64422045D01*
X152297618Y-64336763D01*
X152082367Y-64279088D01*
X152082354Y-64279085D01*
X151861425Y-64250000D01*
X151638575Y-64250000D01*
X151417645Y-64279085D01*
X151417632Y-64279088D01*
X151202381Y-64336763D01*
X150996497Y-64422045D01*
X150996479Y-64422054D01*
X150803511Y-64533462D01*
X150737595Y-64584042D01*
X151538941Y-65385387D01*
X151518409Y-65390889D01*
X151381592Y-65469881D01*
X151269881Y-65581592D01*
X151190889Y-65718409D01*
X151185387Y-65738940D01*
X150384042Y-64937595D01*
X150333462Y-65003511D01*
X150222054Y-65196479D01*
X150222045Y-65196497D01*
X150136763Y-65402381D01*
X150079088Y-65617632D01*
X150079085Y-65617645D01*
X150050000Y-65838575D01*
X49350500Y-65838575D01*
X49350500Y-63624500D01*
X49370185Y-63557461D01*
X49422989Y-63511706D01*
X49474500Y-63500500D01*
X159975500Y-63500500D01*
X160042539Y-63520185D01*
G37*
%TD.AperFunction*%
%TD*%
M02*
